<?xml version="1.0" encoding="UTF-8"?>
<svg id="Layer_2" data-name="Layer 2" xmlns="http://www.w3.org/2000/svg" viewBox="0 0 37.83 68.05">
  <defs>
    <style>
      .cls-1 {
        stroke-width: .1px;
      }

      .cls-1, .cls-2, .cls-3, .cls-4 {
        fill: none;
        stroke: #eee8f6;
        stroke-linecap: round;
        stroke-linejoin: round;
      }

      .cls-2 {
        stroke-width: .08px;
      }

      .cls-3 {
        stroke-width: .04px;
      }

      .cls-5 {
        fill: #eee8f6;
      }

      .cls-6 {
        fill: #480809;
      }

      .cls-4 {
        stroke-width: .16px;
      }
    </style>
  </defs>
  <g id="Layer_1-2" data-name="Layer 1">
    <g>
      <g>
        <g>
          <path class="cls-6" d="M4.79,5.58s-.03.02-.07.06c.03-.05.07-.06.07-.06Z"/>
          <path class="cls-6" d="M1.9,11.19c.28-3.07,2.4-5.17,2.81-5.55-.1.15-.18.62.8,2.04,1.1,1.6,4.26,1.11,5.21.92,0-2.88,1.04-5.7,1.04-5.7l1.67,1.7,1.72-.76c1.19-.53,2.47-.83,3.78-.89l2.08-.09.71-2.25s2.11,2.1,3.31,4.7c.99-.26,3.96-1.2,4.24-3.1.25-1.7-.02-2.09-.18-2.18.54.16,3.36,1.12,4.96,3.76,1.77,2.93,1.56,5.8,1.56,5.8,0,0-.56-1.49-2.62-1.69-2.06-.2-2.64,1.25-2.64,1.25,0,0,.16-1.39-1.36-1.92-1.08-.38-2.65-.59-3.47-.69.94,2.97.23,6.22-6.05,7.67-6.29,1.45-8.27-1.2-8.66-4.29-.69.44-2.03,1.33-2.84,2.14-1.13,1.14-.38,2.32-.38,2.32,0,0-1.16-1.05-2.92.03-1.77,1.08-1.62,2.67-1.62,2.67,0,0-1.45-2.49-1.14-5.89Z"/>
          <path class="cls-6" d="M29.1.03c-.06-.02-.09-.03-.09-.03,0,0,.04,0,.09.03Z"/>
        </g>
        <g>
          <g>
            <ellipse class="cls-5" cx="20.4" cy="5.79" rx=".52" ry="1.1" transform="translate(-.78 4.73) rotate(-12.97)"/>
            <ellipse class="cls-5" cx="15.06" cy="7.02" rx=".52" ry="1.1" transform="translate(-1.19 3.56) rotate(-12.97)"/>
          </g>
          <path class="cls-4" d="M17.2,8.8s-.5.88.22.95.92-.71.92-.71c0,0,.52.62,1.14.24s-.22-.95-.22-.95"/>
        </g>
      </g>
      <g>
        <g>
          <path class="cls-6" d="M4.52,24.45s-.02,0-.05,0c.03,0,.05,0,.05,0Z"/>
          <path class="cls-6" d="M1.62,25.38c1.15-.95,2.58-.94,2.85-.93-.08.02-.27.15-.42.97-.17.92,1.07,1.83,1.46,2.09.98-.98,2.3-1.59,2.3-1.59v1.15s.83.33.83.33c.59.23,1.13.56,1.59.99l.74.68,1.01-.53s0,1.44-.47,2.73c.43.25,1.76.94,2.5.39.67-.49.71-.72.69-.81.13.24.76,1.53.41,2.98-.39,1.6-1.45,2.51-1.45,2.51,0,0,.32-.7-.32-1.47s-1.33-.47-1.33-.47c0,0,.53-.42.19-1.12-.24-.5-.7-1.11-.95-1.42-.69,1.33-2.05,2.2-4.68.55-2.64-1.65-2.42-3.23-1.49-4.42-.39-.09-1.15-.24-1.7-.24-.77,0-.92.66-.92.66,0,0-.04-.75-1.01-.99-.97-.23-1.46.36-1.46.36,0,0,.35-1.34,1.62-2.4Z"/>
          <path class="cls-6" d="M14.72,30.85s-.02-.04-.02-.04c0,0,.01.01.02.04Z"/>
        </g>
        <g>
          <g>
            <ellipse class="cls-5" cx="9.78" cy="29.85" rx=".53" ry=".25" transform="translate(-20.72 22.31) rotate(-57.97)"/>
            <ellipse class="cls-5" cx="7.54" cy="28.45" rx=".53" ry=".25" transform="translate(-20.58 19.75) rotate(-57.97)"/>
          </g>
          <path class="cls-2" d="M7.66,29.79s-.47.13-.25.4.56.07.56.07c0,0-.03.39.31.47s.25-.4.25-.4"/>
        </g>
      </g>
      <g>
        <g>
          <path class="cls-6" d="M23.3,27.34s0,0-.01.02c0-.01.01-.02.01-.02Z"/>
          <path class="cls-6" d="M22.89,28.96c-.11-.81.31-1.48.4-1.6-.02.04,0,.17.33.48.38.35,1.17.03,1.4-.07-.17-.74-.07-1.53-.07-1.53l.53.34.4-.3c.28-.21.59-.36.92-.45l.53-.15.05-.62s.67.42,1.13,1.02c.24-.13.95-.55.91-1.05-.04-.45-.13-.54-.18-.55.15,0,.93.09,1.5.68.63.65.75,1.4.75,1.4,0,0-.23-.35-.78-.28s-.61.48-.61.48c0,0-.04-.37-.46-.42-.3-.03-.72,0-.94.03.42.71.43,1.59-1.11,2.34-1.54.75-2.21.18-2.49-.59-.15.15-.44.46-.6.72-.22.36.04.62.04.62,0,0-.36-.2-.75.18-.39.38-.26.78-.26.78,0,0-.52-.56-.64-1.45Z"/>
          <path class="cls-6" d="M29.25,24.46s-.03,0-.03,0c0,0,0,0,.03,0Z"/>
        </g>
        <g>
          <g>
            <ellipse class="cls-5" cx="27.35" cy="26.47" rx=".14" ry=".29" transform="translate(-8.82 14.63) rotate(-25.94)"/>
            <ellipse class="cls-5" cx="26.04" cy="27.1" rx=".14" ry=".29" transform="translate(-9.23 14.12) rotate(-25.94)"/>
          </g>
          <path class="cls-3" d="M26.7,27.43s-.08.26.11.23.19-.24.19-.24c0,0,.17.13.31,0s-.11-.23-.11-.23"/>
        </g>
      </g>
      <g>
        <g>
          <path class="cls-6" d="M7.62,43.71s0,0-.03,0c.02,0,.03,0,.03,0Z"/>
          <path class="cls-6" d="M6.1,44.42c.56-.6,1.34-.7,1.49-.71-.05.01-.14.1-.16.56-.03.51.71.92.94,1.04.47-.6,1.14-1.03,1.14-1.03l.07.63.48.12c.34.08.65.23.94.42l.45.32.51-.36s.1.78-.06,1.52c.25.1,1.02.39,1.39.04.33-.32.33-.44.32-.49.09.12.52.78.43,1.59-.1.9-.61,1.47-.61,1.47,0,0,.12-.4-.28-.78s-.76-.16-.76-.16c0,0,.26-.27.03-.62-.16-.25-.46-.55-.62-.7-.28.77-.96,1.34-2.51.63-1.55-.71-1.54-1.59-1.12-2.3-.22-.02-.64-.05-.94,0-.42.06-.46.43-.46.43,0,0-.07-.41-.62-.47-.55-.06-.77.3-.77.3,0,0,.1-.76.71-1.42Z"/>
          <path class="cls-6" d="M13.61,46.47s-.01-.02-.01-.02c0,0,0,0,.01.02Z"/>
        </g>
        <g>
          <g>
            <ellipse class="cls-5" cx="10.86" cy="46.28" rx=".29" ry=".14" transform="translate(-35.73 36.84) rotate(-65.35)"/>
            <ellipse class="cls-5" cx="9.54" cy="45.67" rx=".29" ry=".14" transform="translate(-35.95 35.29) rotate(-65.35)"/>
          </g>
          <path class="cls-3" d="M9.7,46.39s-.25.1-.11.24.31,0,.31,0c0,0,0,.21.2.23s.11-.24.11-.24"/>
        </g>
      </g>
      <g>
        <g>
          <path class="cls-6" d="M23.06,44.41s-.01,0-.04.03c.02-.02.04-.03.04-.03Z"/>
          <path class="cls-6" d="M21.52,47.04c.22-1.47,1.29-2.43,1.5-2.6-.05.07-.1.29.33,1,.49.8,2.02.65,2.49.58.08-1.39.65-2.72.65-2.72l.76.87.85-.32c.59-.22,1.21-.33,1.84-.33h1.01s.4-1.06.4-1.06c0,0,.96,1.07,1.47,2.35.48-.1,1.94-.47,2.13-1.38.17-.81.05-1.01-.03-1.06.26.09,1.59.63,2.29,1.94.78,1.46.6,2.84.6,2.84,0,0-.23-.73-1.22-.88s-1.31.53-1.31.53c0,0,.11-.67-.6-.96-.51-.21-1.26-.36-1.65-.42.37,1.45-.05,3.01-3.12,3.54-3.07.53-3.96-.8-4.06-2.3-.35.19-1.01.59-1.42.96-.58.52-.25,1.11-.25,1.11,0,0-.53-.54-1.41-.06-.88.47-.85,1.24-.85,1.24,0,0-.63-1.24-.39-2.87Z"/>
          <path class="cls-6" d="M34.92,42.38s-.04-.02-.04-.02c0,0,.02,0,.04.02Z"/>
        </g>
        <g>
          <g>
            <ellipse class="cls-5" cx="30.58" cy="44.93" rx=".25" ry=".53" transform="translate(-7.21 5.87) rotate(-9.81)"/>
            <ellipse class="cls-5" cx="27.97" cy="45.38" rx=".25" ry=".53" transform="translate(-7.32 5.43) rotate(-9.81)"/>
          </g>
          <path class="cls-2" d="M28.96,46.3s-.27.41.08.46.46-.32.46-.32c0,0,.23.31.54.15s-.08-.46-.08-.46"/>
        </g>
      </g>
      <g>
        <g>
          <path class="cls-6" d="M6.73,57.83s-.02,0-.06.02c.03-.02.06-.02.06-.02Z"/>
          <path class="cls-6" d="M3.69,60.16c.96-1.61,2.66-2.21,2.99-2.31-.09.06-.26.3-.09,1.33.19,1.17,2.05,1.72,2.62,1.86.75-1.58,2.05-2.86,2.05-2.86l.47,1.37,1.14.03c.79.02,1.57.19,2.31.49l1.17.49.98-1.05s.61,1.7.6,3.44c.61.11,2.48.37,3.13-.6.58-.87.53-1.16.47-1.24.25.23,1.55,1.49,1.74,3.35.21,2.07-.65,3.59-.65,3.59,0,0,.08-.97-1-1.61s-1.78,0-1.78,0c0,0,.45-.72-.25-1.41-.49-.49-1.3-1.01-1.73-1.28-.26,1.87-1.49,3.48-5.32,2.64-3.83-.84-4.23-2.81-3.64-4.61-.5.06-1.46.2-2.11.44-.92.33-.81,1.18-.81,1.18,0,0-.36-.88-1.61-.75-1.25.13-1.58,1.04-1.58,1.04,0,0-.15-1.74.91-3.53Z"/>
          <path class="cls-6" d="M21.52,61.11s-.04-.04-.04-.04c0,0,.02,0,.04.04Z"/>
        </g>
        <g>
          <g>
            <ellipse class="cls-5" cx="15.24" cy="62.01" rx=".67" ry=".31" transform="translate(-48.6 63.6) rotate(-77.62)"/>
            <ellipse class="cls-5" cx="11.99" cy="61.3" rx=".67" ry=".31" transform="translate(-50.45 59.87) rotate(-77.62)"/>
          </g>
          <path class="cls-1" d="M12.71,62.83s-.51.35-.13.58.69-.15.69-.15c0,0,.12.47.56.43s.13-.58.13-.58"/>
        </g>
      </g>
    </g>
  </g>
</svg>