<?xml version="1.0" encoding="UTF-8"?>
<svg id="Layer_2" data-name="Layer 2" xmlns="http://www.w3.org/2000/svg" viewBox="0 0 106.78 73.97">
  <defs>
    <style>
      .cls-1 {
        fill: none;
      }

      .cls-1, .cls-2 {
        stroke: #480809;
        stroke-linecap: round;
        stroke-linejoin: round;
        stroke-width: 1.11px;
      }

      .cls-3, .cls-2 {
        fill: #fcf4e9;
      }

      .cls-4 {
        fill: #afa391;
        opacity: .4;
      }

      .cls-5 {
        fill: #480809;
      }
    </style>
  </defs>
  <g id="Layer_1-2" data-name="Layer 1">
    <g>
      <path class="cls-3" d="M91.46,67.1s-17.2-20.99-8.5-35.71c8.7-14.73,23.26-19.91,23.26-19.91,0,0-44.64-23.03-70.93-2.19S.56,57.21.56,57.21c0,0,12.69-11.52,33.06-8.83,20.37,2.69,25.26,25.03,25.26,25.03,0,0,3.3-9.54,13.97-10.58,10.67-1.03,16.06,6.99,16.06,6.99l2.55-2.72Z"/>
      <g>
        <path class="cls-2" d="M91.46,67.1s-17.2-20.99-8.5-35.71c8.7-14.73,23.26-19.91,23.26-19.91,0,0-44.64-23.03-70.93-2.19S.56,57.21.56,57.21c0,0,12.69-11.52,33.06-8.83,20.37,2.69,25.26,25.03,25.26,25.03,0,0,3.3-9.54,13.97-10.58,10.67-1.03,16.06,6.99,16.06,6.99l2.55-2.72Z"/>
        <path class="cls-1" d="M.56,57.21S22.79,26.1,48.91,15.26c19.51-8.1,57.31-3.79,57.31-3.79,0,0-31.29,8.45-39.26,21.82-8.33,13.98-8.09,40.12-8.09,40.12"/>
      </g>
      <path class="cls-4" d="M85.57,58.05s-6.88-8.12-14.49-8.66c-7.61-.54-10.24,2.26-10.24,2.26,0,0-1.36-12.9-10.56-17.96s-28.18-.35-28.18-.35l-16,11.3S23.67,8.13,51.46,1.78c26.43-6.03,54.76,9.7,54.76,9.7,0,0-21.68,9.02-25.23,24.87-2.72,12.14,4.58,21.71,4.58,21.71Z"/>
      <path class="cls-5" d="M58.88,73.97c.24,0,.45-.15.53-.37.03-.09,3.33-9.22,13.49-10.21,10.19-.99,15.49,6.67,15.55,6.75.09.14.25.23.42.24.17.01.33-.05.45-.17l2.55-2.72c.19-.2.2-.52.02-.73-.17-.21-16.85-20.86-8.45-35.08,8.49-14.37,22.83-19.62,22.97-19.67.21-.07.35-.27.37-.49s-.1-.43-.3-.53c-.11-.06-11.39-5.83-25.74-8.96-13.3-2.9-32.04-4.07-45.79,6.83C8.83,29.56.11,56.77.03,57.04c-.07.24.02.5.23.63.21.13.49.11.67-.06.13-.11,12.76-11.31,32.62-8.69,19.74,2.6,24.74,24.38,24.79,24.6.05.24.26.42.51.44.01,0,.02,0,.03,0ZM74.7,62.18c-.62,0-1.25.03-1.91.09-8.33.81-12.34,6.72-13.78,9.51-1.56-5.12-7.92-21.66-25.31-23.96-16.36-2.16-27.96,4.85-31.97,7.76,2.4-6.36,11.93-28.44,33.92-45.87C49.05-.91,67.42.25,80.48,3.1c11.64,2.54,21.23,6.83,24.39,8.33-3.67,1.6-15.12,7.38-22.39,19.68-8.25,13.97,5.87,32.95,8.24,35.97l-1.77,1.89c-1.39-1.7-6.2-6.78-14.25-6.78Z"/>
      <path class="cls-5" d="M58.88,73.97h0c.31,0,.55-.25.55-.56,0-.26-.14-26.14,8.01-39.83,7.75-13.02,38.61-21.48,38.92-21.56.26-.07.43-.31.41-.58s-.23-.48-.49-.51c-.38-.04-38.18-4.23-57.59,3.83C22.73,25.53.33,56.57.1,56.89c-.18.25-.12.6.13.78.25.18.6.12.78-.13.22-.31,22.44-31.1,48.11-41.76,16.04-6.66,44.98-4.82,54.16-4.02-7.92,2.42-30.13,10.07-36.8,21.25-8.31,13.95-8.17,40.15-8.17,40.41,0,.31.25.55.56.55Z"/>
    </g>
  </g>
</svg>