<?xml version="1.0" encoding="UTF-8"?>
<svg id="Layer_2" data-name="Layer 2" xmlns="http://www.w3.org/2000/svg" viewBox="0 0 71.04 53.67">
  <defs>
    <style>
      .cls-1 {
        fill: none;
      }

      .cls-2 {
        fill: #eee8f6;
      }

      .cls-3 {
        fill: #f97e38;
      }

      .cls-4 {
        fill: #480809;
      }

      .cls-5 {
        fill: #130711;
      }

      .cls-6 {
        fill: #4d2639;
      }

      .cls-7 {
        fill: #ff7ea5;
      }

      .cls-8 {
        fill: #986a9f;
      }

      .cls-9 {
        fill: #c488ec;
      }

      .cls-10 {
        fill: #e15010;
      }

      .cls-11 {
        fill: #e4b5ec;
      }

      .cls-12 {
        fill: #bf4520;
      }

      .cls-13 {
        fill: #5f3978;
      }

      .cls-14 {
        fill: #fea153;
      }
    </style>
  </defs>
  <g id="Layer_1-2" data-name="Layer 1">
    <g>
      <ellipse class="cls-4" cx="35.26" cy="9.11" rx="23.44" ry="4.68"/>
      <g>
        <g>
          <g>
            <path class="cls-7" d="M31.29,10.04c-.06,0-.12,0-.17-.02-.34-.09-.48-.29-.53-.44-.08-.25,0-.55.11-.8-.08.02-.17.03-.26.03h0c-.27,0-.48-.13-.59-.38-.09-.19-.09-.39,0-.56.03-.07.08-.13.13-.18-.36-.1-.59-.34-.65-.71-.02-.16.02-.31.12-.44.39-.49,1.66-.69,2.5-.76-.05-.98.43-1.93,1.27-2.46l.68-.43c.43-.27.93-.42,1.44-.42.47,0,.92.12,1.33.34.55-.92,1.3-1.93,1.91-1.93.11,0,.22.03.31.1.21.14.33.33.36.56.02.11,0,.23-.01.33.07-.02.14-.04.22-.04.19,0,.36.09.5.25.13.15.18.33.14.51-.03.15-.11.29-.21.41.39,0,.66.1.82.3.13.16.17.37.12.62-.16.79-1.6.95-2.78.95h-.02c.12,1.04-.36,2.08-1.26,2.64l-.68.43c-.43.27-.93.42-1.44.42s-1.04-.15-1.48-.43c-.49,1.01-1.18,2.13-1.9,2.13Z"/>
            <path class="cls-5" d="M38.58,1.07c.07,0,.14.02.2.06.66.46,0,1.29,0,1.29,0,0,.33-.39.68-.39.12,0,.25.05.36.18.42.51-.51,1.04-.51,1.04,0,0,.27-.06.56-.06.42,0,.9.12.79.69-.14.7-1.72.8-2.59.8-.09,0-.17,0-.25,0,.21,1.01-.21,2.09-1.13,2.67l-.68.43c-.42.26-.88.39-1.34.39-.56,0-1.11-.18-1.55-.53-.3.66-1.09,2.22-1.83,2.22-.04,0-.08,0-.13-.02-.96-.25.02-1.49.02-1.49,0,0-.4.27-.74.27-.17,0-.33-.07-.42-.27-.27-.6.64-.84.64-.84,0,0-.14.03-.31.03-.31,0-.76-.09-.84-.6-.12-.73,1.97-.95,2.64-1-.12-.95.3-1.93,1.17-2.47l.68-.43c.42-.26.88-.39,1.34-.39.49,0,.98.14,1.39.41.31-.53,1.23-2.01,1.85-2.01M38.58.69c-.55,0-1.22.63-1.98,1.88-.39-.19-.82-.28-1.26-.28-.54,0-1.08.15-1.54.44l-.68.43c-.85.53-1.36,1.46-1.36,2.45-.97.1-2.07.32-2.46.82-.14.17-.19.38-.16.59.06.35.25.62.55.77,0,0,0,0,0,.01-.08.16-.13.41,0,.72.14.3.41.48.74.49-.06.21-.08.43,0,.64.07.2.23.45.66.56.07.02.15.03.22.03.64,0,1.3-.69,1.98-2.05.43.23.91.36,1.4.36.54,0,1.08-.15,1.54-.44l.68-.43c.9-.56,1.41-1.57,1.36-2.61,1.7-.02,2.64-.4,2.78-1.1.08-.38-.05-.63-.16-.77-.14-.17-.36-.29-.64-.34.03-.07.05-.14.07-.21.04-.24-.02-.47-.19-.66-.22-.26-.47-.32-.65-.32,0,0,0,0-.01,0,0-.04,0-.09-.01-.14-.04-.28-.2-.52-.44-.69-.12-.09-.27-.13-.42-.13h0Z"/>
          </g>
          <g>
            <path class="cls-9" d="M35.88,11.13c-.08,0-.16-.01-.23-.04-.33-.12-.45-.33-.49-.48-.06-.26.04-.55.18-.79-.06.01-.13.02-.19.02h0c-.31,0-.53-.15-.63-.43-.07-.2-.06-.39.04-.56.04-.07.09-.12.14-.17-.35-.13-.57-.39-.59-.76-.01-.16.04-.31.16-.43.42-.46,1.71-.55,2.55-.56.02-.99.58-1.89,1.46-2.35l.71-.37c.39-.2.82-.31,1.26-.31.54,0,1.06.16,1.51.46.52-.73,1.38-1.78,2.01-1.78.13,0,.25.04.35.12.2.16.3.36.32.59,0,.11,0,.23-.04.33.06-.01.11-.02.17-.02.21,0,.4.1.53.29.11.16.15.34.1.52-.04.15-.13.28-.24.39.37.03.63.15.78.34.13.17.16.39.09.64-.14.51-.83.77-2.03.77-.3,0-.6-.02-.83-.04.04,1.04-.52,2.04-1.46,2.53l-.71.37c-.39.2-.82.31-1.26.31-.6,0-1.18-.2-1.65-.56-.47.82-1.28,1.97-2.01,1.97Z"/>
            <path class="cls-5" d="M43.77,2.75c.08,0,.16.03.23.08.62.51-.09,1.28-.09,1.28,0,0,.34-.34.67-.34.13,0,.27.06.38.21.38.54-.59,1-.59,1,0,0,.16-.02.37-.02.44,0,1.11.1.93.75-.14.51-1.04.63-1.85.63-.4,0-.78-.03-1.04-.05.13,1.02-.37,2.07-1.34,2.57l-.71.37c-.37.2-.77.29-1.17.29-.63,0-1.24-.23-1.71-.66-.35.62-1.23,2.07-1.95,2.07-.06,0-.11,0-.17-.03-.94-.33.14-1.48.14-1.48,0,0-.37.22-.71.22-.19,0-.37-.07-.45-.3-.22-.62.7-.78.7-.78,0,0-.07,0-.18,0-.3,0-.88-.08-.93-.67-.06-.73,2-.79,2.7-.79h.02c-.05-.96.45-1.9,1.36-2.37l.71-.37c.37-.2.77-.29,1.17-.29.56,0,1.11.19,1.55.53.34-.49,1.34-1.86,1.97-1.86M43.77,2.38h0c-.54,0-1.23.58-2.06,1.72-.44-.25-.95-.39-1.46-.39-.46,0-.93.11-1.34.33l-.71.37c-.89.46-1.47,1.35-1.55,2.34-.98.03-2.09.16-2.51.62-.15.16-.22.36-.21.57.03.36.2.63.48.81,0,0,0,0,0,.01-.09.15-.17.4-.05.72.11.32.36.51.7.55-.08.2-.11.43-.06.64.05.2.2.47.61.61.09.03.19.05.29.05.62,0,1.31-.64,2.07-1.89.47.31,1.02.47,1.59.47.46,0,.93-.11,1.34-.33l.71-.37c.94-.49,1.53-1.46,1.56-2.49.19.01.41.02.64.02,1.32,0,2.05-.3,2.22-.9.11-.39,0-.66-.12-.81-.13-.17-.33-.29-.59-.36.04-.06.06-.13.08-.21.06-.23.02-.47-.13-.68-.16-.22-.38-.35-.63-.37,0-.04,0-.09,0-.14-.02-.28-.15-.53-.39-.72-.13-.11-.3-.17-.47-.17h0Z"/>
          </g>
          <g>
            <path class="cls-11" d="M33.37,11.88c-.68,0-1.11-1.31-1.36-2.48-.16.03-.32.04-.48.04-.83,0-1.6-.37-2.12-1.01l-.51-.63c-.62-.77-.77-1.83-.4-2.74-.77-.35-1.91-.94-2.12-1.53-.06-.16-.05-.32.03-.46.16-.3.43-.46.77-.46.03,0,.05,0,.08,0-.03-.07-.05-.14-.06-.22-.02-.19.04-.37.19-.53.13-.13.28-.21.45-.21s.32.07.46.16c-.03-.27-.01-.57.14-.78.09-.12.26-.27.57-.27.03,0,.05,0,.08,0,.8.06,1.14,1.43,1.28,2.66.21-.05.43-.08.65-.08.83,0,1.6.37,2.12,1.01l.51.63c.66.82.79,1.96.33,2.9,1.17.4,2.45,1.02,2.34,1.81-.06.41-.31.64-.71.64-.16,0-.32-.04-.48-.09.06.14.09.3.06.45-.03.18-.13.33-.3.44-.12.07-.24.11-.36.11h0c-.15,0-.28-.06-.4-.14-.01.11-.04.22-.1.32-.11.21-.28.35-.53.41-.05.01-.1.02-.15.02Z"/>
            <path class="cls-5" d="M29.02.97s.04,0,.07,0c.79.06,1.06,1.96,1.13,2.72.26-.09.54-.13.81-.13.74,0,1.47.32,1.97.94l.51.63c.69.85.73,2,.21,2.89.73.23,2.53.89,2.42,1.68-.05.37-.27.48-.52.48-.43,0-.96-.33-.96-.33,0,0,.71.81.14,1.15-.09.06-.18.08-.26.08-.41,0-.65-.62-.65-.62,0,0,.35,1-.42,1.22-.03,0-.07.01-.1.01-.65,0-1.09-1.88-1.21-2.52-.21.05-.42.08-.62.08-.74,0-1.47-.32-1.97-.94l-.51-.63c-.64-.79-.72-1.86-.3-2.72-.62-.27-2.52-1.15-2.17-1.8.15-.28.38-.36.6-.36.35,0,.68.2.68.2,0,0-.79-.52-.33-1,.1-.11.21-.15.32-.15.39,0,.78.53.78.53,0,0-.5-1.42.39-1.42M29.02.59c-.4,0-.61.19-.73.35-.12.17-.17.37-.18.58-.09-.03-.17-.04-.27-.04-.22,0-.43.09-.59.27-.23.25-.26.5-.24.68,0,0,0,0,0,.01-.33.05-.6.24-.77.55-.1.19-.11.4-.04.61.21.59,1.17,1.16,2.06,1.57-.31.94-.13,1.98.49,2.76l.51.63c.55.69,1.38,1.08,2.26,1.08.11,0,.22,0,.33-.02.55,2.46,1.27,2.46,1.51,2.46.07,0,.14,0,.2-.03.29-.08.51-.26.64-.51.02-.04.04-.08.05-.12.08.03.17.05.27.05.15,0,.31-.05.45-.13.22-.13.35-.33.39-.57.01-.07.01-.15,0-.22.07.01.15.02.22.02.49,0,.83-.3.9-.81.1-.72-.66-1.38-2.27-1.95.38-.97.23-2.09-.44-2.91l-.51-.63c-.55-.69-1.38-1.08-2.26-1.08-.16,0-.33.01-.49.04-.22-1.69-.7-2.57-1.43-2.63-.03,0-.07,0-.1,0h0Z"/>
          </g>
          <g>
            <path class="cls-7" d="M19.1,12.48c-.65,0-.92-1.22-1.03-2.33-.05,0-.09,0-.14,0-.84,0-1.61-.42-2.06-1.12l-.39-.6c-.48-.74-.51-1.69-.1-2.46-.65-.38-1.59-1.02-1.71-1.57-.03-.15,0-.3.07-.42.16-.23.38-.35.64-.35.05,0,.09,0,.14.01-.02-.05-.02-.11-.02-.17,0-.18.08-.34.23-.46.11-.1.24-.15.37-.15.16,0,.31.07.43.17,0-.22.05-.45.18-.62.11-.14.28-.22.48-.22.05,0,.11,0,.17.02.71.13.88,1.37.89,2.48.1-.01.19-.02.29-.02.84,0,1.61.42,2.06,1.12l.39.6c.51.79.51,1.81.02,2.6,1,.47,2.05,1.14,1.88,1.84-.08.33-.3.52-.62.52-.16,0-.32-.05-.47-.11.03.12.03.25,0,.37-.04.16-.16.29-.32.37-.09.04-.18.06-.27.06h0c-.15,0-.28-.06-.38-.15-.02.09-.06.17-.11.25-.12.17-.3.29-.52.32-.03,0-.06,0-.09,0Z"/>
            <path class="cls-5" d="M16.2,2.39s.09,0,.13.01c.69.13.74,1.83.73,2.51.16-.03.32-.05.48-.05.74,0,1.47.37,1.9,1.04l.39.6c.52.82.45,1.84-.1,2.57.62.28,2.15,1.04,1.97,1.72-.07.28-.24.38-.43.38-.39,0-.89-.39-.89-.39,0,0,.55.79.01,1.03-.07.03-.14.05-.2.05-.39,0-.55-.61-.55-.61,0,0,.21.91-.49,1.03-.02,0-.04,0-.05,0-.6,0-.81-1.76-.86-2.34-.1.01-.21.02-.31.02-.74,0-1.47-.37-1.9-1.04l-.39-.6c-.49-.77-.46-1.71,0-2.43-.52-.3-2.11-1.27-1.74-1.81.14-.2.31-.27.48-.27.34,0,.66.25.66.25,0,0-.65-.53-.2-.92.08-.07.17-.1.25-.1.36,0,.68.55.68.55,0,0-.28-1.22.41-1.22M16.2,2.01c-.26,0-.47.1-.62.29-.1.12-.16.28-.19.43-.09-.03-.18-.05-.28-.05-.18,0-.35.07-.5.19-.23.2-.29.42-.29.58-.29.02-.55.17-.72.43-.11.17-.15.36-.1.57.13.55.91,1.14,1.65,1.6-.36.8-.3,1.74.18,2.49l.39.6c.48.75,1.29,1.2,2.19,1.21.27,2.32.96,2.32,1.2,2.32.04,0,.08,0,.12,0,.28-.05.5-.19.65-.4.02-.02.03-.05.04-.07.09.04.18.06.29.06.12,0,.24-.03.35-.08.22-.1.37-.27.42-.49.01-.05.02-.1.03-.15.09.02.18.03.27.03.4,0,.7-.25.8-.66.16-.64-.44-1.31-1.8-1.97.42-.82.38-1.82-.12-2.62l-.39-.6c-.49-.76-1.31-1.21-2.22-1.21-.04,0-.07,0-.11,0-.04-1.51-.38-2.34-1.04-2.46-.07-.01-.14-.02-.2-.02h0Z"/>
          </g>
          <g>
            <path class="cls-7" d="M32.44,17.58c-.06,0-.12,0-.17-.02-.34-.09-.48-.29-.53-.44-.08-.25,0-.55.11-.8-.08.02-.17.03-.26.03h0c-.27,0-.48-.13-.59-.38-.09-.19-.09-.39,0-.56.03-.07.08-.13.13-.18-.36-.1-.59-.34-.65-.71-.02-.16.02-.31.12-.44.39-.49,1.66-.69,2.5-.76-.05-.98.43-1.93,1.27-2.46l.68-.43c.43-.27.93-.42,1.44-.42.47,0,.92.12,1.33.34.55-.92,1.3-1.93,1.91-1.93.11,0,.22.03.31.1.21.14.33.33.37.56.02.11,0,.23-.01.33.07-.02.14-.04.22-.04.19,0,.36.09.5.25.13.15.18.33.14.51-.03.15-.11.29-.21.41.39,0,.66.1.82.3.13.16.17.37.12.62-.15.79-1.6.95-2.78.95h-.02c.13,1.04-.36,2.08-1.26,2.64l-.68.43c-.43.27-.93.42-1.44.42s-1.04-.15-1.48-.43c-.49,1.01-1.18,2.13-1.9,2.13Z"/>
            <path class="cls-5" d="M39.74,8.61c.07,0,.14.02.2.06.66.46,0,1.29,0,1.29,0,0,.33-.39.68-.39.12,0,.25.05.36.18.42.51-.51,1.04-.51,1.04,0,0,.27-.06.56-.06.42,0,.9.12.79.69-.14.7-1.72.8-2.59.8-.09,0-.17,0-.25,0,.21,1.01-.21,2.09-1.13,2.67l-.68.43c-.42.26-.88.39-1.34.39-.56,0-1.11-.18-1.55-.53-.3.66-1.09,2.22-1.83,2.22-.04,0-.08,0-.13-.02-.96-.25.02-1.49.02-1.49,0,0-.4.27-.74.27-.17,0-.33-.07-.42-.27-.27-.6.64-.84.64-.84,0,0-.14.03-.31.03-.31,0-.76-.09-.84-.6-.12-.73,1.97-.95,2.64-1-.12-.95.3-1.93,1.17-2.47l.68-.43c.42-.26.88-.39,1.34-.39.49,0,.98.14,1.39.41.31-.53,1.23-2.01,1.85-2.01M39.74,8.23c-.55,0-1.22.63-1.98,1.88-.39-.19-.82-.28-1.26-.28-.54,0-1.08.15-1.54.44l-.68.43c-.85.53-1.36,1.46-1.36,2.45-.97.1-2.07.32-2.46.82-.14.17-.19.38-.16.59.06.35.25.62.55.77,0,0,0,0,0,.01-.08.16-.13.41,0,.72.14.3.41.48.74.49-.06.21-.08.43,0,.64.07.2.23.45.66.56.07.02.15.03.22.03.64,0,1.3-.69,1.98-2.05.43.23.91.36,1.4.36.54,0,1.08-.15,1.54-.44l.68-.43c.9-.56,1.41-1.57,1.36-2.61,1.7-.02,2.64-.4,2.78-1.1.08-.38-.05-.63-.16-.77-.14-.17-.36-.29-.64-.34.03-.07.05-.14.07-.21.04-.24-.02-.47-.19-.66-.22-.26-.47-.32-.65-.32,0,0,0,0-.01,0,0-.04,0-.09-.01-.14-.04-.28-.2-.52-.44-.69-.12-.09-.27-.13-.42-.13h0Z"/>
          </g>
          <g>
            <path class="cls-7" d="M21.27,10.75c-.06,0-.12,0-.17-.02-.34-.09-.48-.29-.53-.44-.08-.25,0-.55.11-.8-.08.02-.17.03-.26.03h0c-.27,0-.48-.13-.59-.38-.09-.19-.09-.39,0-.56.03-.07.08-.13.13-.18-.36-.1-.59-.34-.65-.71-.02-.16.02-.31.12-.44.39-.49,1.66-.69,2.5-.76-.05-.98.43-1.93,1.27-2.46l.68-.43c.43-.27.93-.42,1.44-.42.47,0,.92.12,1.33.34.55-.92,1.3-1.93,1.91-1.93.11,0,.22.03.31.1.21.14.33.33.37.56.02.11,0,.23-.01.33.07-.02.14-.04.22-.04.19,0,.36.09.5.25.13.15.18.33.14.51-.03.15-.11.29-.21.41.39,0,.66.1.82.3.13.16.17.37.12.62-.15.79-1.59.95-2.77.95h-.03c.13,1.04-.36,2.08-1.26,2.64l-.68.43c-.43.27-.93.42-1.44.42s-1.04-.15-1.48-.43c-.49,1.01-1.18,2.13-1.9,2.13Z"/>
            <path class="cls-5" d="M28.56,1.78c.07,0,.14.02.2.06.66.46,0,1.29,0,1.29,0,0,.33-.39.68-.39.12,0,.25.05.36.18.42.51-.51,1.04-.51,1.04,0,0,.27-.06.56-.06.42,0,.9.12.79.69-.14.7-1.72.8-2.59.8-.09,0-.17,0-.25,0,.21,1.01-.21,2.09-1.13,2.67l-.68.43c-.42.26-.88.39-1.34.39-.56,0-1.11-.18-1.55-.53-.3.66-1.09,2.22-1.83,2.22-.04,0-.08,0-.13-.02-.96-.25.02-1.49.02-1.49,0,0-.4.27-.74.27-.17,0-.33-.07-.42-.27-.27-.6.64-.84.64-.84,0,0-.14.03-.31.03-.31,0-.76-.09-.84-.6-.12-.73,1.97-.95,2.64-1-.12-.95.3-1.93,1.17-2.47l.68-.43c.42-.26.88-.39,1.34-.39.49,0,.98.14,1.39.41.31-.53,1.22-2.01,1.85-2.01M28.56,1.4h0c-.55,0-1.22.63-1.98,1.88-.39-.19-.82-.28-1.26-.28-.54,0-1.08.15-1.54.44l-.68.43c-.85.53-1.36,1.46-1.36,2.45-.97.1-2.07.32-2.46.82-.14.17-.19.38-.16.59.06.35.25.62.55.77,0,0,0,0,0,.01-.08.16-.14.41,0,.72.14.3.41.48.74.49-.06.21-.08.43,0,.64.07.2.23.45.66.56.07.02.15.03.22.03.64,0,1.3-.69,1.98-2.05.43.23.91.36,1.4.36.54,0,1.08-.15,1.54-.44l.68-.43c.9-.56,1.41-1.57,1.36-2.61,1.7-.02,2.64-.4,2.78-1.1.08-.38-.05-.63-.16-.77-.14-.17-.36-.29-.64-.34.03-.07.05-.14.07-.21.04-.24-.02-.47-.19-.66-.22-.26-.47-.32-.65-.32,0,0,0,0-.01,0,0-.04,0-.09-.01-.14-.04-.28-.2-.52-.44-.69-.12-.09-.27-.13-.42-.13h0Z"/>
          </g>
          <g>
            <path class="cls-11" d="M29.32,16.48c-.06,0-.12,0-.17-.02-.34-.09-.48-.29-.53-.44-.08-.25,0-.55.11-.8-.08.02-.17.03-.26.03h0c-.27,0-.48-.13-.59-.38-.09-.19-.09-.39,0-.56.03-.07.08-.13.13-.18-.36-.1-.59-.34-.65-.71-.02-.16.02-.31.12-.44.39-.49,1.66-.69,2.5-.76-.05-.98.43-1.93,1.27-2.46l.68-.43c.43-.27.93-.42,1.44-.42.47,0,.92.12,1.33.34.55-.92,1.3-1.93,1.91-1.93.11,0,.22.03.31.1.21.14.33.33.36.56.02.11,0,.23-.01.33.07-.02.14-.04.22-.04.19,0,.36.09.5.25.13.15.18.33.14.51-.03.15-.11.29-.21.41.39,0,.66.1.82.3.13.16.17.37.12.62-.16.79-1.6.95-2.78.95h-.02c.12,1.04-.36,2.08-1.26,2.64l-.68.43c-.43.27-.93.42-1.44.42s-1.04-.15-1.48-.43c-.49,1.01-1.18,2.13-1.9,2.13Z"/>
            <path class="cls-5" d="M36.61,7.51c.07,0,.14.02.2.06.66.46,0,1.29,0,1.29,0,0,.33-.39.68-.39.12,0,.25.05.36.18.42.51-.51,1.04-.51,1.04,0,0,.27-.06.56-.06.42,0,.9.12.79.69-.14.7-1.72.8-2.59.8-.09,0-.17,0-.25,0,.21,1.01-.21,2.09-1.13,2.67l-.68.43c-.42.26-.88.39-1.34.39-.56,0-1.11-.18-1.55-.53-.3.66-1.09,2.22-1.83,2.22-.04,0-.08,0-.13-.02-.96-.25.02-1.49.02-1.49,0,0-.4.27-.74.27-.17,0-.33-.07-.42-.27-.27-.6.64-.84.64-.84,0,0-.14.03-.31.03-.31,0-.76-.09-.84-.6-.12-.73,1.97-.95,2.64-1-.12-.95.3-1.93,1.17-2.47l.68-.43c.42-.26.88-.39,1.34-.39.49,0,.98.14,1.39.41.31-.53,1.23-2.01,1.85-2.01M36.61,7.13c-.55,0-1.22.63-1.98,1.88-.39-.19-.82-.28-1.26-.28-.54,0-1.08.15-1.54.44l-.68.43c-.85.53-1.36,1.46-1.36,2.45-.97.1-2.07.32-2.46.82-.14.17-.19.38-.16.59.06.35.25.62.55.77,0,0,0,0,0,.01-.08.16-.14.41,0,.72.14.3.41.48.74.49-.06.21-.08.43,0,.64.07.2.23.45.66.56.07.02.15.03.22.03.64,0,1.3-.69,1.98-2.05.43.23.91.36,1.4.36.54,0,1.08-.15,1.54-.44l.68-.43c.9-.56,1.41-1.57,1.36-2.61,1.7-.02,2.64-.4,2.78-1.1.08-.38-.05-.63-.16-.77-.14-.17-.36-.29-.64-.34.03-.07.05-.14.07-.21.04-.24-.02-.47-.19-.66-.22-.26-.47-.32-.65-.32,0,0,0,0-.01,0,0-.04,0-.09-.01-.14-.04-.28-.2-.52-.44-.69-.12-.09-.27-.13-.42-.13h0Z"/>
          </g>
          <g>
            <path class="cls-9" d="M52.69,14.46c-.11,0-.23-.03-.36-.09-.42-.19-.65-.46-.77-.74-.14.26-.32.39-.54.39-.11,0-.23-.04-.35-.11-.4-.25-.46-.75-.2-1.39-.08.02-.16.03-.25.03h0c-.33,0-.64-.18-.81-.46l-4.34-7.33c-.22-.37-.16-.82.12-1.12-.34-.07-.7-.2-.96-.49-.27-.29-.39-.69-.35-1.19.05-.63.25-.96.61-.96.25,0,.51.19.74.4-.07-.38-.08-.79.08-1.02.09-.13.22-.19.39-.19.11,0,.23.03.36.09.37.16.63.42.78.74.14-.26.32-.38.54-.38.11,0,.23.04.35.11.25.16.57.55.17,1.45.29.03.56.2.71.46l4.34,7.33c.19.32.17.71-.02,1,.42.04.9.17,1.23.52.27.29.39.7.36,1.19-.05.63-.25.96-.61.96-.25,0-.51-.19-.74-.4.07.38.08.79-.08,1.02-.09.13-.22.19-.39.19Z"/>
            <path class="cls-5" d="M45.7.38c.08,0,.17.02.29.07.71.31.82.92.8,1.32.08-.4.25-.95.59-.95.07,0,.15.03.24.08.5.32.21,1.06-.04,1.51.07-.02.15-.03.22-.03.26,0,.51.13.65.37l4.34,7.33c.21.36.09.82-.27,1.03l-.08.05c.06,0,.12,0,.19,0,.66,0,1.79.19,1.69,1.52-.04.58-.21.78-.42.78-.46,0-1.13-.97-1.13-.97,0,0,.62,1.78-.07,1.78-.08,0-.17-.02-.29-.07-.71-.31-.82-.92-.8-1.32-.08.4-.25.95-.59.95-.07,0-.15-.03-.24-.08-.57-.36-.11-1.26.14-1.67l-.3.18c-.12.07-.25.11-.38.11-.26,0-.51-.13-.65-.37l-4.34-7.33c-.21-.36-.09-.82.27-1.03l.22-.13c-.66,0-1.74-.22-1.65-1.52.04-.58.21-.78.42-.78.46,0,1.13.97,1.13.97,0,0-.62-1.78.07-1.78M45.7,0h0c-.22,0-.41.1-.54.27-.13.18-.17.43-.16.71-.16-.1-.34-.17-.5-.17-.33,0-.73.2-.8,1.13-.04.55.09.99.4,1.33.22.24.5.39.79.48-.17.34-.18.75.03,1.1l4.34,7.33c.2.33.56.54.94.56-.23.82.16,1.19.37,1.33.15.09.3.14.45.14.2,0,.37-.08.52-.23.17.24.41.43.72.57.16.07.3.11.44.11.22,0,.41-.1.54-.27.13-.18.17-.43.16-.71.16.1.34.17.5.17.33,0,.73-.2.8-1.13.04-.55-.1-1-.41-1.33-.3-.32-.7-.47-1.08-.54,0-.03.02-.06.02-.08.08-.29.03-.6-.12-.86l-4.34-7.33c-.14-.24-.36-.41-.62-.5.31-.88-.05-1.3-.33-1.47-.15-.09-.3-.14-.45-.14-.2,0-.37.08-.52.23-.17-.24-.41-.43-.72-.57-.16-.07-.3-.11-.44-.11h0Z"/>
          </g>
          <g>
            <path class="cls-11" d="M55.33,14.39c-.06,0-.12,0-.19-.02-.79-.15-.96-1.56-.95-2.8-.11.01-.22.02-.33.02-.95,0-1.81-.48-2.31-1.28l-.43-.68c-.56-.89-.55-2.04.02-2.92-1.12-.54-2.31-1.3-2.1-2.08.09-.36.33-.56.67-.56.19,0,.4.07.57.15-.04-.15-.05-.31,0-.46.05-.18.17-.31.35-.4.1-.04.2-.07.29-.07.18,0,.33.08.45.19.03-.11.07-.21.13-.3.13-.19.32-.31.57-.35.03,0,.06,0,.09,0,.72,0,1,1.39,1.12,2.63.05,0,.1,0,.15,0,.95,0,1.81.48,2.31,1.28l.43.68c.53.84.55,1.91.07,2.77.72.44,1.78,1.17,1.92,1.78.04.16,0,.32-.08.45-.17.24-.41.37-.7.37-.07,0-.14,0-.2-.02.02.07.04.15.04.22,0,.19-.09.36-.25.5-.12.1-.26.15-.4.15-.19,0-.37-.1-.51-.22,0,.26-.05.53-.2.72-.12.15-.3.24-.51.24Z"/>
            <path class="cls-5" d="M52.16,3.02c.68,0,.89,1.99.94,2.65.11-.01.22-.02.32-.02.84,0,1.67.42,2.15,1.19l.43.68c.54.87.5,1.93-.03,2.73.59.34,2.36,1.45,1.94,2.05-.15.22-.35.29-.54.29-.38,0-.75-.29-.75-.29,0,0,.72.61.21,1.03-.09.08-.19.11-.28.11-.41,0-.76-.62-.76-.62,0,0,.31,1.37-.47,1.37-.05,0-.1,0-.16-.02-.78-.15-.81-2.07-.8-2.84-.17.04-.35.05-.52.05-.84,0-1.67-.42-2.15-1.19l-.43-.68c-.58-.92-.49-2.08.14-2.9-.7-.32-2.41-1.19-2.2-1.95.08-.31.27-.42.49-.42.44,0,1,.44,1,.44,0,0-.61-.89,0-1.16.08-.04.15-.05.22-.05.44,0,.62.69.62.69,0,0-.22-1.03.57-1.16.02,0,.04,0,.06,0M52.16,2.65h0s-.08,0-.12,0c-.3.05-.54.2-.7.43-.03.04-.05.08-.07.12-.1-.05-.22-.08-.36-.08-.12,0-.25.03-.37.08-.23.11-.39.28-.46.52-.02.07-.03.15-.03.22-.12-.03-.23-.05-.35-.05-.42,0-.73.26-.85.7-.18.7.49,1.45,2.02,2.21-.5.91-.47,2.04.09,2.94l.43.68c.54.85,1.46,1.36,2.47,1.36.05,0,.09,0,.14,0,.02,1.7.39,2.64,1.1,2.78.08.02.16.02.23.02.27,0,.5-.11.66-.31.12-.15.18-.33.22-.52.11.05.23.08.35.08.19,0,.37-.07.52-.2.26-.22.32-.47.32-.64,0,0,0,0,0-.01.34,0,.62-.16.83-.46.12-.17.16-.38.11-.6-.14-.61-1.02-1.29-1.86-1.81.42-.89.37-1.95-.16-2.8l-.43-.68c-.53-.85-1.45-1.36-2.45-1.36-.18-1.74-.61-2.63-1.29-2.63h0Z"/>
          </g>
          <g>
            <path class="cls-9" d="M24.17,16.99c-.08,0-.16-.01-.23-.04-.33-.12-.45-.33-.49-.48-.06-.26.04-.55.18-.79-.06.01-.13.02-.19.02h0c-.31,0-.53-.15-.63-.43-.07-.2-.06-.39.04-.56.04-.07.09-.12.14-.17-.35-.13-.57-.39-.59-.76-.01-.16.04-.31.16-.43.42-.46,1.71-.55,2.55-.56.02-.99.58-1.89,1.46-2.35l.71-.37c.39-.2.82-.31,1.26-.31.54,0,1.06.16,1.51.46.52-.73,1.38-1.78,2.01-1.78.13,0,.25.04.35.12.2.16.3.36.32.59,0,.11,0,.23-.04.33.06-.01.11-.02.17-.02.21,0,.4.1.53.29.11.16.15.34.1.52-.04.15-.13.28-.24.39.37.03.63.15.78.34.13.17.16.39.09.64-.14.51-.83.77-2.03.77-.3,0-.6-.02-.83-.04.04,1.04-.52,2.04-1.46,2.53l-.71.37c-.39.2-.82.31-1.26.31-.6,0-1.18-.2-1.65-.56-.47.82-1.28,1.97-2.01,1.97Z"/>
            <path class="cls-5" d="M32.05,8.61c.08,0,.16.03.23.08.62.51-.09,1.28-.09,1.28,0,0,.34-.34.67-.34.13,0,.27.06.38.21.38.54-.59,1-.59,1,0,0,.16-.02.37-.02.44,0,1.11.1.93.75-.14.51-1.04.63-1.85.63-.4,0-.78-.03-1.04-.05.13,1.02-.37,2.07-1.34,2.57l-.71.37c-.37.2-.77.29-1.17.29-.63,0-1.24-.23-1.71-.66-.35.62-1.23,2.07-1.95,2.07-.06,0-.11,0-.17-.03-.94-.33.14-1.48.14-1.48,0,0-.37.22-.71.22-.19,0-.37-.07-.45-.3-.22-.62.7-.78.7-.78,0,0-.07,0-.18,0-.3,0-.88-.08-.93-.67-.06-.73,2-.79,2.7-.79h.02c-.05-.96.45-1.9,1.36-2.37l.71-.37c.37-.2.77-.29,1.17-.29.56,0,1.11.19,1.55.53.34-.49,1.34-1.86,1.97-1.86M32.05,8.23h0c-.54,0-1.23.58-2.06,1.72-.44-.25-.95-.39-1.46-.39-.46,0-.93.11-1.34.33l-.71.37c-.89.46-1.47,1.35-1.55,2.34-.98.03-2.09.16-2.51.62-.15.16-.22.36-.21.57.03.36.2.63.48.81,0,0,0,0,0,.01-.09.15-.17.4-.05.72.11.32.36.51.7.55-.08.2-.11.43-.06.64.05.2.2.47.61.61.09.03.19.05.29.05.62,0,1.31-.64,2.07-1.89.47.31,1.02.47,1.59.47.46,0,.93-.11,1.34-.33l.71-.37c.94-.49,1.53-1.46,1.56-2.49.19.01.41.02.64.02,1.32,0,2.05-.3,2.22-.9.11-.39,0-.66-.12-.81-.13-.17-.33-.29-.59-.36.04-.06.06-.13.08-.21.06-.23.02-.47-.13-.68-.16-.22-.38-.35-.63-.37,0-.04,0-.09,0-.14-.02-.28-.15-.53-.39-.72-.13-.11-.3-.17-.47-.17h0Z"/>
          </g>
          <g id="SVGID">
            <ellipse class="cls-1" cx="35.52" cy="9.47" rx="21.35" ry="5.04"/>
          </g>
          <g>
            <path class="cls-7" d="M39.07,18.32c-.26,0-.39-.12-.45-.23-.13-.21-.1-.55-.02-.86-.28.23-.6.43-.87.43-.17,0-.46-.08-.51-.6-.04-.4.06-.75.27-1.04h0c-.23,0-.41-.06-.52-.18-.11-.11-.15-.26-.14-.45.02-.29.2-.77,1.18-.86-.12-.27-.1-.58.05-.84l4.27-7.37c.17-.29.48-.47.82-.47.02,0,.04,0,.06,0-.17-.37-.29-.84-.16-1.29.12-.4.41-.71.88-.93.27-.13.49-.19.67-.19.26,0,.39.12.45.23.13.21.1.55.02.86.28-.23.6-.43.87-.43.17,0,.46.08.51.6.04.4-.06.75-.27,1.04h0c.23,0,.41.06.52.18.11.11.15.27.14.45-.03.48-.42.77-1.12.85.11.11.2.26.24.42.07.24.03.5-.09.72l-4.27,7.37c-.17.29-.48.47-.82.47h0c-.07,0-.15,0-.22-.03.11.33.17.71.05,1.07-.12.38-.41.68-.86.89-.27.13-.49.19-.67.19Z"/>
            <path class="cls-5" d="M44.56,3.62c.8,0,.01,1.62.01,1.62,0,0,.85-.96,1.34-.96.17,0,.3.12.33.43.07.77-.4,1.16-.76,1.35.21-.07.47-.13.69-.13.28,0,.5.1.48.44-.03.61-.85.7-1.37.7-.06,0-.11,0-.16,0l.3.18c.36.21.48.67.28,1.03l-4.27,7.37c-.14.24-.39.38-.65.38-.13,0-.26-.03-.38-.1l-.22-.13c.32.58.66,1.63-.52,2.18-.25.12-.44.17-.59.17-.8,0-.01-1.62-.01-1.62,0,0-.85.96-1.34.96-.17,0-.3-.12-.33-.43-.07-.77.4-1.16.76-1.35-.21.07-.47.13-.69.13-.28,0-.5-.1-.48-.44.03-.59.82-.7,1.34-.7-.24-.24-.31-.61-.13-.92l4.27-7.37c.14-.24.39-.38.65-.38.13,0,.26.03.38.1l.08.05c-.32-.5-.94-1.76.4-2.39.25-.12.44-.17.59-.17M44.56,3.24h0c-.21,0-.45.07-.75.21-.52.24-.85.59-.98,1.05-.12.4-.05.82.07,1.17-.32.06-.61.26-.77.55l-4.27,7.37c-.14.24-.18.52-.13.78-.92.16-1.11.68-1.12,1.01-.02.3.1.49.19.59.09.1.21.17.35.21-.13.27-.18.57-.14.91.07.72.55.77.7.77.2,0,.41-.09.61-.21,0,.2.02.4.12.55.13.21.35.32.61.32.21,0,.45-.07.75-.21.5-.23.82-.57.96-1,.1-.31.09-.63.03-.92.39-.01.75-.23.94-.56l4.27-7.37c.2-.35.2-.76.02-1.09.79-.19.96-.67.98-.98.02-.3-.1-.49-.19-.59-.09-.1-.21-.17-.35-.21.13-.27.18-.57.14-.91-.07-.72-.55-.77-.7-.77h0c-.2,0-.41.09-.61.21,0-.2-.02-.4-.12-.55-.13-.21-.35-.32-.61-.32h0Z"/>
          </g>
          <g>
            <path class="cls-7" d="M22.68,16.4c-.14,0-.29-.06-.46-.19-.32-.25-.51-.56-.57-.91-.16.17-.33.26-.5.26-.15,0-.3-.07-.43-.21-.2-.21-.42-.67.18-1.45-.27-.1-.49-.32-.58-.62l-2.44-8.16c-.11-.36,0-.73.26-.96-.38-.13-.81-.36-1.05-.77-.21-.36-.24-.79-.07-1.27.06-.2.26-.79.7-.79.29,0,.54.28.74.58.02-.36.1-.73.28-.93.09-.1.21-.16.34-.16.14,0,.29.06.46.19.32.25.51.56.57.91.16-.17.33-.26.5-.26.15,0,.3.07.43.21.33.34.27.84-.14,1.4h.02c.41,0,.78.28.9.67l2.44,8.16c.07.24.05.5-.07.72-.08.14-.18.26-.31.34.32.15.63.37.81.7.19.35.21.76.05,1.23-.06.2-.26.79-.7.79h0c-.29,0-.54-.28-.74-.58-.02.36-.1.73-.28.93-.09.1-.21.16-.34.16Z"/>
            <path class="cls-5" d="M19.09,1.02c.09,0,.2.05.34.15.61.48.57,1.09.46,1.48.16-.34.43-.79.73-.79.09,0,.19.04.29.15.46.49-.2,1.25-.54,1.59l.34-.1c.07-.02.14-.03.22-.03.32,0,.62.21.72.54l2.44,8.16c.12.4-.11.82-.51.94l-.24.07c.64.17,1.64.64,1.23,1.87-.16.49-.34.66-.52.66-.48,0-.94-1.22-.94-1.22,0,0,.15,1.72-.42,1.72-.09,0-.2-.05-.34-.15-.61-.48-.57-1.09-.46-1.48-.16.34-.43.79-.73.79-.09,0-.19-.04-.29-.15-.41-.43.06-1.08.41-1.45-.01,0-.02,0-.04,0-.32,0-.62-.21-.72-.54l-2.44-8.16c-.12-.4.11-.82.51-.94l.09-.03c-.58-.11-1.92-.52-1.46-1.92.16-.49.34-.66.52-.66.48,0,.94,1.22.94,1.22,0,0-.15-1.72.42-1.72M19.09.64h0c-.18,0-.35.08-.48.22-.13.14-.21.35-.26.58-.18-.18-.38-.3-.61-.3-.58,0-.81.7-.88.92-.18.54-.15,1.02.09,1.43.21.36.56.6.9.75-.02.02-.03.05-.04.08-.14.27-.18.57-.09.86l2.44,8.16c.08.27.25.49.48.63-.52.78-.26,1.27-.04,1.51.21.22.42.27.57.27s.27-.04.39-.12c.11.27.3.52.56.73.2.15.39.23.57.23s.35-.08.48-.22c.13-.14.21-.35.26-.58.18.18.38.3.61.3.58,0,.81-.7.88-.92.17-.52.15-.99-.07-1.38-.16-.29-.39-.5-.65-.65.06-.06.11-.14.15-.21.14-.27.18-.57.09-.86l-2.44-8.16c-.11-.38-.41-.66-.78-.77.42-.74.14-1.19-.04-1.38-.21-.22-.42-.27-.57-.27s-.27.04-.39.12c-.11-.27-.3-.52-.56-.73-.2-.15-.39-.23-.57-.23h0Z"/>
          </g>
          <g>
            <path class="cls-11" d="M20.43,15.43c-.2,0-.82,0-.97-.41-.1-.28.09-.61.32-.9-.21.05-.43.09-.62.09-.26,0-.44-.07-.55-.22-.11-.15-.11-.36-.02-.61.14-.38.37-.66.68-.83-.18-.08-.3-.19-.37-.32-.06-.11-.1-.3.03-.55.1-.19.32-.41.76-.41.2,0,.43.04.68.13,0-.29.15-.57.4-.74l6.99-4.87c.16-.11.35-.17.54-.17.16,0,.32.04.46.12,0-.41.09-.89.4-1.24.27-.31.67-.47,1.19-.47.21,0,.83,0,.97.41.1.28-.09.61-.32.9.21-.05.43-.09.62-.09.26,0,.44.07.55.22.11.15.11.36.02.61-.14.38-.37.66-.68.83.18.08.3.19.37.32.06.11.1.3-.03.55-.1.19-.32.41-.76.41-.2,0-.41-.05-.62-.11.05.15.07.32.04.48-.04.25-.18.46-.39.61l-6.99,4.87c-.16.11-.35.17-.54.17h0c-.22,0-.42-.07-.59-.21-.04.35-.15.72-.41.99-.27.29-.66.44-1.16.44h0Z"/>
            <path class="cls-5" d="M30.35,4.23c1.86,0-.07,1.56-.07,1.56,0,0,.81-.35,1.34-.35.33,0,.55.14.39.58-.26.73-.86.88-1.26.9.49.06,1.21.24.93.77-.13.23-.35.31-.59.31-.38,0-.83-.2-1.09-.33l.2.29c.24.34.15.81-.19,1.05l-6.99,4.87c-.13.09-.28.14-.43.14-.24,0-.47-.11-.62-.32l-.15-.21c.04.66-.09,1.76-1.39,1.76h0c-1.86,0,.07-1.56.07-1.56,0,0-.81.35-1.34.35-.33,0-.55-.14-.39-.58.26-.73.86-.88,1.26-.9-.49-.06-1.21-.24-.93-.77.13-.23.35-.31.59-.31.31,0,.66.13.92.25-.12-.32-.02-.69.27-.89l6.99-4.87c.13-.09.28-.14.43-.14.24,0,.47.11.62.32l.06.08c-.08-.59-.11-1.99,1.37-1.99h0M30.35,3.85h0c-.57,0-1.02.18-1.33.53-.28.32-.39.72-.43,1.09-.09-.02-.19-.04-.29-.04-.23,0-.46.07-.65.2l-6.99,4.87c-.23.16-.39.39-.45.65-.19-.05-.36-.08-.52-.08-.42,0-.74.18-.92.51-.17.32-.11.57-.03.72.05.09.11.17.19.24-.23.19-.4.44-.52.76-.11.32-.1.58.04.78.14.2.38.3.7.3.07,0,.14,0,.21-.01-.12.23-.17.47-.09.69.19.54.91.54,1.15.54.55,0,.99-.17,1.3-.5.22-.24.35-.53.42-.82.14.06.29.09.45.09.23,0,.46-.07.65-.2l6.99-4.87c.33-.23.5-.61.48-.98.13.03.25.04.38.04.42,0,.75-.18.92-.51.17-.32.11-.57.03-.72-.05-.09-.11-.17-.19-.24.23-.19.4-.44.52-.76.11-.32.1-.58-.04-.78-.14-.2-.38-.3-.7-.3-.07,0-.14,0-.21.01.12-.23.17-.47.09-.69-.19-.54-.91-.54-1.15-.54h0Z"/>
          </g>
          <g>
            <path class="cls-9" d="M41.21,15.86c-.08,0-.16-.01-.23-.04-.33-.12-.45-.33-.49-.48-.06-.26.04-.55.18-.79-.06.01-.13.02-.19.02-.31,0-.53-.15-.63-.43-.07-.2-.06-.39.04-.56.04-.07.09-.12.14-.17-.35-.12-.57-.39-.59-.76-.01-.16.04-.31.16-.43.42-.46,1.71-.55,2.55-.56.02-.99.58-1.89,1.46-2.35l.71-.37c.39-.2.82-.31,1.26-.31.54,0,1.06.16,1.51.46.52-.73,1.38-1.78,2.01-1.78.13,0,.25.04.35.12.2.16.3.36.32.59,0,.11,0,.23-.04.33.06-.01.11-.02.17-.02.21,0,.4.1.53.29.11.16.15.34.1.52-.04.15-.13.28-.24.39.37.03.63.15.78.34.13.17.16.39.09.64-.14.51-.83.77-2.03.77-.3,0-.6-.02-.83-.04.04,1.04-.52,2.04-1.46,2.53l-.71.37c-.39.2-.82.31-1.26.31-.6,0-1.18-.2-1.65-.56-.47.82-1.28,1.97-2.01,1.97Z"/>
            <path class="cls-5" d="M49.09,7.49c.08,0,.16.03.23.08.62.51-.09,1.28-.09,1.28,0,0,.34-.34.67-.34.13,0,.27.06.38.21.38.54-.59,1-.59,1,0,0,.16-.02.37-.02.44,0,1.11.1.93.75-.14.51-1.04.63-1.85.63-.4,0-.78-.03-1.04-.05.13,1.02-.37,2.07-1.34,2.57l-.71.37c-.37.2-.77.29-1.17.29-.63,0-1.24-.23-1.71-.66-.35.62-1.23,2.07-1.95,2.07-.06,0-.11,0-.17-.03-.94-.33.14-1.48.14-1.48,0,0-.37.22-.71.22-.19,0-.37-.07-.45-.3-.22-.62.7-.78.7-.78,0,0-.07,0-.18,0-.3,0-.88-.08-.93-.67-.06-.73,2-.79,2.7-.79h.02c-.05-.96.45-1.9,1.36-2.37l.71-.37c.37-.2.77-.29,1.17-.29.56,0,1.11.19,1.55.53.34-.49,1.34-1.86,1.97-1.86M49.09,7.11h0c-.54,0-1.23.58-2.06,1.72-.44-.25-.95-.39-1.46-.39-.46,0-.93.11-1.34.33l-.71.37c-.89.46-1.47,1.35-1.55,2.34-.98.03-2.09.16-2.51.62-.15.16-.22.36-.21.57.03.36.2.63.48.81,0,0,0,0,0,.01-.09.15-.17.4-.05.72.11.32.36.51.7.55-.08.2-.11.43-.06.64.05.2.2.47.61.61.09.03.19.05.29.05.62,0,1.31-.64,2.07-1.89.47.31,1.02.47,1.59.47.46,0,.93-.11,1.34-.33l.71-.37c.94-.49,1.53-1.46,1.56-2.49.19.01.41.02.64.02,1.32,0,2.05-.3,2.22-.9.11-.39,0-.66-.12-.81-.13-.17-.33-.29-.59-.36.04-.06.06-.13.08-.21.06-.23.02-.47-.13-.68-.16-.22-.38-.35-.63-.37,0-.04,0-.09,0-.14-.02-.28-.15-.53-.39-.72-.13-.11-.3-.17-.47-.17h0Z"/>
          </g>
          <g>
            <path class="cls-11" d="M47.66,15.32c-.39,0-.64-.12-.74-.35-.11-.26.04-.61.24-.91-.25.09-.51.17-.73.17s-.36-.06-.46-.19c-.11-.14-.13-.34-.07-.59.1-.39.3-.69.6-.9-.19-.06-.32-.16-.4-.28-.07-.11-.13-.29-.02-.55.09-.23.32-.5.86-.5.16,0,.34.02.54.07-.02-.29.09-.58.32-.78l6.45-5.57c.17-.15.39-.23.62-.23.13,0,.25.03.37.08-.04-.4,0-.89.27-1.27.24-.34.62-.54,1.13-.59.1-.01.2-.02.28-.02.39,0,.64.12.74.35.11.26-.04.61-.24.91.25-.09.51-.17.73-.17s.36.06.46.19c.11.14.13.34.07.59-.1.39-.3.69-.6.9.19.06.32.16.4.28.07.11.13.29.02.55-.09.23-.32.5-.86.5-.16,0-.32-.02-.47-.06.07.15.1.31.09.47-.02.25-.13.48-.32.64l-6.45,5.57c-.17.15-.39.23-.62.23h0c-.18,0-.36-.05-.51-.15,0,.35-.08.73-.31,1.03-.24.32-.61.5-1.1.55-.1.01-.2.02-.28.02Z"/>
            <path class="cls-5" d="M56.92,3.12c1.41,0-.17,1.58-.17,1.58,0,0,.88-.49,1.4-.49.27,0,.44.13.34.54-.18.75-.76.97-1.16,1.02.49,0,1.23.11,1,.67-.12.29-.39.38-.69.38-.35,0-.74-.13-.98-.22l.23.27c.27.32.24.79-.08,1.06l-6.45,5.57c-.14.12-.32.18-.49.18-.21,0-.42-.09-.57-.26l-.17-.19c.11.65.09,1.76-1.2,1.89-.1.01-.18.02-.26.02-1.41,0,.17-1.58.17-1.58,0,0-.88.49-1.4.49-.27,0-.44-.13-.34-.54.18-.75.76-.97,1.16-1.02-.49,0-1.23-.11-1-.67.12-.29.39-.38.69-.38.27,0,.57.08.81.16-.15-.3-.09-.68.18-.91l6.45-5.57c.14-.12.32-.18.49-.18.21,0,.42.09.57.26l.06.07c-.14-.58-.31-1.97,1.16-2.12.1-.01.18-.02.26-.02M56.92,2.74h0c-.09,0-.19,0-.3.02-.57.06-.99.28-1.27.67-.24.34-.32.75-.32,1.13-.06,0-.11-.01-.17-.01-.27,0-.53.1-.74.28l-6.45,5.57c-.21.18-.34.43-.38.69-.13-.02-.25-.03-.36-.03-.68,0-.94.38-1.04.61-.14.33-.05.58.04.72.05.08.13.15.21.22-.21.21-.35.48-.43.81-.08.31-.04.56.1.75.09.12.27.26.61.26.11,0,.23-.02.35-.04-.09.23-.12.46-.03.67.09.21.32.46.91.46.09,0,.19,0,.3-.02.55-.06.96-.27,1.23-.63.2-.26.29-.56.33-.86.11.03.22.05.34.05.27,0,.53-.1.74-.28l6.45-5.57c.3-.26.43-.66.38-1.03.07,0,.14.01.21.01.68,0,.94-.38,1.04-.61.14-.33.05-.58-.04-.72-.05-.08-.13-.15-.21-.22.21-.21.35-.48.43-.81.08-.31.04-.56-.1-.75-.09-.12-.27-.26-.61-.26-.11,0-.23.02-.35.04.09-.23.12-.46.03-.67-.09-.21-.32-.46-.91-.46h0Z"/>
          </g>
        </g>
        <g>
          <g>
            <path class="cls-7" d="M31.29,10.04c-.06,0-.12,0-.17-.02-.34-.09-.48-.29-.53-.44-.08-.25,0-.55.11-.8-.08.02-.17.03-.26.03h0c-.27,0-.48-.13-.59-.38-.09-.19-.09-.39,0-.56.03-.07.08-.13.13-.18-.36-.1-.59-.34-.65-.71-.02-.16.02-.31.12-.44.39-.49,1.66-.69,2.5-.76-.05-.98.43-1.93,1.27-2.46l.68-.43c.43-.27.93-.42,1.44-.42.47,0,.92.12,1.33.34.55-.92,1.3-1.93,1.91-1.93.11,0,.22.03.31.1.21.14.33.33.36.56.02.11,0,.23-.01.33.07-.02.14-.04.22-.04.19,0,.36.09.5.25.13.15.18.33.14.51-.03.15-.11.29-.21.41.39,0,.66.1.82.3.13.16.17.37.12.62-.16.79-1.6.95-2.78.95h-.02c.12,1.04-.36,2.08-1.26,2.64l-.68.43c-.43.27-.93.42-1.44.42s-1.04-.15-1.48-.43c-.49,1.01-1.18,2.13-1.9,2.13Z"/>
            <path class="cls-5" d="M38.58,1.07c.07,0,.14.02.2.06.66.46,0,1.29,0,1.29,0,0,.33-.39.68-.39.12,0,.25.05.36.18.42.51-.51,1.04-.51,1.04,0,0,.27-.06.56-.06.42,0,.9.12.79.69-.14.7-1.72.8-2.59.8-.09,0-.17,0-.25,0,.21,1.01-.21,2.09-1.13,2.67l-.68.43c-.42.26-.88.39-1.34.39-.56,0-1.11-.18-1.55-.53-.3.66-1.09,2.22-1.83,2.22-.04,0-.08,0-.13-.02-.96-.25.02-1.49.02-1.49,0,0-.4.27-.74.27-.17,0-.33-.07-.42-.27-.27-.6.64-.84.64-.84,0,0-.14.03-.31.03-.31,0-.76-.09-.84-.6-.12-.73,1.97-.95,2.64-1-.12-.95.3-1.93,1.17-2.47l.68-.43c.42-.26.88-.39,1.34-.39.49,0,.98.14,1.39.41.31-.53,1.23-2.01,1.85-2.01M38.58.69c-.55,0-1.22.63-1.98,1.88-.39-.19-.82-.28-1.26-.28-.54,0-1.08.15-1.54.44l-.68.43c-.85.53-1.36,1.46-1.36,2.45-.97.1-2.07.32-2.46.82-.14.17-.19.38-.16.59.06.35.25.62.55.77,0,0,0,0,0,.01-.08.16-.13.41,0,.72.14.3.41.48.74.49-.06.21-.08.43,0,.64.07.2.23.45.66.56.07.02.15.03.22.03.64,0,1.3-.69,1.98-2.05.43.23.91.36,1.4.36.54,0,1.08-.15,1.54-.44l.68-.43c.9-.56,1.41-1.57,1.36-2.61,1.7-.02,2.64-.4,2.78-1.1.08-.38-.05-.63-.16-.77-.14-.17-.36-.29-.64-.34.03-.07.05-.14.07-.21.04-.24-.02-.47-.19-.66-.22-.26-.47-.32-.65-.32,0,0,0,0-.01,0,0-.04,0-.09-.01-.14-.04-.28-.2-.52-.44-.69-.12-.09-.27-.13-.42-.13h0Z"/>
          </g>
          <g>
            <path class="cls-9" d="M35.88,11.13c-.08,0-.16-.01-.23-.04-.33-.12-.45-.33-.49-.48-.06-.26.04-.55.18-.79-.06.01-.13.02-.19.02h0c-.31,0-.53-.15-.63-.43-.07-.2-.06-.39.04-.56.04-.07.09-.12.14-.17-.35-.13-.57-.39-.59-.76-.01-.16.04-.31.16-.43.42-.46,1.71-.55,2.55-.56.02-.99.58-1.89,1.46-2.35l.71-.37c.39-.2.82-.31,1.26-.31.54,0,1.06.16,1.51.46.52-.73,1.38-1.78,2.01-1.78.13,0,.25.04.35.12.2.16.3.36.32.59,0,.11,0,.23-.04.33.06-.01.11-.02.17-.02.21,0,.4.1.53.29.11.16.15.34.1.52-.04.15-.13.28-.24.39.37.03.63.15.78.34.13.17.16.39.09.64-.14.51-.83.77-2.03.77-.3,0-.6-.02-.83-.04.04,1.04-.52,2.04-1.46,2.53l-.71.37c-.39.2-.82.31-1.26.31-.6,0-1.18-.2-1.65-.56-.47.82-1.28,1.97-2.01,1.97Z"/>
            <path class="cls-5" d="M43.77,2.75c.08,0,.16.03.23.08.62.51-.09,1.28-.09,1.28,0,0,.34-.34.67-.34.13,0,.27.06.38.21.38.54-.59,1-.59,1,0,0,.16-.02.37-.02.44,0,1.11.1.93.75-.14.51-1.04.63-1.85.63-.4,0-.78-.03-1.04-.05.13,1.02-.37,2.07-1.34,2.57l-.71.37c-.37.2-.77.29-1.17.29-.63,0-1.24-.23-1.71-.66-.35.62-1.23,2.07-1.95,2.07-.06,0-.11,0-.17-.03-.94-.33.14-1.48.14-1.48,0,0-.37.22-.71.22-.19,0-.37-.07-.45-.3-.22-.62.7-.78.7-.78,0,0-.07,0-.18,0-.3,0-.88-.08-.93-.67-.06-.73,2-.79,2.7-.79h.02c-.05-.96.45-1.9,1.36-2.37l.71-.37c.37-.2.77-.29,1.17-.29.56,0,1.11.19,1.55.53.34-.49,1.34-1.86,1.97-1.86M43.77,2.38h0c-.54,0-1.23.58-2.06,1.72-.44-.25-.95-.39-1.46-.39-.46,0-.93.11-1.34.33l-.71.37c-.89.46-1.47,1.35-1.55,2.34-.98.03-2.09.16-2.51.62-.15.16-.22.36-.21.57.03.36.2.63.48.81,0,0,0,0,0,.01-.09.15-.17.4-.05.72.11.32.36.51.7.55-.08.2-.11.43-.06.64.05.2.2.47.61.61.09.03.19.05.29.05.62,0,1.31-.64,2.07-1.89.47.31,1.02.47,1.59.47.46,0,.93-.11,1.34-.33l.71-.37c.94-.49,1.53-1.46,1.56-2.49.19.01.41.02.64.02,1.32,0,2.05-.3,2.22-.9.11-.39,0-.66-.12-.81-.13-.17-.33-.29-.59-.36.04-.06.06-.13.08-.21.06-.23.02-.47-.13-.68-.16-.22-.38-.35-.63-.37,0-.04,0-.09,0-.14-.02-.28-.15-.53-.39-.72-.13-.11-.3-.17-.47-.17h0Z"/>
          </g>
          <g>
            <path class="cls-11" d="M33.37,11.88c-.68,0-1.11-1.31-1.36-2.48-.16.03-.32.04-.48.04-.83,0-1.6-.37-2.12-1.01l-.51-.63c-.62-.77-.77-1.83-.4-2.74-.77-.35-1.91-.94-2.12-1.53-.06-.16-.05-.32.03-.46.16-.3.43-.46.77-.46.03,0,.05,0,.08,0-.03-.07-.05-.14-.06-.22-.02-.19.04-.37.19-.53.13-.13.28-.21.45-.21s.32.07.46.16c-.03-.27-.01-.57.14-.78.09-.12.26-.27.57-.27.03,0,.05,0,.08,0,.8.06,1.14,1.43,1.28,2.66.21-.05.43-.08.65-.08.83,0,1.6.37,2.12,1.01l.51.63c.66.82.79,1.96.33,2.9,1.17.4,2.45,1.02,2.34,1.81-.06.41-.31.64-.71.64-.16,0-.32-.04-.48-.09.06.14.09.3.06.45-.03.18-.13.33-.3.44-.12.07-.24.11-.36.11h0c-.15,0-.28-.06-.4-.14-.01.11-.04.22-.1.32-.11.21-.28.35-.53.41-.05.01-.1.02-.15.02Z"/>
            <path class="cls-5" d="M29.02.97s.04,0,.07,0c.79.06,1.06,1.96,1.13,2.72.26-.09.54-.13.81-.13.74,0,1.47.32,1.97.94l.51.63c.69.85.73,2,.21,2.89.73.23,2.53.89,2.42,1.68-.05.37-.27.48-.52.48-.43,0-.96-.33-.96-.33,0,0,.71.81.14,1.15-.09.06-.18.08-.26.08-.41,0-.65-.62-.65-.62,0,0,.35,1-.42,1.22-.03,0-.07.01-.1.01-.65,0-1.09-1.88-1.21-2.52-.21.05-.42.08-.62.08-.74,0-1.47-.32-1.97-.94l-.51-.63c-.64-.79-.72-1.86-.3-2.72-.62-.27-2.52-1.15-2.17-1.8.15-.28.38-.36.6-.36.35,0,.68.2.68.2,0,0-.79-.52-.33-1,.1-.11.21-.15.32-.15.39,0,.78.53.78.53,0,0-.5-1.42.39-1.42M29.02.59c-.4,0-.61.19-.73.35-.12.17-.17.37-.18.58-.09-.03-.17-.04-.27-.04-.22,0-.43.09-.59.27-.23.25-.26.5-.24.68,0,0,0,0,0,.01-.33.05-.6.24-.77.55-.1.19-.11.4-.04.61.21.59,1.17,1.16,2.06,1.57-.31.94-.13,1.98.49,2.76l.51.63c.55.69,1.38,1.08,2.26,1.08.11,0,.22,0,.33-.02.55,2.46,1.27,2.46,1.51,2.46.07,0,.14,0,.2-.03.29-.08.51-.26.64-.51.02-.04.04-.08.05-.12.08.03.17.05.27.05.15,0,.31-.05.45-.13.22-.13.35-.33.39-.57.01-.07.01-.15,0-.22.07.01.15.02.22.02.49,0,.83-.3.9-.81.1-.72-.66-1.38-2.27-1.95.38-.97.23-2.09-.44-2.91l-.51-.63c-.55-.69-1.38-1.08-2.26-1.08-.16,0-.33.01-.49.04-.22-1.69-.7-2.57-1.43-2.63-.03,0-.07,0-.1,0h0Z"/>
          </g>
          <g>
            <path class="cls-7" d="M19.1,12.48c-.65,0-.92-1.22-1.03-2.33-.05,0-.09,0-.14,0-.84,0-1.61-.42-2.06-1.12l-.39-.6c-.48-.74-.51-1.69-.1-2.46-.65-.38-1.59-1.02-1.71-1.57-.03-.15,0-.3.07-.42.16-.23.38-.35.64-.35.05,0,.09,0,.14.01-.02-.05-.02-.11-.02-.17,0-.18.08-.34.23-.46.11-.1.24-.15.37-.15.16,0,.31.07.43.17,0-.22.05-.45.18-.62.11-.14.28-.22.48-.22.05,0,.11,0,.17.02.71.13.88,1.37.89,2.48.1-.01.19-.02.29-.02.84,0,1.61.42,2.06,1.12l.39.6c.51.79.51,1.81.02,2.6,1,.47,2.05,1.14,1.88,1.84-.08.33-.3.52-.62.52-.16,0-.32-.05-.47-.11.03.12.03.25,0,.37-.04.16-.16.29-.32.37-.09.04-.18.06-.27.06h0c-.15,0-.28-.06-.38-.15-.02.09-.06.17-.11.25-.12.17-.3.29-.52.32-.03,0-.06,0-.09,0Z"/>
            <path class="cls-5" d="M16.2,2.39s.09,0,.13.01c.69.13.74,1.83.73,2.51.16-.03.32-.05.48-.05.74,0,1.47.37,1.9,1.04l.39.6c.52.82.45,1.84-.1,2.57.62.28,2.15,1.04,1.97,1.72-.07.28-.24.38-.43.38-.39,0-.89-.39-.89-.39,0,0,.55.79.01,1.03-.07.03-.14.05-.2.05-.39,0-.55-.61-.55-.61,0,0,.21.91-.49,1.03-.02,0-.04,0-.05,0-.6,0-.81-1.76-.86-2.34-.1.01-.21.02-.31.02-.74,0-1.47-.37-1.9-1.04l-.39-.6c-.49-.77-.46-1.71,0-2.43-.52-.3-2.11-1.27-1.74-1.81.14-.2.31-.27.48-.27.34,0,.66.25.66.25,0,0-.65-.53-.2-.92.08-.07.17-.1.25-.1.36,0,.68.55.68.55,0,0-.28-1.22.41-1.22M16.2,2.01c-.26,0-.47.1-.62.29-.1.12-.16.28-.19.43-.09-.03-.18-.05-.28-.05-.18,0-.35.07-.5.19-.23.2-.29.42-.29.58-.29.02-.55.17-.72.43-.11.17-.15.36-.1.57.13.55.91,1.14,1.65,1.6-.36.8-.3,1.74.18,2.49l.39.6c.48.75,1.29,1.2,2.19,1.21.27,2.32.96,2.32,1.2,2.32.04,0,.08,0,.12,0,.28-.05.5-.19.65-.4.02-.02.03-.05.04-.07.09.04.18.06.29.06.12,0,.24-.03.35-.08.22-.1.37-.27.42-.49.01-.05.02-.1.03-.15.09.02.18.03.27.03.4,0,.7-.25.8-.66.16-.64-.44-1.31-1.8-1.97.42-.82.38-1.82-.12-2.62l-.39-.6c-.49-.76-1.31-1.21-2.22-1.21-.04,0-.07,0-.11,0-.04-1.51-.38-2.34-1.04-2.46-.07-.01-.14-.02-.2-.02h0Z"/>
          </g>
          <g>
            <path class="cls-7" d="M32.44,17.58c-.06,0-.12,0-.17-.02-.34-.09-.48-.29-.53-.44-.08-.25,0-.55.11-.8-.08.02-.17.03-.26.03h0c-.27,0-.48-.13-.59-.38-.09-.19-.09-.39,0-.56.03-.07.08-.13.13-.18-.36-.1-.59-.34-.65-.71-.02-.16.02-.31.12-.44.39-.49,1.66-.69,2.5-.76-.05-.98.43-1.93,1.27-2.46l.68-.43c.43-.27.93-.42,1.44-.42.47,0,.92.12,1.33.34.55-.92,1.3-1.93,1.91-1.93.11,0,.22.03.31.1.21.14.33.33.37.56.02.11,0,.23-.01.33.07-.02.14-.04.22-.04.19,0,.36.09.5.25.13.15.18.33.14.51-.03.15-.11.29-.21.41.39,0,.66.1.82.3.13.16.17.37.12.62-.15.79-1.6.95-2.78.95h-.02c.13,1.04-.36,2.08-1.26,2.64l-.68.43c-.43.27-.93.42-1.44.42s-1.04-.15-1.48-.43c-.49,1.01-1.18,2.13-1.9,2.13Z"/>
            <path class="cls-5" d="M39.74,8.61c.07,0,.14.02.2.06.66.46,0,1.29,0,1.29,0,0,.33-.39.68-.39.12,0,.25.05.36.18.42.51-.51,1.04-.51,1.04,0,0,.27-.06.56-.06.42,0,.9.12.79.69-.14.7-1.72.8-2.59.8-.09,0-.17,0-.25,0,.21,1.01-.21,2.09-1.13,2.67l-.68.43c-.42.26-.88.39-1.34.39-.56,0-1.11-.18-1.55-.53-.3.66-1.09,2.22-1.83,2.22-.04,0-.08,0-.13-.02-.96-.25.02-1.49.02-1.49,0,0-.4.27-.74.27-.17,0-.33-.07-.42-.27-.27-.6.64-.84.64-.84,0,0-.14.03-.31.03-.31,0-.76-.09-.84-.6-.12-.73,1.97-.95,2.64-1-.12-.95.3-1.93,1.17-2.47l.68-.43c.42-.26.88-.39,1.34-.39.49,0,.98.14,1.39.41.31-.53,1.23-2.01,1.85-2.01M39.74,8.23c-.55,0-1.22.63-1.98,1.88-.39-.19-.82-.28-1.26-.28-.54,0-1.08.15-1.54.44l-.68.43c-.85.53-1.36,1.46-1.36,2.45-.97.1-2.07.32-2.46.82-.14.17-.19.38-.16.59.06.35.25.62.55.77,0,0,0,0,0,.01-.08.16-.13.41,0,.72.14.3.41.48.74.49-.06.21-.08.43,0,.64.07.2.23.45.66.56.07.02.15.03.22.03.64,0,1.3-.69,1.98-2.05.43.23.91.36,1.4.36.54,0,1.08-.15,1.54-.44l.68-.43c.9-.56,1.41-1.57,1.36-2.61,1.7-.02,2.64-.4,2.78-1.1.08-.38-.05-.63-.16-.77-.14-.17-.36-.29-.64-.34.03-.07.05-.14.07-.21.04-.24-.02-.47-.19-.66-.22-.26-.47-.32-.65-.32,0,0,0,0-.01,0,0-.04,0-.09-.01-.14-.04-.28-.2-.52-.44-.69-.12-.09-.27-.13-.42-.13h0Z"/>
          </g>
          <g>
            <path class="cls-7" d="M21.27,10.75c-.06,0-.12,0-.17-.02-.34-.09-.48-.29-.53-.44-.08-.25,0-.55.11-.8-.08.02-.17.03-.26.03h0c-.27,0-.48-.13-.59-.38-.09-.19-.09-.39,0-.56.03-.07.08-.13.13-.18-.36-.1-.59-.34-.65-.71-.02-.16.02-.31.12-.44.39-.49,1.66-.69,2.5-.76-.05-.98.43-1.93,1.27-2.46l.68-.43c.43-.27.93-.42,1.44-.42.47,0,.92.12,1.33.34.55-.92,1.3-1.93,1.91-1.93.11,0,.22.03.31.1.21.14.33.33.37.56.02.11,0,.23-.01.33.07-.02.14-.04.22-.04.19,0,.36.09.5.25.13.15.18.33.14.51-.03.15-.11.29-.21.41.39,0,.66.1.82.3.13.16.17.37.12.62-.15.79-1.59.95-2.77.95h-.03c.13,1.04-.36,2.08-1.26,2.64l-.68.43c-.43.27-.93.42-1.44.42s-1.04-.15-1.48-.43c-.49,1.01-1.18,2.13-1.9,2.13Z"/>
            <path class="cls-5" d="M28.56,1.78c.07,0,.14.02.2.06.66.46,0,1.29,0,1.29,0,0,.33-.39.68-.39.12,0,.25.05.36.18.42.51-.51,1.04-.51,1.04,0,0,.27-.06.56-.06.42,0,.9.12.79.69-.14.7-1.72.8-2.59.8-.09,0-.17,0-.25,0,.21,1.01-.21,2.09-1.13,2.67l-.68.43c-.42.26-.88.39-1.34.39-.56,0-1.11-.18-1.55-.53-.3.66-1.09,2.22-1.83,2.22-.04,0-.08,0-.13-.02-.96-.25.02-1.49.02-1.49,0,0-.4.27-.74.27-.17,0-.33-.07-.42-.27-.27-.6.64-.84.64-.84,0,0-.14.03-.31.03-.31,0-.76-.09-.84-.6-.12-.73,1.97-.95,2.64-1-.12-.95.3-1.93,1.17-2.47l.68-.43c.42-.26.88-.39,1.34-.39.49,0,.98.14,1.39.41.31-.53,1.22-2.01,1.85-2.01M28.56,1.4h0c-.55,0-1.22.63-1.98,1.88-.39-.19-.82-.28-1.26-.28-.54,0-1.08.15-1.54.44l-.68.43c-.85.53-1.36,1.46-1.36,2.45-.97.1-2.07.32-2.46.82-.14.17-.19.38-.16.59.06.35.25.62.55.77,0,0,0,0,0,.01-.08.16-.14.41,0,.72.14.3.41.48.74.49-.06.21-.08.43,0,.64.07.2.23.45.66.56.07.02.15.03.22.03.64,0,1.3-.69,1.98-2.05.43.23.91.36,1.4.36.54,0,1.08-.15,1.54-.44l.68-.43c.9-.56,1.41-1.57,1.36-2.61,1.7-.02,2.64-.4,2.78-1.1.08-.38-.05-.63-.16-.77-.14-.17-.36-.29-.64-.34.03-.07.05-.14.07-.21.04-.24-.02-.47-.19-.66-.22-.26-.47-.32-.65-.32,0,0,0,0-.01,0,0-.04,0-.09-.01-.14-.04-.28-.2-.52-.44-.69-.12-.09-.27-.13-.42-.13h0Z"/>
          </g>
          <g>
            <path class="cls-11" d="M29.32,16.48c-.06,0-.12,0-.17-.02-.34-.09-.48-.29-.53-.44-.08-.25,0-.55.11-.8-.08.02-.17.03-.26.03h0c-.27,0-.48-.13-.59-.38-.09-.19-.09-.39,0-.56.03-.07.08-.13.13-.18-.36-.1-.59-.34-.65-.71-.02-.16.02-.31.12-.44.39-.49,1.66-.69,2.5-.76-.05-.98.43-1.93,1.27-2.46l.68-.43c.43-.27.93-.42,1.44-.42.47,0,.92.12,1.33.34.55-.92,1.3-1.93,1.91-1.93.11,0,.22.03.31.1.21.14.33.33.36.56.02.11,0,.23-.01.33.07-.02.14-.04.22-.04.19,0,.36.09.5.25.13.15.18.33.14.51-.03.15-.11.29-.21.41.39,0,.66.1.82.3.13.16.17.37.12.62-.16.79-1.6.95-2.78.95h-.02c.12,1.04-.36,2.08-1.26,2.64l-.68.43c-.43.27-.93.42-1.44.42s-1.04-.15-1.48-.43c-.49,1.01-1.18,2.13-1.9,2.13Z"/>
            <path class="cls-5" d="M36.61,7.51c.07,0,.14.02.2.06.66.46,0,1.29,0,1.29,0,0,.33-.39.68-.39.12,0,.25.05.36.18.42.51-.51,1.04-.51,1.04,0,0,.27-.06.56-.06.42,0,.9.12.79.69-.14.7-1.72.8-2.59.8-.09,0-.17,0-.25,0,.21,1.01-.21,2.09-1.13,2.67l-.68.43c-.42.26-.88.39-1.34.39-.56,0-1.11-.18-1.55-.53-.3.66-1.09,2.22-1.83,2.22-.04,0-.08,0-.13-.02-.96-.25.02-1.49.02-1.49,0,0-.4.27-.74.27-.17,0-.33-.07-.42-.27-.27-.6.64-.84.64-.84,0,0-.14.03-.31.03-.31,0-.76-.09-.84-.6-.12-.73,1.97-.95,2.64-1-.12-.95.3-1.93,1.17-2.47l.68-.43c.42-.26.88-.39,1.34-.39.49,0,.98.14,1.39.41.31-.53,1.23-2.01,1.85-2.01M36.61,7.13c-.55,0-1.22.63-1.98,1.88-.39-.19-.82-.28-1.26-.28-.54,0-1.08.15-1.54.44l-.68.43c-.85.53-1.36,1.46-1.36,2.45-.97.1-2.07.32-2.46.82-.14.17-.19.38-.16.59.06.35.25.62.55.77,0,0,0,0,0,.01-.08.16-.14.41,0,.72.14.3.41.48.74.49-.06.21-.08.43,0,.64.07.2.23.45.66.56.07.02.15.03.22.03.64,0,1.3-.69,1.98-2.05.43.23.91.36,1.4.36.54,0,1.08-.15,1.54-.44l.68-.43c.9-.56,1.41-1.57,1.36-2.61,1.7-.02,2.64-.4,2.78-1.1.08-.38-.05-.63-.16-.77-.14-.17-.36-.29-.64-.34.03-.07.05-.14.07-.21.04-.24-.02-.47-.19-.66-.22-.26-.47-.32-.65-.32,0,0,0,0-.01,0,0-.04,0-.09-.01-.14-.04-.28-.2-.52-.44-.69-.12-.09-.27-.13-.42-.13h0Z"/>
          </g>
          <g>
            <path class="cls-9" d="M52.69,14.46c-.11,0-.23-.03-.36-.09-.42-.19-.65-.46-.77-.74-.14.26-.32.39-.54.39-.11,0-.23-.04-.35-.11-.4-.25-.46-.75-.2-1.39-.08.02-.16.03-.25.03h0c-.33,0-.64-.18-.81-.46l-4.34-7.33c-.22-.37-.16-.82.12-1.12-.34-.07-.7-.2-.96-.49-.27-.29-.39-.69-.35-1.19.05-.63.25-.96.61-.96.25,0,.51.19.74.4-.07-.38-.08-.79.08-1.02.09-.13.22-.19.39-.19.11,0,.23.03.36.09.37.16.63.42.78.74.14-.26.32-.38.54-.38.11,0,.23.04.35.11.25.16.57.55.17,1.45.29.03.56.2.71.46l4.34,7.33c.19.32.17.71-.02,1,.42.04.9.17,1.23.52.27.29.39.7.36,1.19-.05.63-.25.96-.61.96-.25,0-.51-.19-.74-.4.07.38.08.79-.08,1.02-.09.13-.22.19-.39.19Z"/>
            <path class="cls-5" d="M45.7.38c.08,0,.17.02.29.07.71.31.82.92.8,1.32.08-.4.25-.95.59-.95.07,0,.15.03.24.08.5.32.21,1.06-.04,1.51.07-.02.15-.03.22-.03.26,0,.51.13.65.37l4.34,7.33c.21.36.09.82-.27,1.03l-.08.05c.06,0,.12,0,.19,0,.66,0,1.79.19,1.69,1.52-.04.58-.21.78-.42.78-.46,0-1.13-.97-1.13-.97,0,0,.62,1.78-.07,1.78-.08,0-.17-.02-.29-.07-.71-.31-.82-.92-.8-1.32-.08.4-.25.95-.59.95-.07,0-.15-.03-.24-.08-.57-.36-.11-1.26.14-1.67l-.3.18c-.12.07-.25.11-.38.11-.26,0-.51-.13-.65-.37l-4.34-7.33c-.21-.36-.09-.82.27-1.03l.22-.13c-.66,0-1.74-.22-1.65-1.52.04-.58.21-.78.42-.78.46,0,1.13.97,1.13.97,0,0-.62-1.78.07-1.78M45.7,0h0c-.22,0-.41.1-.54.27-.13.18-.17.43-.16.71-.16-.1-.34-.17-.5-.17-.33,0-.73.2-.8,1.13-.04.55.09.99.4,1.33.22.24.5.39.79.48-.17.34-.18.75.03,1.1l4.34,7.33c.2.33.56.54.94.56-.23.82.16,1.19.37,1.33.15.09.3.14.45.14.2,0,.37-.08.52-.23.17.24.41.43.72.57.16.07.3.11.44.11.22,0,.41-.1.54-.27.13-.18.17-.43.16-.71.16.1.34.17.5.17.33,0,.73-.2.8-1.13.04-.55-.1-1-.41-1.33-.3-.32-.7-.47-1.08-.54,0-.03.02-.06.02-.08.08-.29.03-.6-.12-.86l-4.34-7.33c-.14-.24-.36-.41-.62-.5.31-.88-.05-1.3-.33-1.47-.15-.09-.3-.14-.45-.14-.2,0-.37.08-.52.23-.17-.24-.41-.43-.72-.57-.16-.07-.3-.11-.44-.11h0Z"/>
          </g>
          <g>
            <path class="cls-11" d="M55.33,14.39c-.06,0-.12,0-.19-.02-.79-.15-.96-1.56-.95-2.8-.11.01-.22.02-.33.02-.95,0-1.81-.48-2.31-1.28l-.43-.68c-.56-.89-.55-2.04.02-2.92-1.12-.54-2.31-1.3-2.1-2.08.09-.36.33-.56.67-.56.19,0,.4.07.57.15-.04-.15-.05-.31,0-.46.05-.18.17-.31.35-.4.1-.04.2-.07.29-.07.18,0,.33.08.45.19.03-.11.07-.21.13-.3.13-.19.32-.31.57-.35.03,0,.06,0,.09,0,.72,0,1,1.39,1.12,2.63.05,0,.1,0,.15,0,.95,0,1.81.48,2.31,1.28l.43.68c.53.84.55,1.91.07,2.77.72.44,1.78,1.17,1.92,1.78.04.16,0,.32-.08.45-.17.24-.41.37-.7.37-.07,0-.14,0-.2-.02.02.07.04.15.04.22,0,.19-.09.36-.25.5-.12.1-.26.15-.4.15-.19,0-.37-.1-.51-.22,0,.26-.05.53-.2.72-.12.15-.3.24-.51.24Z"/>
            <path class="cls-5" d="M52.16,3.02c.68,0,.89,1.99.94,2.65.11-.01.22-.02.32-.02.84,0,1.67.42,2.15,1.19l.43.68c.54.87.5,1.93-.03,2.73.59.34,2.36,1.45,1.94,2.05-.15.22-.35.29-.54.29-.38,0-.75-.29-.75-.29,0,0,.72.61.21,1.03-.09.08-.19.11-.28.11-.41,0-.76-.62-.76-.62,0,0,.31,1.37-.47,1.37-.05,0-.1,0-.16-.02-.78-.15-.81-2.07-.8-2.84-.17.04-.35.05-.52.05-.84,0-1.67-.42-2.15-1.19l-.43-.68c-.58-.92-.49-2.08.14-2.9-.7-.32-2.41-1.19-2.2-1.95.08-.31.27-.42.49-.42.44,0,1,.44,1,.44,0,0-.61-.89,0-1.16.08-.04.15-.05.22-.05.44,0,.62.69.62.69,0,0-.22-1.03.57-1.16.02,0,.04,0,.06,0M52.16,2.65h0s-.08,0-.12,0c-.3.05-.54.2-.7.43-.03.04-.05.08-.07.12-.1-.05-.22-.08-.36-.08-.12,0-.25.03-.37.08-.23.11-.39.28-.46.52-.02.07-.03.15-.03.22-.12-.03-.23-.05-.35-.05-.42,0-.73.26-.85.7-.18.7.49,1.45,2.02,2.21-.5.91-.47,2.04.09,2.94l.43.68c.54.85,1.46,1.36,2.47,1.36.05,0,.09,0,.14,0,.02,1.7.39,2.64,1.1,2.78.08.02.16.02.23.02.27,0,.5-.11.66-.31.12-.15.18-.33.22-.52.11.05.23.08.35.08.19,0,.37-.07.52-.2.26-.22.32-.47.32-.64,0,0,0,0,0-.01.34,0,.62-.16.83-.46.12-.17.16-.38.11-.6-.14-.61-1.02-1.29-1.86-1.81.42-.89.37-1.95-.16-2.8l-.43-.68c-.53-.85-1.45-1.36-2.45-1.36-.18-1.74-.61-2.63-1.29-2.63h0Z"/>
          </g>
          <g>
            <path class="cls-9" d="M24.17,16.99c-.08,0-.16-.01-.23-.04-.33-.12-.45-.33-.49-.48-.06-.26.04-.55.18-.79-.06.01-.13.02-.19.02h0c-.31,0-.53-.15-.63-.43-.07-.2-.06-.39.04-.56.04-.07.09-.12.14-.17-.35-.13-.57-.39-.59-.76-.01-.16.04-.31.16-.43.42-.46,1.71-.55,2.55-.56.02-.99.58-1.89,1.46-2.35l.71-.37c.39-.2.82-.31,1.26-.31.54,0,1.06.16,1.51.46.52-.73,1.38-1.78,2.01-1.78.13,0,.25.04.35.12.2.16.3.36.32.59,0,.11,0,.23-.04.33.06-.01.11-.02.17-.02.21,0,.4.1.53.29.11.16.15.34.1.52-.04.15-.13.28-.24.39.37.03.63.15.78.34.13.17.16.39.09.64-.14.51-.83.77-2.03.77-.3,0-.6-.02-.83-.04.04,1.04-.52,2.04-1.46,2.53l-.71.37c-.39.2-.82.31-1.26.31-.6,0-1.18-.2-1.65-.56-.47.82-1.28,1.97-2.01,1.97Z"/>
            <path class="cls-5" d="M32.05,8.61c.08,0,.16.03.23.08.62.51-.09,1.28-.09,1.28,0,0,.34-.34.67-.34.13,0,.27.06.38.21.38.54-.59,1-.59,1,0,0,.16-.02.37-.02.44,0,1.11.1.93.75-.14.51-1.04.63-1.85.63-.4,0-.78-.03-1.04-.05.13,1.02-.37,2.07-1.34,2.57l-.71.37c-.37.2-.77.29-1.17.29-.63,0-1.24-.23-1.71-.66-.35.62-1.23,2.07-1.95,2.07-.06,0-.11,0-.17-.03-.94-.33.14-1.48.14-1.48,0,0-.37.22-.71.22-.19,0-.37-.07-.45-.3-.22-.62.7-.78.7-.78,0,0-.07,0-.18,0-.3,0-.88-.08-.93-.67-.06-.73,2-.79,2.7-.79h.02c-.05-.96.45-1.9,1.36-2.37l.71-.37c.37-.2.77-.29,1.17-.29.56,0,1.11.19,1.55.53.34-.49,1.34-1.86,1.97-1.86M32.05,8.23h0c-.54,0-1.23.58-2.06,1.72-.44-.25-.95-.39-1.46-.39-.46,0-.93.11-1.34.33l-.71.37c-.89.46-1.47,1.35-1.55,2.34-.98.03-2.09.16-2.51.62-.15.16-.22.36-.21.57.03.36.2.63.48.81,0,0,0,0,0,.01-.09.15-.17.4-.05.72.11.32.36.51.7.55-.08.2-.11.43-.06.64.05.2.2.47.61.61.09.03.19.05.29.05.62,0,1.31-.64,2.07-1.89.47.31,1.02.47,1.59.47.46,0,.93-.11,1.34-.33l.71-.37c.94-.49,1.53-1.46,1.56-2.49.19.01.41.02.64.02,1.32,0,2.05-.3,2.22-.9.11-.39,0-.66-.12-.81-.13-.17-.33-.29-.59-.36.04-.06.06-.13.08-.21.06-.23.02-.47-.13-.68-.16-.22-.38-.35-.63-.37,0-.04,0-.09,0-.14-.02-.28-.15-.53-.39-.72-.13-.11-.3-.17-.47-.17h0Z"/>
          </g>
          <g id="SVGID-2" data-name="SVGID">
            <ellipse class="cls-1" cx="35.52" cy="9.47" rx="21.35" ry="5.04"/>
          </g>
          <g>
            <path class="cls-7" d="M39.07,18.32c-.26,0-.39-.12-.45-.23-.13-.21-.1-.55-.02-.86-.28.23-.6.43-.87.43-.17,0-.46-.08-.51-.6-.04-.4.06-.75.27-1.04h0c-.23,0-.41-.06-.52-.18-.11-.11-.15-.26-.14-.45.02-.29.2-.77,1.18-.86-.12-.27-.1-.58.05-.84l4.27-7.37c.17-.29.48-.47.82-.47.02,0,.04,0,.06,0-.17-.37-.29-.84-.16-1.29.12-.4.41-.71.88-.93.27-.13.49-.19.67-.19.26,0,.39.12.45.23.13.21.1.55.02.86.28-.23.6-.43.87-.43.17,0,.46.08.51.6.04.4-.06.75-.27,1.04h0c.23,0,.41.06.52.18.11.11.15.27.14.45-.03.48-.42.77-1.12.85.11.11.2.26.24.42.07.24.03.5-.09.72l-4.27,7.37c-.17.29-.48.47-.82.47h0c-.07,0-.15,0-.22-.03.11.33.17.71.05,1.07-.12.38-.41.68-.86.89-.27.13-.49.19-.67.19Z"/>
            <path class="cls-5" d="M44.56,3.62c.8,0,.01,1.62.01,1.62,0,0,.85-.96,1.34-.96.17,0,.3.12.33.43.07.77-.4,1.16-.76,1.35.21-.07.47-.13.69-.13.28,0,.5.1.48.44-.03.61-.85.7-1.37.7-.06,0-.11,0-.16,0l.3.18c.36.21.48.67.28,1.03l-4.27,7.37c-.14.24-.39.38-.65.38-.13,0-.26-.03-.38-.1l-.22-.13c.32.58.66,1.63-.52,2.18-.25.12-.44.17-.59.17-.8,0-.01-1.62-.01-1.62,0,0-.85.96-1.34.96-.17,0-.3-.12-.33-.43-.07-.77.4-1.16.76-1.35-.21.07-.47.13-.69.13-.28,0-.5-.1-.48-.44.03-.59.82-.7,1.34-.7-.24-.24-.31-.61-.13-.92l4.27-7.37c.14-.24.39-.38.65-.38.13,0,.26.03.38.1l.08.05c-.32-.5-.94-1.76.4-2.39.25-.12.44-.17.59-.17M44.56,3.24h0c-.21,0-.45.07-.75.21-.52.24-.85.59-.98,1.05-.12.4-.05.82.07,1.17-.32.06-.61.26-.77.55l-4.27,7.37c-.14.24-.18.52-.13.78-.92.16-1.11.68-1.12,1.01-.02.3.1.49.19.59.09.1.21.17.35.21-.13.27-.18.57-.14.91.07.72.55.77.7.77.2,0,.41-.09.61-.21,0,.2.02.4.12.55.13.21.35.32.61.32.21,0,.45-.07.75-.21.5-.23.82-.57.96-1,.1-.31.09-.63.03-.92.39-.01.75-.23.94-.56l4.27-7.37c.2-.35.2-.76.02-1.09.79-.19.96-.67.98-.98.02-.3-.1-.49-.19-.59-.09-.1-.21-.17-.35-.21.13-.27.18-.57.14-.91-.07-.72-.55-.77-.7-.77h0c-.2,0-.41.09-.61.21,0-.2-.02-.4-.12-.55-.13-.21-.35-.32-.61-.32h0Z"/>
          </g>
          <g>
            <path class="cls-7" d="M22.68,16.4c-.14,0-.29-.06-.46-.19-.32-.25-.51-.56-.57-.91-.16.17-.33.26-.5.26-.15,0-.3-.07-.43-.21-.2-.21-.42-.67.18-1.45-.27-.1-.49-.32-.58-.62l-2.44-8.16c-.11-.36,0-.73.26-.96-.38-.13-.81-.36-1.05-.77-.21-.36-.24-.79-.07-1.27.06-.2.26-.79.7-.79.29,0,.54.28.74.58.02-.36.1-.73.28-.93.09-.1.21-.16.34-.16.14,0,.29.06.46.19.32.25.51.56.57.91.16-.17.33-.26.5-.26.15,0,.3.07.43.21.33.34.27.84-.14,1.4h.02c.41,0,.78.28.9.67l2.44,8.16c.07.24.05.5-.07.72-.08.14-.18.26-.31.34.32.15.63.37.81.7.19.35.21.76.05,1.23-.06.2-.26.79-.7.79h0c-.29,0-.54-.28-.74-.58-.02.36-.1.73-.28.93-.09.1-.21.16-.34.16Z"/>
            <path class="cls-5" d="M19.09,1.02c.09,0,.2.05.34.15.61.48.57,1.09.46,1.48.16-.34.43-.79.73-.79.09,0,.19.04.29.15.46.49-.2,1.25-.54,1.59l.34-.1c.07-.02.14-.03.22-.03.32,0,.62.21.72.54l2.44,8.16c.12.4-.11.82-.51.94l-.24.07c.64.17,1.64.64,1.23,1.87-.16.49-.34.66-.52.66-.48,0-.94-1.22-.94-1.22,0,0,.15,1.72-.42,1.72-.09,0-.2-.05-.34-.15-.61-.48-.57-1.09-.46-1.48-.16.34-.43.79-.73.79-.09,0-.19-.04-.29-.15-.41-.43.06-1.08.41-1.45-.01,0-.02,0-.04,0-.32,0-.62-.21-.72-.54l-2.44-8.16c-.12-.4.11-.82.51-.94l.09-.03c-.58-.11-1.92-.52-1.46-1.92.16-.49.34-.66.52-.66.48,0,.94,1.22.94,1.22,0,0-.15-1.72.42-1.72M19.09.64h0c-.18,0-.35.08-.48.22-.13.14-.21.35-.26.58-.18-.18-.38-.3-.61-.3-.58,0-.81.7-.88.92-.18.54-.15,1.02.09,1.43.21.36.56.6.9.75-.02.02-.03.05-.04.08-.14.27-.18.57-.09.86l2.44,8.16c.08.27.25.49.48.63-.52.78-.26,1.27-.04,1.51.21.22.42.27.57.27s.27-.04.39-.12c.11.27.3.52.56.73.2.15.39.23.57.23s.35-.08.48-.22c.13-.14.21-.35.26-.58.18.18.38.3.61.3.58,0,.81-.7.88-.92.17-.52.15-.99-.07-1.38-.16-.29-.39-.5-.65-.65.06-.06.11-.14.15-.21.14-.27.18-.57.09-.86l-2.44-8.16c-.11-.38-.41-.66-.78-.77.42-.74.14-1.19-.04-1.38-.21-.22-.42-.27-.57-.27s-.27.04-.39.12c-.11-.27-.3-.52-.56-.73-.2-.15-.39-.23-.57-.23h0Z"/>
          </g>
          <g>
            <path class="cls-11" d="M20.43,15.43c-.2,0-.82,0-.97-.41-.1-.28.09-.61.32-.9-.21.05-.43.09-.62.09-.26,0-.44-.07-.55-.22-.11-.15-.11-.36-.02-.61.14-.38.37-.66.68-.83-.18-.08-.3-.19-.37-.32-.06-.11-.1-.3.03-.55.1-.19.32-.41.76-.41.2,0,.43.04.68.13,0-.29.15-.57.4-.74l6.99-4.87c.16-.11.35-.17.54-.17.16,0,.32.04.46.12,0-.41.09-.89.4-1.24.27-.31.67-.47,1.19-.47.21,0,.83,0,.97.41.1.28-.09.61-.32.9.21-.05.43-.09.62-.09.26,0,.44.07.55.22.11.15.11.36.02.61-.14.38-.37.66-.68.83.18.08.3.19.37.32.06.11.1.3-.03.55-.1.19-.32.41-.76.41-.2,0-.41-.05-.62-.11.05.15.07.32.04.48-.04.25-.18.46-.39.61l-6.99,4.87c-.16.11-.35.17-.54.17h0c-.22,0-.42-.07-.59-.21-.04.35-.15.72-.41.99-.27.29-.66.44-1.16.44h0Z"/>
            <path class="cls-5" d="M30.35,4.23c1.86,0-.07,1.56-.07,1.56,0,0,.81-.35,1.34-.35.33,0,.55.14.39.58-.26.73-.86.88-1.26.9.49.06,1.21.24.93.77-.13.23-.35.31-.59.31-.38,0-.83-.2-1.09-.33l.2.29c.24.34.15.81-.19,1.05l-6.99,4.87c-.13.09-.28.14-.43.14-.24,0-.47-.11-.62-.32l-.15-.21c.04.66-.09,1.76-1.39,1.76h0c-1.86,0,.07-1.56.07-1.56,0,0-.81.35-1.34.35-.33,0-.55-.14-.39-.58.26-.73.86-.88,1.26-.9-.49-.06-1.21-.24-.93-.77.13-.23.35-.31.59-.31.31,0,.66.13.92.25-.12-.32-.02-.69.27-.89l6.99-4.87c.13-.09.28-.14.43-.14.24,0,.47.11.62.32l.06.08c-.08-.59-.11-1.99,1.37-1.99h0M30.35,3.85h0c-.57,0-1.02.18-1.33.53-.28.32-.39.72-.43,1.09-.09-.02-.19-.04-.29-.04-.23,0-.46.07-.65.2l-6.99,4.87c-.23.16-.39.39-.45.65-.19-.05-.36-.08-.52-.08-.42,0-.74.18-.92.51-.17.32-.11.57-.03.72.05.09.11.17.19.24-.23.19-.4.44-.52.76-.11.32-.1.58.04.78.14.2.38.3.7.3.07,0,.14,0,.21-.01-.12.23-.17.47-.09.69.19.54.91.54,1.15.54.55,0,.99-.17,1.3-.5.22-.24.35-.53.42-.82.14.06.29.09.45.09.23,0,.46-.07.65-.2l6.99-4.87c.33-.23.5-.61.48-.98.13.03.25.04.38.04.42,0,.75-.18.92-.51.17-.32.11-.57.03-.72-.05-.09-.11-.17-.19-.24.23-.19.4-.44.52-.76.11-.32.1-.58-.04-.78-.14-.2-.38-.3-.7-.3-.07,0-.14,0-.21.01.12-.23.17-.47.09-.69-.19-.54-.91-.54-1.15-.54h0Z"/>
          </g>
          <g>
            <path class="cls-9" d="M41.21,15.86c-.08,0-.16-.01-.23-.04-.33-.12-.45-.33-.49-.48-.06-.26.04-.55.18-.79-.06.01-.13.02-.19.02-.31,0-.53-.15-.63-.43-.07-.2-.06-.39.04-.56.04-.07.09-.12.14-.17-.35-.12-.57-.39-.59-.76-.01-.16.04-.31.16-.43.42-.46,1.71-.55,2.55-.56.02-.99.58-1.89,1.46-2.35l.71-.37c.39-.2.82-.31,1.26-.31.54,0,1.06.16,1.51.46.52-.73,1.38-1.78,2.01-1.78.13,0,.25.04.35.12.2.16.3.36.32.59,0,.11,0,.23-.04.33.06-.01.11-.02.17-.02.21,0,.4.1.53.29.11.16.15.34.1.52-.04.15-.13.28-.24.39.37.03.63.15.78.34.13.17.16.39.09.64-.14.51-.83.77-2.03.77-.3,0-.6-.02-.83-.04.04,1.04-.52,2.04-1.46,2.53l-.71.37c-.39.2-.82.31-1.26.31-.6,0-1.18-.2-1.65-.56-.47.82-1.28,1.97-2.01,1.97Z"/>
            <path class="cls-5" d="M49.09,7.49c.08,0,.16.03.23.08.62.51-.09,1.28-.09,1.28,0,0,.34-.34.67-.34.13,0,.27.06.38.21.38.54-.59,1-.59,1,0,0,.16-.02.37-.02.44,0,1.11.1.93.75-.14.51-1.04.63-1.85.63-.4,0-.78-.03-1.04-.05.13,1.02-.37,2.07-1.34,2.57l-.71.37c-.37.2-.77.29-1.17.29-.63,0-1.24-.23-1.71-.66-.35.62-1.23,2.07-1.95,2.07-.06,0-.11,0-.17-.03-.94-.33.14-1.48.14-1.48,0,0-.37.22-.71.22-.19,0-.37-.07-.45-.3-.22-.62.7-.78.7-.78,0,0-.07,0-.18,0-.3,0-.88-.08-.93-.67-.06-.73,2-.79,2.7-.79h.02c-.05-.96.45-1.9,1.36-2.37l.71-.37c.37-.2.77-.29,1.17-.29.56,0,1.11.19,1.55.53.34-.49,1.34-1.86,1.97-1.86M49.09,7.11h0c-.54,0-1.23.58-2.06,1.72-.44-.25-.95-.39-1.46-.39-.46,0-.93.11-1.34.33l-.71.37c-.89.46-1.47,1.35-1.55,2.34-.98.03-2.09.16-2.51.62-.15.16-.22.36-.21.57.03.36.2.63.48.81,0,0,0,0,0,.01-.09.15-.17.4-.05.72.11.32.36.51.7.55-.08.2-.11.43-.06.64.05.2.2.47.61.61.09.03.19.05.29.05.62,0,1.31-.64,2.07-1.89.47.31,1.02.47,1.59.47.46,0,.93-.11,1.34-.33l.71-.37c.94-.49,1.53-1.46,1.56-2.49.19.01.41.02.64.02,1.32,0,2.05-.3,2.22-.9.11-.39,0-.66-.12-.81-.13-.17-.33-.29-.59-.36.04-.06.06-.13.08-.21.06-.23.02-.47-.13-.68-.16-.22-.38-.35-.63-.37,0-.04,0-.09,0-.14-.02-.28-.15-.53-.39-.72-.13-.11-.3-.17-.47-.17h0Z"/>
          </g>
          <g>
            <path class="cls-11" d="M47.66,15.32c-.39,0-.64-.12-.74-.35-.11-.26.04-.61.24-.91-.25.09-.51.17-.73.17s-.36-.06-.46-.19c-.11-.14-.13-.34-.07-.59.1-.39.3-.69.6-.9-.19-.06-.32-.16-.4-.28-.07-.11-.13-.29-.02-.55.09-.23.32-.5.86-.5.16,0,.34.02.54.07-.02-.29.09-.58.32-.78l6.45-5.57c.17-.15.39-.23.62-.23.13,0,.25.03.37.08-.04-.4,0-.89.27-1.27.24-.34.62-.54,1.13-.59.1-.01.2-.02.28-.02.39,0,.64.12.74.35.11.26-.04.61-.24.91.25-.09.51-.17.73-.17s.36.06.46.19c.11.14.13.34.07.59-.1.39-.3.69-.6.9.19.06.32.16.4.28.07.11.13.29.02.55-.09.23-.32.5-.86.5-.16,0-.32-.02-.47-.06.07.15.1.31.09.47-.02.25-.13.48-.32.64l-6.45,5.57c-.17.15-.39.23-.62.23h0c-.18,0-.36-.05-.51-.15,0,.35-.08.73-.31,1.03-.24.32-.61.5-1.1.55-.1.01-.2.02-.28.02Z"/>
            <path class="cls-5" d="M56.92,3.12c1.41,0-.17,1.58-.17,1.58,0,0,.88-.49,1.4-.49.27,0,.44.13.34.54-.18.75-.76.97-1.16,1.02.49,0,1.23.11,1,.67-.12.29-.39.38-.69.38-.35,0-.74-.13-.98-.22l.23.27c.27.32.24.79-.08,1.06l-6.45,5.57c-.14.12-.32.18-.49.18-.21,0-.42-.09-.57-.26l-.17-.19c.11.65.09,1.76-1.2,1.89-.1.01-.18.02-.26.02-1.41,0,.17-1.58.17-1.58,0,0-.88.49-1.4.49-.27,0-.44-.13-.34-.54.18-.75.76-.97,1.16-1.02-.49,0-1.23-.11-1-.67.12-.29.39-.38.69-.38.27,0,.57.08.81.16-.15-.3-.09-.68.18-.91l6.45-5.57c.14-.12.32-.18.49-.18.21,0,.42.09.57.26l.06.07c-.14-.58-.31-1.97,1.16-2.12.1-.01.18-.02.26-.02M56.92,2.74h0c-.09,0-.19,0-.3.02-.57.06-.99.28-1.27.67-.24.34-.32.75-.32,1.13-.06,0-.11-.01-.17-.01-.27,0-.53.1-.74.28l-6.45,5.57c-.21.18-.34.43-.38.69-.13-.02-.25-.03-.36-.03-.68,0-.94.38-1.04.61-.14.33-.05.58.04.72.05.08.13.15.21.22-.21.21-.35.48-.43.81-.08.31-.04.56.1.75.09.12.27.26.61.26.11,0,.23-.02.35-.04-.09.23-.12.46-.03.67.09.21.32.46.91.46.09,0,.19,0,.3-.02.55-.06.96-.27,1.23-.63.2-.26.29-.56.33-.86.11.03.22.05.34.05.27,0,.53-.1.74-.28l6.45-5.57c.3-.26.43-.66.38-1.03.07,0,.14.01.21.01.68,0,.94-.38,1.04-.61.14-.33.05-.58-.04-.72-.05-.08-.13-.15-.21-.22.21-.21.35-.48.43-.81.08-.31.04-.56-.1-.75-.09-.12-.27-.26-.61-.26-.11,0-.23.02-.35.04.09-.23.12-.46.03-.67-.09-.21-.32-.46-.91-.46h0Z"/>
          </g>
        </g>
        <g>
          <path class="cls-7" d="M31.29,10.04c-.06,0-.12,0-.17-.02-.34-.09-.48-.29-.53-.44-.08-.25,0-.55.11-.8-.08.02-.17.03-.26.03h0c-.27,0-.48-.13-.59-.38-.09-.19-.09-.39,0-.56.03-.07.08-.13.13-.18-.36-.1-.59-.34-.65-.71-.02-.16.02-.31.12-.44.39-.49,1.66-.69,2.5-.76-.05-.98.43-1.93,1.27-2.46l.68-.43c.43-.27.93-.42,1.44-.42.47,0,.92.12,1.33.34.55-.92,1.3-1.93,1.91-1.93.11,0,.22.03.31.1.21.14.33.33.36.56.02.11,0,.23-.01.33.07-.02.14-.04.22-.04.19,0,.36.09.5.25.13.15.18.33.14.51-.03.15-.11.29-.21.41.39,0,.66.1.82.3.13.16.17.37.12.62-.16.79-1.6.95-2.78.95h-.02c.12,1.04-.36,2.08-1.26,2.64l-.68.43c-.43.27-.93.42-1.44.42s-1.04-.15-1.48-.43c-.49,1.01-1.18,2.13-1.9,2.13Z"/>
          <path class="cls-5" d="M38.58,1.07c.07,0,.14.02.2.06.66.46,0,1.29,0,1.29,0,0,.33-.39.68-.39.12,0,.25.05.36.18.42.51-.51,1.04-.51,1.04,0,0,.27-.06.56-.06.42,0,.9.12.79.69-.14.7-1.72.8-2.59.8-.09,0-.17,0-.25,0,.21,1.01-.21,2.09-1.13,2.67l-.68.43c-.42.26-.88.39-1.34.39-.56,0-1.11-.18-1.55-.53-.3.66-1.09,2.22-1.83,2.22-.04,0-.08,0-.13-.02-.96-.25.02-1.49.02-1.49,0,0-.4.27-.74.27-.17,0-.33-.07-.42-.27-.27-.6.64-.84.64-.84,0,0-.14.03-.31.03-.31,0-.76-.09-.84-.6-.12-.73,1.97-.95,2.64-1-.12-.95.3-1.93,1.17-2.47l.68-.43c.42-.26.88-.39,1.34-.39.49,0,.98.14,1.39.41.31-.53,1.23-2.01,1.85-2.01M38.58.69c-.55,0-1.22.63-1.98,1.88-.39-.19-.82-.28-1.26-.28-.54,0-1.08.15-1.54.44l-.68.43c-.85.53-1.36,1.46-1.36,2.45-.97.1-2.07.32-2.46.82-.14.17-.19.38-.16.59.06.35.25.62.55.77,0,0,0,0,0,.01-.08.16-.13.41,0,.72.14.3.41.48.74.49-.06.21-.08.43,0,.64.07.2.23.45.66.56.07.02.15.03.22.03.64,0,1.3-.69,1.98-2.05.43.23.91.36,1.4.36.54,0,1.08-.15,1.54-.44l.68-.43c.9-.56,1.41-1.57,1.36-2.61,1.7-.02,2.64-.4,2.78-1.1.08-.38-.05-.63-.16-.77-.14-.17-.36-.29-.64-.34.03-.07.05-.14.07-.21.04-.24-.02-.47-.19-.66-.22-.26-.47-.32-.65-.32,0,0,0,0-.01,0,0-.04,0-.09-.01-.14-.04-.28-.2-.52-.44-.69-.12-.09-.27-.13-.42-.13h0Z"/>
        </g>
        <g>
          <path class="cls-9" d="M35.88,11.13c-.08,0-.16-.01-.23-.04-.33-.12-.45-.33-.49-.48-.06-.26.04-.55.18-.79-.06.01-.13.02-.19.02h0c-.31,0-.53-.15-.63-.43-.07-.2-.06-.39.04-.56.04-.07.09-.12.14-.17-.35-.13-.57-.39-.59-.76-.01-.16.04-.31.16-.43.42-.46,1.71-.55,2.55-.56.02-.99.58-1.89,1.46-2.35l.71-.37c.39-.2.82-.31,1.26-.31.54,0,1.06.16,1.51.46.52-.73,1.38-1.78,2.01-1.78.13,0,.25.04.35.12.2.16.3.36.32.59,0,.11,0,.23-.04.33.06-.01.11-.02.17-.02.21,0,.4.1.53.29.11.16.15.34.1.52-.04.15-.13.28-.24.39.37.03.63.15.78.34.13.17.16.39.09.64-.14.51-.83.77-2.03.77-.3,0-.6-.02-.83-.04.04,1.04-.52,2.04-1.46,2.53l-.71.37c-.39.2-.82.31-1.26.31-.6,0-1.18-.2-1.65-.56-.47.82-1.28,1.97-2.01,1.97Z"/>
          <path class="cls-5" d="M43.77,2.75c.08,0,.16.03.23.08.62.51-.09,1.28-.09,1.28,0,0,.34-.34.67-.34.13,0,.27.06.38.21.38.54-.59,1-.59,1,0,0,.16-.02.37-.02.44,0,1.11.1.93.75-.14.51-1.04.63-1.85.63-.4,0-.78-.03-1.04-.05.13,1.02-.37,2.07-1.34,2.57l-.71.37c-.37.2-.77.29-1.17.29-.63,0-1.24-.23-1.71-.66-.35.62-1.23,2.07-1.95,2.07-.06,0-.11,0-.17-.03-.94-.33.14-1.48.14-1.48,0,0-.37.22-.71.22-.19,0-.37-.07-.45-.3-.22-.62.7-.78.7-.78,0,0-.07,0-.18,0-.3,0-.88-.08-.93-.67-.06-.73,2-.79,2.7-.79h.02c-.05-.96.45-1.9,1.36-2.37l.71-.37c.37-.2.77-.29,1.17-.29.56,0,1.11.19,1.55.53.34-.49,1.34-1.86,1.97-1.86M43.77,2.38h0c-.54,0-1.23.58-2.06,1.72-.44-.25-.95-.39-1.46-.39-.46,0-.93.11-1.34.33l-.71.37c-.89.46-1.47,1.35-1.55,2.34-.98.03-2.09.16-2.51.62-.15.16-.22.36-.21.57.03.36.2.63.48.81,0,0,0,0,0,.01-.09.15-.17.4-.05.72.11.32.36.51.7.55-.08.2-.11.43-.06.64.05.2.2.47.61.61.09.03.19.05.29.05.62,0,1.31-.64,2.07-1.89.47.31,1.02.47,1.59.47.46,0,.93-.11,1.34-.33l.71-.37c.94-.49,1.53-1.46,1.56-2.49.19.01.41.02.64.02,1.32,0,2.05-.3,2.22-.9.11-.39,0-.66-.12-.81-.13-.17-.33-.29-.59-.36.04-.06.06-.13.08-.21.06-.23.02-.47-.13-.68-.16-.22-.38-.35-.63-.37,0-.04,0-.09,0-.14-.02-.28-.15-.53-.39-.72-.13-.11-.3-.17-.47-.17h0Z"/>
        </g>
        <g>
          <path class="cls-11" d="M33.37,11.88c-.68,0-1.11-1.31-1.36-2.48-.16.03-.32.04-.48.04-.83,0-1.6-.37-2.12-1.01l-.51-.63c-.62-.77-.77-1.83-.4-2.74-.77-.35-1.91-.94-2.12-1.53-.06-.16-.05-.32.03-.46.16-.3.43-.46.77-.46.03,0,.05,0,.08,0-.03-.07-.05-.14-.06-.22-.02-.19.04-.37.19-.53.13-.13.28-.21.45-.21s.32.07.46.16c-.03-.27-.01-.57.14-.78.09-.12.26-.27.57-.27.03,0,.05,0,.08,0,.8.06,1.14,1.43,1.28,2.66.21-.05.43-.08.65-.08.83,0,1.6.37,2.12,1.01l.51.63c.66.82.79,1.96.33,2.9,1.17.4,2.45,1.02,2.34,1.81-.06.41-.31.64-.71.64-.16,0-.32-.04-.48-.09.06.14.09.3.06.45-.03.18-.13.33-.3.44-.12.07-.24.11-.36.11h0c-.15,0-.28-.06-.4-.14-.01.11-.04.22-.1.32-.11.21-.28.35-.53.41-.05.01-.1.02-.15.02Z"/>
          <path class="cls-5" d="M29.02.97s.04,0,.07,0c.79.06,1.06,1.96,1.13,2.72.26-.09.54-.13.81-.13.74,0,1.47.32,1.97.94l.51.63c.69.85.73,2,.21,2.89.73.23,2.53.89,2.42,1.68-.05.37-.27.48-.52.48-.43,0-.96-.33-.96-.33,0,0,.71.81.14,1.15-.09.06-.18.08-.26.08-.41,0-.65-.62-.65-.62,0,0,.35,1-.42,1.22-.03,0-.07.01-.1.01-.65,0-1.09-1.88-1.21-2.52-.21.05-.42.08-.62.08-.74,0-1.47-.32-1.97-.94l-.51-.63c-.64-.79-.72-1.86-.3-2.72-.62-.27-2.52-1.15-2.17-1.8.15-.28.38-.36.6-.36.35,0,.68.2.68.2,0,0-.79-.52-.33-1,.1-.11.21-.15.32-.15.39,0,.78.53.78.53,0,0-.5-1.42.39-1.42M29.02.59c-.4,0-.61.19-.73.35-.12.17-.17.37-.18.58-.09-.03-.17-.04-.27-.04-.22,0-.43.09-.59.27-.23.25-.26.5-.24.68,0,0,0,0,0,.01-.33.05-.6.24-.77.55-.1.19-.11.4-.04.61.21.59,1.17,1.16,2.06,1.57-.31.94-.13,1.98.49,2.76l.51.63c.55.69,1.38,1.08,2.26,1.08.11,0,.22,0,.33-.02.55,2.46,1.27,2.46,1.51,2.46.07,0,.14,0,.2-.03.29-.08.51-.26.64-.51.02-.04.04-.08.05-.12.08.03.17.05.27.05.15,0,.31-.05.45-.13.22-.13.35-.33.39-.57.01-.07.01-.15,0-.22.07.01.15.02.22.02.49,0,.83-.3.9-.81.1-.72-.66-1.38-2.27-1.95.38-.97.23-2.09-.44-2.91l-.51-.63c-.55-.69-1.38-1.08-2.26-1.08-.16,0-.33.01-.49.04-.22-1.69-.7-2.57-1.43-2.63-.03,0-.07,0-.1,0h0Z"/>
        </g>
        <g>
          <path class="cls-7" d="M20.35,11.15c-.65,0-.92-1.22-1.03-2.33-.05,0-.09,0-.14,0-.84,0-1.61-.42-2.06-1.12l-.39-.6c-.48-.74-.51-1.69-.1-2.46-.65-.38-1.59-1.02-1.71-1.57-.03-.15,0-.3.07-.42.16-.23.38-.35.64-.35.05,0,.09,0,.14.01-.02-.05-.02-.11-.02-.17,0-.18.08-.34.23-.46.11-.1.24-.15.37-.15.16,0,.31.07.43.17,0-.22.05-.45.18-.62.11-.14.28-.22.48-.22.05,0,.11,0,.17.02.71.13.88,1.37.89,2.48.1-.01.19-.02.29-.02.84,0,1.61.42,2.06,1.12l.39.6c.51.79.51,1.81.02,2.6,1,.47,2.05,1.14,1.88,1.84-.08.33-.3.52-.62.52-.16,0-.32-.05-.47-.11.03.12.03.25,0,.37-.04.16-.16.29-.32.37-.09.04-.18.06-.27.06h0c-.15,0-.28-.06-.38-.15-.02.09-.06.17-.11.25-.12.17-.3.29-.52.32-.03,0-.06,0-.09,0Z"/>
          <path class="cls-5" d="M17.45,1.05s.09,0,.13.01c.69.13.74,1.83.73,2.51.16-.03.32-.05.48-.05.74,0,1.47.37,1.9,1.04l.39.6c.52.82.45,1.84-.1,2.57.62.28,2.15,1.04,1.97,1.72-.07.28-.24.38-.43.38-.39,0-.89-.39-.89-.39,0,0,.55.79.01,1.03-.07.03-.14.05-.2.05-.39,0-.55-.61-.55-.61,0,0,.21.91-.49,1.03-.02,0-.04,0-.05,0-.6,0-.81-1.76-.86-2.34-.1.01-.21.02-.31.02-.74,0-1.47-.37-1.9-1.04l-.39-.6c-.49-.77-.46-1.71,0-2.43-.52-.3-2.11-1.27-1.74-1.81.14-.2.31-.27.48-.27.34,0,.66.25.66.25,0,0-.65-.53-.2-.92.08-.07.17-.1.25-.1.36,0,.68.55.68.55,0,0-.28-1.22.41-1.22M17.45.68c-.26,0-.47.1-.62.29-.1.12-.16.28-.19.43-.09-.03-.18-.05-.28-.05-.18,0-.35.07-.5.19-.23.2-.29.42-.29.58-.29.02-.55.17-.72.43-.11.17-.15.36-.1.57.13.55.91,1.14,1.65,1.6-.36.8-.3,1.74.18,2.49l.39.6c.48.75,1.29,1.2,2.19,1.21.27,2.32.96,2.32,1.2,2.32.04,0,.08,0,.12,0,.28-.05.5-.19.65-.4.02-.02.03-.05.04-.07.09.04.18.06.29.06.12,0,.24-.03.35-.08.22-.1.37-.27.42-.49.01-.05.02-.1.03-.15.09.02.18.03.27.03.4,0,.7-.25.8-.66.16-.64-.44-1.31-1.8-1.97.42-.82.38-1.82-.12-2.62l-.39-.6c-.49-.76-1.31-1.21-2.22-1.21-.04,0-.07,0-.11,0-.04-1.51-.38-2.34-1.04-2.46-.07-.01-.14-.02-.2-.02h0Z"/>
        </g>
        <g>
          <path class="cls-7" d="M32.44,17.58c-.06,0-.12,0-.17-.02-.34-.09-.48-.29-.53-.44-.08-.25,0-.55.11-.8-.08.02-.17.03-.26.03h0c-.27,0-.48-.13-.59-.38-.09-.19-.09-.39,0-.56.03-.07.08-.13.13-.18-.36-.1-.59-.34-.65-.71-.02-.16.02-.31.12-.44.39-.49,1.66-.69,2.5-.76-.05-.98.43-1.93,1.27-2.46l.68-.43c.43-.27.93-.42,1.44-.42.47,0,.92.12,1.33.34.55-.92,1.3-1.93,1.91-1.93.11,0,.22.03.31.1.21.14.33.33.37.56.02.11,0,.23-.01.33.07-.02.14-.04.22-.04.19,0,.36.09.5.25.13.15.18.33.14.51-.03.15-.11.29-.21.41.39,0,.66.1.82.3.13.16.17.37.12.62-.15.79-1.6.95-2.78.95h-.02c.13,1.04-.36,2.08-1.26,2.64l-.68.43c-.43.27-.93.42-1.44.42s-1.04-.15-1.48-.43c-.49,1.01-1.18,2.13-1.9,2.13Z"/>
          <path class="cls-5" d="M39.74,8.61c.07,0,.14.02.2.06.66.46,0,1.29,0,1.29,0,0,.33-.39.68-.39.12,0,.25.05.36.18.42.51-.51,1.04-.51,1.04,0,0,.27-.06.56-.06.42,0,.9.12.79.69-.14.7-1.72.8-2.59.8-.09,0-.17,0-.25,0,.21,1.01-.21,2.09-1.13,2.67l-.68.43c-.42.26-.88.39-1.34.39-.56,0-1.11-.18-1.55-.53-.3.66-1.09,2.22-1.83,2.22-.04,0-.08,0-.13-.02-.96-.25.02-1.49.02-1.49,0,0-.4.27-.74.27-.17,0-.33-.07-.42-.27-.27-.6.64-.84.64-.84,0,0-.14.03-.31.03-.31,0-.76-.09-.84-.6-.12-.73,1.97-.95,2.64-1-.12-.95.3-1.93,1.17-2.47l.68-.43c.42-.26.88-.39,1.34-.39.49,0,.98.14,1.39.41.31-.53,1.23-2.01,1.85-2.01M39.74,8.23c-.55,0-1.22.63-1.98,1.88-.39-.19-.82-.28-1.26-.28-.54,0-1.08.15-1.54.44l-.68.43c-.85.53-1.36,1.46-1.36,2.45-.97.1-2.07.32-2.46.82-.14.17-.19.38-.16.59.06.35.25.62.55.77,0,0,0,0,0,.01-.08.16-.13.41,0,.72.14.3.41.48.74.49-.06.21-.08.43,0,.64.07.2.23.45.66.56.07.02.15.03.22.03.64,0,1.3-.69,1.98-2.05.43.23.91.36,1.4.36.54,0,1.08-.15,1.54-.44l.68-.43c.9-.56,1.41-1.57,1.36-2.61,1.7-.02,2.64-.4,2.78-1.1.08-.38-.05-.63-.16-.77-.14-.17-.36-.29-.64-.34.03-.07.05-.14.07-.21.04-.24-.02-.47-.19-.66-.22-.26-.47-.32-.65-.32,0,0,0,0-.01,0,0-.04,0-.09-.01-.14-.04-.28-.2-.52-.44-.69-.12-.09-.27-.13-.42-.13h0Z"/>
        </g>
        <g>
          <path class="cls-7" d="M21.27,10.75c-.06,0-.12,0-.17-.02-.34-.09-.48-.29-.53-.44-.08-.25,0-.55.11-.8-.08.02-.17.03-.26.03h0c-.27,0-.48-.13-.59-.38-.09-.19-.09-.39,0-.56.03-.07.08-.13.13-.18-.36-.1-.59-.34-.65-.71-.02-.16.02-.31.12-.44.39-.49,1.66-.69,2.5-.76-.05-.98.43-1.93,1.27-2.46l.68-.43c.43-.27.93-.42,1.44-.42.47,0,.92.12,1.33.34.55-.92,1.3-1.93,1.91-1.93.11,0,.22.03.31.1.21.14.33.33.37.56.02.11,0,.23-.01.33.07-.02.14-.04.22-.04.19,0,.36.09.5.25.13.15.18.33.14.51-.03.15-.11.29-.21.41.39,0,.66.1.82.3.13.16.17.37.12.62-.15.79-1.59.95-2.77.95h-.03c.13,1.04-.36,2.08-1.26,2.64l-.68.43c-.43.27-.93.42-1.44.42s-1.04-.15-1.48-.43c-.49,1.01-1.18,2.13-1.9,2.13Z"/>
          <path class="cls-5" d="M28.56,1.78c.07,0,.14.02.2.06.66.46,0,1.29,0,1.29,0,0,.33-.39.68-.39.12,0,.25.05.36.18.42.51-.51,1.04-.51,1.04,0,0,.27-.06.56-.06.42,0,.9.12.79.69-.14.7-1.72.8-2.59.8-.09,0-.17,0-.25,0,.21,1.01-.21,2.09-1.13,2.67l-.68.43c-.42.26-.88.39-1.34.39-.56,0-1.11-.18-1.55-.53-.3.66-1.09,2.22-1.83,2.22-.04,0-.08,0-.13-.02-.96-.25.02-1.49.02-1.49,0,0-.4.27-.74.27-.17,0-.33-.07-.42-.27-.27-.6.64-.84.64-.84,0,0-.14.03-.31.03-.31,0-.76-.09-.84-.6-.12-.73,1.97-.95,2.64-1-.12-.95.3-1.93,1.17-2.47l.68-.43c.42-.26.88-.39,1.34-.39.49,0,.98.14,1.39.41.31-.53,1.22-2.01,1.85-2.01M28.56,1.4h0c-.55,0-1.22.63-1.98,1.88-.39-.19-.82-.28-1.26-.28-.54,0-1.08.15-1.54.44l-.68.43c-.85.53-1.36,1.46-1.36,2.45-.97.1-2.07.32-2.46.82-.14.17-.19.38-.16.59.06.35.25.62.55.77,0,0,0,0,0,.01-.08.16-.14.41,0,.72.14.3.41.48.74.49-.06.21-.08.43,0,.64.07.2.23.45.66.56.07.02.15.03.22.03.64,0,1.3-.69,1.98-2.05.43.23.91.36,1.4.36.54,0,1.08-.15,1.54-.44l.68-.43c.9-.56,1.41-1.57,1.36-2.61,1.7-.02,2.64-.4,2.78-1.1.08-.38-.05-.63-.16-.77-.14-.17-.36-.29-.64-.34.03-.07.05-.14.07-.21.04-.24-.02-.47-.19-.66-.22-.26-.47-.32-.65-.32,0,0,0,0-.01,0,0-.04,0-.09-.01-.14-.04-.28-.2-.52-.44-.69-.12-.09-.27-.13-.42-.13h0Z"/>
        </g>
        <g>
          <path class="cls-11" d="M29.32,16.48c-.06,0-.12,0-.17-.02-.34-.09-.48-.29-.53-.44-.08-.25,0-.55.11-.8-.08.02-.17.03-.26.03h0c-.27,0-.48-.13-.59-.38-.09-.19-.09-.39,0-.56.03-.07.08-.13.13-.18-.36-.1-.59-.34-.65-.71-.02-.16.02-.31.12-.44.39-.49,1.66-.69,2.5-.76-.05-.98.43-1.93,1.27-2.46l.68-.43c.43-.27.93-.42,1.44-.42.47,0,.92.12,1.33.34.55-.92,1.3-1.93,1.91-1.93.11,0,.22.03.31.1.21.14.33.33.36.56.02.11,0,.23-.01.33.07-.02.14-.04.22-.04.19,0,.36.09.5.25.13.15.18.33.14.51-.03.15-.11.29-.21.41.39,0,.66.1.82.3.13.16.17.37.12.62-.16.79-1.6.95-2.78.95h-.02c.12,1.04-.36,2.08-1.26,2.64l-.68.43c-.43.27-.93.42-1.44.42s-1.04-.15-1.48-.43c-.49,1.01-1.18,2.13-1.9,2.13Z"/>
          <path class="cls-5" d="M36.61,7.51c.07,0,.14.02.2.06.66.46,0,1.29,0,1.29,0,0,.33-.39.68-.39.12,0,.25.05.36.18.42.51-.51,1.04-.51,1.04,0,0,.27-.06.56-.06.42,0,.9.12.79.69-.14.7-1.72.8-2.59.8-.09,0-.17,0-.25,0,.21,1.01-.21,2.09-1.13,2.67l-.68.43c-.42.26-.88.39-1.34.39-.56,0-1.11-.18-1.55-.53-.3.66-1.09,2.22-1.83,2.22-.04,0-.08,0-.13-.02-.96-.25.02-1.49.02-1.49,0,0-.4.27-.74.27-.17,0-.33-.07-.42-.27-.27-.6.64-.84.64-.84,0,0-.14.03-.31.03-.31,0-.76-.09-.84-.6-.12-.73,1.97-.95,2.64-1-.12-.95.3-1.93,1.17-2.47l.68-.43c.42-.26.88-.39,1.34-.39.49,0,.98.14,1.39.41.31-.53,1.23-2.01,1.85-2.01M36.61,7.13c-.55,0-1.22.63-1.98,1.88-.39-.19-.82-.28-1.26-.28-.54,0-1.08.15-1.54.44l-.68.43c-.85.53-1.36,1.46-1.36,2.45-.97.1-2.07.32-2.46.82-.14.17-.19.38-.16.59.06.35.25.62.55.77,0,0,0,0,0,.01-.08.16-.14.41,0,.72.14.3.41.48.74.49-.06.21-.08.43,0,.64.07.2.23.45.66.56.07.02.15.03.22.03.64,0,1.3-.69,1.98-2.05.43.23.91.36,1.4.36.54,0,1.08-.15,1.54-.44l.68-.43c.9-.56,1.41-1.57,1.36-2.61,1.7-.02,2.64-.4,2.78-1.1.08-.38-.05-.63-.16-.77-.14-.17-.36-.29-.64-.34.03-.07.05-.14.07-.21.04-.24-.02-.47-.19-.66-.22-.26-.47-.32-.65-.32,0,0,0,0-.01,0,0-.04,0-.09-.01-.14-.04-.28-.2-.52-.44-.69-.12-.09-.27-.13-.42-.13h0Z"/>
        </g>
        <g>
          <path class="cls-9" d="M52.69,14.46c-.11,0-.23-.03-.36-.09-.42-.19-.65-.46-.77-.74-.14.26-.32.39-.54.39-.11,0-.23-.04-.35-.11-.4-.25-.46-.75-.2-1.39-.08.02-.16.03-.25.03h0c-.33,0-.64-.18-.81-.46l-4.34-7.33c-.22-.37-.16-.82.12-1.12-.34-.07-.7-.2-.96-.49-.27-.29-.39-.69-.35-1.19.05-.63.25-.96.61-.96.25,0,.51.19.74.4-.07-.38-.08-.79.08-1.02.09-.13.22-.19.39-.19.11,0,.23.03.36.09.37.16.63.42.78.74.14-.26.32-.38.54-.38.11,0,.23.04.35.11.25.16.57.55.17,1.45.29.03.56.2.71.46l4.34,7.33c.19.32.17.71-.02,1,.42.04.9.17,1.23.52.27.29.39.7.36,1.19-.05.63-.25.96-.61.96-.25,0-.51-.19-.74-.4.07.38.08.79-.08,1.02-.09.13-.22.19-.39.19Z"/>
          <path class="cls-5" d="M45.7.38c.08,0,.17.02.29.07.71.31.82.92.8,1.32.08-.4.25-.95.59-.95.07,0,.15.03.24.08.5.32.21,1.06-.04,1.51.07-.02.15-.03.22-.03.26,0,.51.13.65.37l4.34,7.33c.21.36.09.82-.27,1.03l-.08.05c.06,0,.12,0,.19,0,.66,0,1.79.19,1.69,1.52-.04.58-.21.78-.42.78-.46,0-1.13-.97-1.13-.97,0,0,.62,1.78-.07,1.78-.08,0-.17-.02-.29-.07-.71-.31-.82-.92-.8-1.32-.08.4-.25.95-.59.95-.07,0-.15-.03-.24-.08-.57-.36-.11-1.26.14-1.67l-.3.18c-.12.07-.25.11-.38.11-.26,0-.51-.13-.65-.37l-4.34-7.33c-.21-.36-.09-.82.27-1.03l.22-.13c-.66,0-1.74-.22-1.65-1.52.04-.58.21-.78.42-.78.46,0,1.13.97,1.13.97,0,0-.62-1.78.07-1.78M45.7,0h0c-.22,0-.41.1-.54.27-.13.18-.17.43-.16.71-.16-.1-.34-.17-.5-.17-.33,0-.73.2-.8,1.13-.04.55.09.99.4,1.33.22.24.5.39.79.48-.17.34-.18.75.03,1.1l4.34,7.33c.2.33.56.54.94.56-.23.82.16,1.19.37,1.33.15.09.3.14.45.14.2,0,.37-.08.52-.23.17.24.41.43.72.57.16.07.3.11.44.11.22,0,.41-.1.54-.27.13-.18.17-.43.16-.71.16.1.34.17.5.17.33,0,.73-.2.8-1.13.04-.55-.1-1-.41-1.33-.3-.32-.7-.47-1.08-.54,0-.03.02-.06.02-.08.08-.29.03-.6-.12-.86l-4.34-7.33c-.14-.24-.36-.41-.62-.5.31-.88-.05-1.3-.33-1.47-.15-.09-.3-.14-.45-.14-.2,0-.37.08-.52.23-.17-.24-.41-.43-.72-.57-.16-.07-.3-.11-.44-.11h0Z"/>
        </g>
        <g>
          <path class="cls-13" d="M46.25,6.35s-.07,0-.1-.03c-.09-.06-.11-.17-.06-.26l2.21-3.4c.06-.09.17-.11.26-.06.09.06.11.17.06.26l-2.21,3.4c-.04.06-.1.09-.16.09Z"/>
          <path class="cls-13" d="M47.25,8.25s-.07,0-.1-.03c-.09-.06-.11-.17-.06-.26l2.43-3.74c.06-.09.17-.11.26-.06.09.06.11.17.06.26l-2.43,3.74c-.04.06-.1.09-.16.09Z"/>
          <path class="cls-13" d="M48.28,10.03s-.07,0-.1-.03c-.09-.06-.11-.17-.06-.26l2.39-3.68c.06-.09.17-.11.26-.06s.11.17.06.26l-2.39,3.68c-.04.06-.1.09-.16.09Z"/>
          <path class="cls-13" d="M49.32,11.83s-.07,0-.1-.03c-.09-.06-.11-.17-.06-.26l2.46-3.78c.06-.09.17-.11.26-.06s.11.17.06.26l-2.46,3.78c-.04.06-.1.09-.16.09Z"/>
        </g>
        <g>
          <path class="cls-11" d="M55.33,14.39c-.06,0-.12,0-.19-.02-.79-.15-.96-1.56-.95-2.8-.11.01-.22.02-.33.02-.95,0-1.81-.48-2.31-1.28l-.43-.68c-.56-.89-.55-2.04.02-2.92-1.12-.54-2.31-1.3-2.1-2.08.09-.36.33-.56.67-.56.19,0,.4.07.57.15-.04-.15-.05-.31,0-.46.05-.18.17-.31.35-.4.1-.04.2-.07.29-.07.18,0,.33.08.45.19.03-.11.07-.21.13-.3.13-.19.32-.31.57-.35.03,0,.06,0,.09,0,.72,0,1,1.39,1.12,2.63.05,0,.1,0,.15,0,.95,0,1.81.48,2.31,1.28l.43.68c.53.84.55,1.91.07,2.77.72.44,1.78,1.17,1.92,1.78.04.16,0,.32-.08.45-.17.24-.41.37-.7.37-.07,0-.14,0-.2-.02.02.07.04.15.04.22,0,.19-.09.36-.25.5-.12.1-.26.15-.4.15-.19,0-.37-.1-.51-.22,0,.26-.05.53-.2.72-.12.15-.3.24-.51.24Z"/>
          <path class="cls-5" d="M52.16,3.02c.68,0,.89,1.99.94,2.65.11-.01.22-.02.32-.02.84,0,1.67.42,2.15,1.19l.43.68c.54.87.5,1.93-.03,2.73.59.34,2.36,1.45,1.94,2.05-.15.22-.35.29-.54.29-.38,0-.75-.29-.75-.29,0,0,.72.61.21,1.03-.09.08-.19.11-.28.11-.41,0-.76-.62-.76-.62,0,0,.31,1.37-.47,1.37-.05,0-.1,0-.16-.02-.78-.15-.81-2.07-.8-2.84-.17.04-.35.05-.52.05-.84,0-1.67-.42-2.15-1.19l-.43-.68c-.58-.92-.49-2.08.14-2.9-.7-.32-2.41-1.19-2.2-1.95.08-.31.27-.42.49-.42.44,0,1,.44,1,.44,0,0-.61-.89,0-1.16.08-.04.15-.05.22-.05.44,0,.62.69.62.69,0,0-.22-1.03.57-1.16.02,0,.04,0,.06,0M52.16,2.65h0s-.08,0-.12,0c-.3.05-.54.2-.7.43-.03.04-.05.08-.07.12-.1-.05-.22-.08-.36-.08-.12,0-.25.03-.37.08-.23.11-.39.28-.46.52-.02.07-.03.15-.03.22-.12-.03-.23-.05-.35-.05-.42,0-.73.26-.85.7-.18.7.49,1.45,2.02,2.21-.5.91-.47,2.04.09,2.94l.43.68c.54.85,1.46,1.36,2.47,1.36.05,0,.09,0,.14,0,.02,1.7.39,2.64,1.1,2.78.08.02.16.02.23.02.27,0,.5-.11.66-.31.12-.15.18-.33.22-.52.11.05.23.08.35.08.19,0,.37-.07.52-.2.26-.22.32-.47.32-.64,0,0,0,0,0-.01.34,0,.62-.16.83-.46.12-.17.16-.38.11-.6-.14-.61-1.02-1.29-1.86-1.81.42-.89.37-1.95-.16-2.8l-.43-.68c-.53-.85-1.45-1.36-2.45-1.36-.18-1.74-.61-2.63-1.29-2.63h0Z"/>
        </g>
        <g>
          <path class="cls-9" d="M24.17,16.99c-.08,0-.16-.01-.23-.04-.33-.12-.45-.33-.49-.48-.06-.26.04-.55.18-.79-.06.01-.13.02-.19.02h0c-.31,0-.53-.15-.63-.43-.07-.2-.06-.39.04-.56.04-.07.09-.12.14-.17-.35-.13-.57-.39-.59-.76-.01-.16.04-.31.16-.43.42-.46,1.71-.55,2.55-.56.02-.99.58-1.89,1.46-2.35l.71-.37c.39-.2.82-.31,1.26-.31.54,0,1.06.16,1.51.46.52-.73,1.38-1.78,2.01-1.78.13,0,.25.04.35.12.2.16.3.36.32.59,0,.11,0,.23-.04.33.06-.01.11-.02.17-.02.21,0,.4.1.53.29.11.16.15.34.1.52-.04.15-.13.28-.24.39.37.03.63.15.78.34.13.17.16.39.09.64-.14.51-.83.77-2.03.77-.3,0-.6-.02-.83-.04.04,1.04-.52,2.04-1.46,2.53l-.71.37c-.39.2-.82.31-1.26.31-.6,0-1.18-.2-1.65-.56-.47.82-1.28,1.97-2.01,1.97Z"/>
          <path class="cls-5" d="M32.05,8.61c.08,0,.16.03.23.08.62.51-.09,1.28-.09,1.28,0,0,.34-.34.67-.34.13,0,.27.06.38.21.38.54-.59,1-.59,1,0,0,.16-.02.37-.02.44,0,1.11.1.93.75-.14.51-1.04.63-1.85.63-.4,0-.78-.03-1.04-.05.13,1.02-.37,2.07-1.34,2.57l-.71.37c-.37.2-.77.29-1.17.29-.63,0-1.24-.23-1.71-.66-.35.62-1.23,2.07-1.95,2.07-.06,0-.11,0-.17-.03-.94-.33.14-1.48.14-1.48,0,0-.37.22-.71.22-.19,0-.37-.07-.45-.3-.22-.62.7-.78.7-.78,0,0-.07,0-.18,0-.3,0-.88-.08-.93-.67-.06-.73,2-.79,2.7-.79h.02c-.05-.96.45-1.9,1.36-2.37l.71-.37c.37-.2.77-.29,1.17-.29.56,0,1.11.19,1.55.53.34-.49,1.34-1.86,1.97-1.86M32.05,8.23h0c-.54,0-1.23.58-2.06,1.72-.44-.25-.95-.39-1.46-.39-.46,0-.93.11-1.34.33l-.71.37c-.89.46-1.47,1.35-1.55,2.34-.98.03-2.09.16-2.51.62-.15.16-.22.36-.21.57.03.36.2.63.48.81,0,0,0,0,0,.01-.09.15-.17.4-.05.72.11.32.36.51.7.55-.08.2-.11.43-.06.64.05.2.2.47.61.61.09.03.19.05.29.05.62,0,1.31-.64,2.07-1.89.47.31,1.02.47,1.59.47.46,0,.93-.11,1.34-.33l.71-.37c.94-.49,1.53-1.46,1.56-2.49.19.01.41.02.64.02,1.32,0,2.05-.3,2.22-.9.11-.39,0-.66-.12-.81-.13-.17-.33-.29-.59-.36.04-.06.06-.13.08-.21.06-.23.02-.47-.13-.68-.16-.22-.38-.35-.63-.37,0-.04,0-.09,0-.14-.02-.28-.15-.53-.39-.72-.13-.11-.3-.17-.47-.17h0Z"/>
        </g>
        <g id="SVGID-3" data-name="SVGID">
          <ellipse class="cls-1" cx="35.52" cy="9.47" rx="21.35" ry="5.04"/>
        </g>
        <g>
          <path class="cls-7" d="M39.07,18.32c-.26,0-.39-.12-.45-.23-.13-.21-.1-.55-.02-.86-.28.23-.6.43-.87.43-.17,0-.46-.08-.51-.6-.04-.4.06-.75.27-1.04h0c-.23,0-.41-.06-.52-.18-.11-.11-.15-.26-.14-.45.02-.29.2-.77,1.18-.86-.12-.27-.1-.58.05-.84l4.27-7.37c.17-.29.48-.47.82-.47.02,0,.04,0,.06,0-.17-.37-.29-.84-.16-1.29.12-.4.41-.71.88-.93.27-.13.49-.19.67-.19.26,0,.39.12.45.23.13.21.1.55.02.86.28-.23.6-.43.87-.43.17,0,.46.08.51.6.04.4-.06.75-.27,1.04h0c.23,0,.41.06.52.18.11.11.15.27.14.45-.03.48-.42.77-1.12.85.11.11.2.26.24.42.07.24.03.5-.09.72l-4.27,7.37c-.17.29-.48.47-.82.47h0c-.07,0-.15,0-.22-.03.11.33.17.71.05,1.07-.12.38-.41.68-.86.89-.27.13-.49.19-.67.19Z"/>
          <path class="cls-5" d="M44.56,3.62c.8,0,.01,1.62.01,1.62,0,0,.85-.96,1.34-.96.17,0,.3.12.33.43.07.77-.4,1.16-.76,1.35.21-.07.47-.13.69-.13.28,0,.5.1.48.44-.03.61-.85.7-1.37.7-.06,0-.11,0-.16,0l.3.18c.36.21.48.67.28,1.03l-4.27,7.37c-.14.24-.39.38-.65.38-.13,0-.26-.03-.38-.1l-.22-.13c.32.58.66,1.63-.52,2.18-.25.12-.44.17-.59.17-.8,0-.01-1.62-.01-1.62,0,0-.85.96-1.34.96-.17,0-.3-.12-.33-.43-.07-.77.4-1.16.76-1.35-.21.07-.47.13-.69.13-.28,0-.5-.1-.48-.44.03-.59.82-.7,1.34-.7-.24-.24-.31-.61-.13-.92l4.27-7.37c.14-.24.39-.38.65-.38.13,0,.26.03.38.1l.08.05c-.32-.5-.94-1.76.4-2.39.25-.12.44-.17.59-.17M44.56,3.24h0c-.21,0-.45.07-.75.21-.52.24-.85.59-.98,1.05-.12.4-.05.82.07,1.17-.32.06-.61.26-.77.55l-4.27,7.37c-.14.24-.18.52-.13.78-.92.16-1.11.68-1.12,1.01-.02.3.1.49.19.59.09.1.21.17.35.21-.13.27-.18.57-.14.91.07.72.55.77.7.77.2,0,.41-.09.61-.21,0,.2.02.4.12.55.13.21.35.32.61.32.21,0,.45-.07.75-.21.5-.23.82-.57.96-1,.1-.31.09-.63.03-.92.39-.01.75-.23.94-.56l4.27-7.37c.2-.35.2-.76.02-1.09.79-.19.96-.67.98-.98.02-.3-.1-.49-.19-.59-.09-.1-.21-.17-.35-.21.13-.27.18-.57.14-.91-.07-.72-.55-.77-.7-.77h0c-.2,0-.41.09-.61.21,0-.2-.02-.4-.12-.55-.13-.21-.35-.32-.61-.32h0Z"/>
        </g>
        <g>
          <path class="cls-7" d="M22.68,16.4c-.14,0-.29-.06-.46-.19-.32-.25-.51-.56-.57-.91-.16.17-.33.26-.5.26-.15,0-.3-.07-.43-.21-.2-.21-.42-.67.18-1.45-.27-.1-.49-.32-.58-.62l-2.44-8.16c-.11-.36,0-.73.26-.96-.38-.13-.81-.36-1.05-.77-.21-.36-.24-.79-.07-1.27.06-.2.26-.79.7-.79.29,0,.54.28.74.58.02-.36.1-.73.28-.93.09-.1.21-.16.34-.16.14,0,.29.06.46.19.32.25.51.56.57.91.16-.17.33-.26.5-.26.15,0,.3.07.43.21.33.34.27.84-.14,1.4h.02c.41,0,.78.28.9.67l2.44,8.16c.07.24.05.5-.07.72-.08.14-.18.26-.31.34.32.15.63.37.81.7.19.35.21.76.05,1.23-.06.2-.26.79-.7.79h0c-.29,0-.54-.28-.74-.58-.02.36-.1.73-.28.93-.09.1-.21.16-.34.16Z"/>
          <path class="cls-5" d="M19.09,1.02c.09,0,.2.05.34.15.61.48.57,1.09.46,1.48.16-.34.43-.79.73-.79.09,0,.19.04.29.15.46.49-.2,1.25-.54,1.59l.34-.1c.07-.02.14-.03.22-.03.32,0,.62.21.72.54l2.44,8.16c.12.4-.11.82-.51.94l-.24.07c.64.17,1.64.64,1.23,1.87-.16.49-.34.66-.52.66-.48,0-.94-1.22-.94-1.22,0,0,.15,1.72-.42,1.72-.09,0-.2-.05-.34-.15-.61-.48-.57-1.09-.46-1.48-.16.34-.43.79-.73.79-.09,0-.19-.04-.29-.15-.41-.43.06-1.08.41-1.45-.01,0-.02,0-.04,0-.32,0-.62-.21-.72-.54l-2.44-8.16c-.12-.4.11-.82.51-.94l.09-.03c-.58-.11-1.92-.52-1.46-1.92.16-.49.34-.66.52-.66.48,0,.94,1.22.94,1.22,0,0-.15-1.72.42-1.72M19.09.64h0c-.18,0-.35.08-.48.22-.13.14-.21.35-.26.58-.18-.18-.38-.3-.61-.3-.58,0-.81.7-.88.92-.18.54-.15,1.02.09,1.43.21.36.56.6.9.75-.02.02-.03.05-.04.08-.14.27-.18.57-.09.86l2.44,8.16c.08.27.25.49.48.63-.52.78-.26,1.27-.04,1.51.21.22.42.27.57.27s.27-.04.39-.12c.11.27.3.52.56.73.2.15.39.23.57.23s.35-.08.48-.22c.13-.14.21-.35.26-.58.18.18.38.3.61.3.58,0,.81-.7.88-.92.17-.52.15-.99-.07-1.38-.16-.29-.39-.5-.65-.65.06-.06.11-.14.15-.21.14-.27.18-.57.09-.86l-2.44-8.16c-.11-.38-.41-.66-.78-.77.42-.74.14-1.19-.04-1.38-.21-.22-.42-.27-.57-.27s-.27.04-.39.12c-.11-.27-.3-.52-.56-.73-.2-.15-.39-.23-.57-.23h0Z"/>
        </g>
        <g>
          <path class="cls-11" d="M20.43,15.43c-.2,0-.82,0-.97-.41-.1-.28.09-.61.32-.9-.21.05-.43.09-.62.09-.26,0-.44-.07-.55-.22-.11-.15-.11-.36-.02-.61.14-.38.37-.66.68-.83-.18-.08-.3-.19-.37-.32-.06-.11-.1-.3.03-.55.1-.19.32-.41.76-.41.2,0,.43.04.68.13,0-.29.15-.57.4-.74l6.99-4.87c.16-.11.35-.17.54-.17.16,0,.32.04.46.12,0-.41.09-.89.4-1.24.27-.31.67-.47,1.19-.47.21,0,.83,0,.97.41.1.28-.09.61-.32.9.21-.05.43-.09.62-.09.26,0,.44.07.55.22.11.15.11.36.02.61-.14.38-.37.66-.68.83.18.08.3.19.37.32.06.11.1.3-.03.55-.1.19-.32.41-.76.41-.2,0-.41-.05-.62-.11.05.15.07.32.04.48-.04.25-.18.46-.39.61l-6.99,4.87c-.16.11-.35.17-.54.17h0c-.22,0-.42-.07-.59-.21-.04.35-.15.72-.41.99-.27.29-.66.44-1.16.44h0Z"/>
          <path class="cls-5" d="M30.35,4.23c1.86,0-.07,1.56-.07,1.56,0,0,.81-.35,1.34-.35.33,0,.55.14.39.58-.26.73-.86.88-1.26.9.49.06,1.21.24.93.77-.13.23-.35.31-.59.31-.38,0-.83-.2-1.09-.33l.2.29c.24.34.15.81-.19,1.05l-6.99,4.87c-.13.09-.28.14-.43.14-.24,0-.47-.11-.62-.32l-.15-.21c.04.66-.09,1.76-1.39,1.76h0c-1.86,0,.07-1.56.07-1.56,0,0-.81.35-1.34.35-.33,0-.55-.14-.39-.58.26-.73.86-.88,1.26-.9-.49-.06-1.21-.24-.93-.77.13-.23.35-.31.59-.31.31,0,.66.13.92.25-.12-.32-.02-.69.27-.89l6.99-4.87c.13-.09.28-.14.43-.14.24,0,.47.11.62.32l.06.08c-.08-.59-.11-1.99,1.37-1.99h0M30.35,3.85h0c-.57,0-1.02.18-1.33.53-.28.32-.39.72-.43,1.09-.09-.02-.19-.04-.29-.04-.23,0-.46.07-.65.2l-6.99,4.87c-.23.16-.39.39-.45.65-.19-.05-.36-.08-.52-.08-.42,0-.74.18-.92.51-.17.32-.11.57-.03.72.05.09.11.17.19.24-.23.19-.4.44-.52.76-.11.32-.1.58.04.78.14.2.38.3.7.3.07,0,.14,0,.21-.01-.12.23-.17.47-.09.69.19.54.91.54,1.15.54.55,0,.99-.17,1.3-.5.22-.24.35-.53.42-.82.14.06.29.09.45.09.23,0,.46-.07.65-.2l6.99-4.87c.33-.23.5-.61.48-.98.13.03.25.04.38.04.42,0,.75-.18.92-.51.17-.32.11-.57.03-.72-.05-.09-.11-.17-.19-.24.23-.19.4-.44.52-.76.11-.32.1-.58-.04-.78-.14-.2-.38-.3-.7-.3-.07,0-.14,0-.21.01.12-.23.17-.47.09-.69-.19-.54-.91-.54-1.15-.54h0Z"/>
        </g>
        <g>
          <path class="cls-9" d="M41.21,15.86c-.08,0-.16-.01-.23-.04-.33-.12-.45-.33-.49-.48-.06-.26.04-.55.18-.79-.06.01-.13.02-.19.02-.31,0-.53-.15-.63-.43-.07-.2-.06-.39.04-.56.04-.07.09-.12.14-.17-.35-.12-.57-.39-.59-.76-.01-.16.04-.31.16-.43.42-.46,1.71-.55,2.55-.56.02-.99.58-1.89,1.46-2.35l.71-.37c.39-.2.82-.31,1.26-.31.54,0,1.06.16,1.51.46.52-.73,1.38-1.78,2.01-1.78.13,0,.25.04.35.12.2.16.3.36.32.59,0,.11,0,.23-.04.33.06-.01.11-.02.17-.02.21,0,.4.1.53.29.11.16.15.34.1.52-.04.15-.13.28-.24.39.37.03.63.15.78.34.13.17.16.39.09.64-.14.51-.83.77-2.03.77-.3,0-.6-.02-.83-.04.04,1.04-.52,2.04-1.46,2.53l-.71.37c-.39.2-.82.31-1.26.31-.6,0-1.18-.2-1.65-.56-.47.82-1.28,1.97-2.01,1.97Z"/>
          <path class="cls-5" d="M49.09,7.49c.08,0,.16.03.23.08.62.51-.09,1.28-.09,1.28,0,0,.34-.34.67-.34.13,0,.27.06.38.21.38.54-.59,1-.59,1,0,0,.16-.02.37-.02.44,0,1.11.1.93.75-.14.51-1.04.63-1.85.63-.4,0-.78-.03-1.04-.05.13,1.02-.37,2.07-1.34,2.57l-.71.37c-.37.2-.77.29-1.17.29-.63,0-1.24-.23-1.71-.66-.35.62-1.23,2.07-1.95,2.07-.06,0-.11,0-.17-.03-.94-.33.14-1.48.14-1.48,0,0-.37.22-.71.22-.19,0-.37-.07-.45-.3-.22-.62.7-.78.7-.78,0,0-.07,0-.18,0-.3,0-.88-.08-.93-.67-.06-.73,2-.79,2.7-.79h.02c-.05-.96.45-1.9,1.36-2.37l.71-.37c.37-.2.77-.29,1.17-.29.56,0,1.11.19,1.55.53.34-.49,1.34-1.86,1.97-1.86M49.09,7.11h0c-.54,0-1.23.58-2.06,1.72-.44-.25-.95-.39-1.46-.39-.46,0-.93.11-1.34.33l-.71.37c-.89.46-1.47,1.35-1.55,2.34-.98.03-2.09.16-2.51.62-.15.16-.22.36-.21.57.03.36.2.63.48.81,0,0,0,0,0,.01-.09.15-.17.4-.05.72.11.32.36.51.7.55-.08.2-.11.43-.06.64.05.2.2.47.61.61.09.03.19.05.29.05.62,0,1.31-.64,2.07-1.89.47.31,1.02.47,1.59.47.46,0,.93-.11,1.34-.33l.71-.37c.94-.49,1.53-1.46,1.56-2.49.19.01.41.02.64.02,1.32,0,2.05-.3,2.22-.9.11-.39,0-.66-.12-.81-.13-.17-.33-.29-.59-.36.04-.06.06-.13.08-.21.06-.23.02-.47-.13-.68-.16-.22-.38-.35-.63-.37,0-.04,0-.09,0-.14-.02-.28-.15-.53-.39-.72-.13-.11-.3-.17-.47-.17h0Z"/>
        </g>
        <g>
          <path class="cls-8" d="M20.37,11.95c-.06,0-.12-.03-.15-.08-.06-.09-.04-.2.05-.26l8.14-5.68c.09-.06.2-.04.26.05s.04.2-.05.26l-8.14,5.68s-.07.03-.11.03Z"/>
          <path class="cls-8" d="M21.23,13.02c-.06,0-.12-.03-.15-.08-.06-.09-.04-.2.05-.26l8.14-5.68c.09-.06.2-.04.26.05s.04.2-.05.26l-8.14,5.68s-.07.03-.11.03Z"/>
          <path class="cls-8" d="M21.99,14.1c-.06,0-.12-.03-.15-.08-.06-.09-.04-.2.05-.26l8.14-5.68c.09-.06.2-.04.26.05s.04.2-.05.26l-8.14,5.68s-.07.03-.11.03Z"/>
        </g>
        <g>
          <path class="cls-11" d="M47.66,15.32c-.39,0-.64-.12-.74-.35-.11-.26.04-.61.24-.91-.25.09-.51.17-.73.17s-.36-.06-.46-.19c-.11-.14-.13-.34-.07-.59.1-.39.3-.69.6-.9-.19-.06-.32-.16-.4-.28-.07-.11-.13-.29-.02-.55.09-.23.32-.5.86-.5.16,0,.34.02.54.07-.02-.29.09-.58.32-.78l6.45-5.57c.17-.15.39-.23.62-.23.13,0,.25.03.37.08-.04-.4,0-.89.27-1.27.24-.34.62-.54,1.13-.59.1-.01.2-.02.28-.02.39,0,.64.12.74.35.11.26-.04.61-.24.91.25-.09.51-.17.73-.17s.36.06.46.19c.11.14.13.34.07.59-.1.39-.3.69-.6.9.19.06.32.16.4.28.07.11.13.29.02.55-.09.23-.32.5-.86.5-.16,0-.32-.02-.47-.06.07.15.1.31.09.47-.02.25-.13.48-.32.64l-6.45,5.57c-.17.15-.39.23-.62.23h0c-.18,0-.36-.05-.51-.15,0,.35-.08.73-.31,1.03-.24.32-.61.5-1.1.55-.1.01-.2.02-.28.02Z"/>
          <path class="cls-5" d="M56.92,3.12c1.41,0-.17,1.58-.17,1.58,0,0,.88-.49,1.4-.49.27,0,.44.13.34.54-.18.75-.76.97-1.16,1.02.49,0,1.23.11,1,.67-.12.29-.39.38-.69.38-.35,0-.74-.13-.98-.22l.23.27c.27.32.24.79-.08,1.06l-6.45,5.57c-.14.12-.32.18-.49.18-.21,0-.42-.09-.57-.26l-.17-.19c.11.65.09,1.76-1.2,1.89-.1.01-.18.02-.26.02-1.41,0,.17-1.58.17-1.58,0,0-.88.49-1.4.49-.27,0-.44-.13-.34-.54.18-.75.76-.97,1.16-1.02-.49,0-1.23-.11-1-.67.12-.29.39-.38.69-.38.27,0,.57.08.81.16-.15-.3-.09-.68.18-.91l6.45-5.57c.14-.12.32-.18.49-.18.21,0,.42.09.57.26l.06.07c-.14-.58-.31-1.97,1.16-2.12.1-.01.18-.02.26-.02M56.92,2.74h0c-.09,0-.19,0-.3.02-.57.06-.99.28-1.27.67-.24.34-.32.75-.32,1.13-.06,0-.11-.01-.17-.01-.27,0-.53.1-.74.28l-6.45,5.57c-.21.18-.34.43-.38.69-.13-.02-.25-.03-.36-.03-.68,0-.94.38-1.04.61-.14.33-.05.58.04.72.05.08.13.15.21.22-.21.21-.35.48-.43.81-.08.31-.04.56.1.75.09.12.27.26.61.26.11,0,.23-.02.35-.04-.09.23-.12.46-.03.67.09.21.32.46.91.46.09,0,.19,0,.3-.02.55-.06.96-.27,1.23-.63.2-.26.29-.56.33-.86.11.03.22.05.34.05.27,0,.53-.1.74-.28l6.45-5.57c.3-.26.43-.66.38-1.03.07,0,.14.01.21.01.68,0,.94-.38,1.04-.61.14-.33.05-.58-.04-.72-.05-.08-.13-.15-.21-.22.21-.21.35-.48.43-.81.08-.31.04-.56-.1-.75-.09-.12-.27-.26-.61-.26-.11,0-.23.02-.35.04.09-.23.12-.46.03-.67-.09-.21-.32-.46-.91-.46h0Z"/>
        </g>
        <g>
          <path class="cls-9" d="M21.15,16.2c-.11,0-.23-.03-.36-.09-.37-.16-.63-.42-.77-.74-.14.26-.32.38-.54.38-.11,0-.23-.04-.35-.11-.4-.25-.46-.75-.2-1.39-.08.02-.16.03-.25.03h0c-.33,0-.64-.18-.81-.46l-4.34-7.33c-.22-.37-.16-.82.12-1.12-.34-.07-.7-.2-.96-.49-.27-.29-.39-.69-.35-1.19.05-.63.25-.96.61-.96.25,0,.51.19.74.4-.07-.38-.08-.79.08-1.02.09-.13.22-.19.39-.19.11,0,.23.03.36.09.37.16.63.42.78.74.14-.26.32-.38.54-.38.11,0,.23.04.35.11.25.16.57.55.17,1.45.29.03.56.2.71.46l4.34,7.33c.19.32.17.71-.02,1,.42.04.9.17,1.23.52.27.29.39.7.36,1.19-.05.63-.25.96-.61.96-.25,0-.51-.19-.74-.4.07.38.08.79-.08,1.02-.09.13-.22.19-.39.19Z"/>
          <path class="cls-5" d="M14.16,2.12c.08,0,.17.02.29.07.71.31.82.92.8,1.32.08-.4.25-.95.59-.95.07,0,.15.03.24.08.5.32.21,1.06-.04,1.51.07-.02.15-.03.22-.03.26,0,.51.13.65.37l4.34,7.33c.21.36.09.82-.27,1.03l-.08.05c.06,0,.12,0,.19,0,.66,0,1.79.19,1.69,1.52-.04.58-.21.78-.42.78-.46,0-1.13-.97-1.13-.97,0,0,.62,1.78-.07,1.78-.08,0-.17-.02-.29-.07-.71-.31-.82-.92-.8-1.32-.08.4-.25.95-.59.95-.07,0-.15-.03-.24-.08-.57-.36-.11-1.26.14-1.67l-.3.18c-.12.07-.25.11-.38.11-.26,0-.51-.13-.65-.37l-4.34-7.33c-.21-.36-.09-.82.27-1.03l.22-.13c-.66,0-1.74-.22-1.65-1.52.04-.58.21-.78.42-.78.46,0,1.13.97,1.13.97,0,0-.62-1.78.07-1.78M14.16,1.74h0c-.22,0-.41.1-.54.27-.13.18-.17.43-.16.71-.16-.1-.34-.17-.5-.17-.33,0-.73.2-.8,1.13-.04.55.09.99.4,1.33.22.24.5.39.79.48-.04.08-.07.16-.09.24-.08.29-.03.6.12.86l4.34,7.33c.2.33.56.54.94.55-.23.82.16,1.19.37,1.33.15.09.3.14.45.14.2,0,.37-.08.52-.23.17.24.41.43.72.57.16.07.3.11.44.11.22,0,.41-.1.54-.27.13-.18.17-.43.16-.71.16.1.34.17.5.17.33,0,.73-.2.8-1.13.04-.55-.1-1-.41-1.33-.3-.32-.7-.47-1.09-.54.1-.3.08-.65-.1-.94l-4.34-7.33c-.14-.24-.36-.41-.62-.5.31-.88-.05-1.3-.33-1.47-.15-.09-.3-.14-.45-.14-.2,0-.37.08-.52.23-.17-.24-.41-.43-.72-.57-.16-.07-.3-.11-.44-.11h0Z"/>
        </g>
        <g>
          <path class="cls-8" d="M47.88,11.56c-.05,0-.11-.02-.14-.07-.07-.08-.06-.2.02-.27l7.01-6c.08-.07.2-.06.27.02.07.08.06.2-.02.27l-7.01,6s-.08.05-.12.05Z"/>
          <path class="cls-8" d="M48.84,12.54c-.05,0-.11-.02-.14-.07-.07-.08-.06-.2.02-.27l7.01-6c.08-.07.2-.06.27.02s.06.2-.02.27l-7.01,6s-.08.05-.12.05Z"/>
          <path class="cls-8" d="M49.69,13.54c-.05,0-.11-.02-.14-.07-.07-.08-.06-.2.02-.27l7.01-6c.08-.07.2-.06.27.02.07.08.06.2-.02.27l-7.01,6s-.08.05-.12.05Z"/>
        </g>
        <g>
          <path class="cls-13" d="M14.89,8.62s-.07,0-.1-.03c-.09-.06-.11-.17-.06-.26l2.21-3.4c.06-.09.17-.11.26-.06.09.06.11.17.06.26l-2.21,3.4c-.04.06-.1.09-.16.09Z"/>
          <path class="cls-13" d="M15.89,10.53s-.07,0-.1-.03c-.09-.06-.11-.17-.06-.26l2.43-3.74c.06-.09.17-.11.26-.06.09.06.11.17.06.26l-2.43,3.74c-.04.06-.1.09-.16.09Z"/>
          <path class="cls-13" d="M16.92,12.31s-.07,0-.1-.03c-.09-.06-.11-.17-.06-.26l2.39-3.68c.06-.09.17-.11.26-.06.09.06.11.17.06.26l-2.39,3.68c-.04.06-.1.09-.16.09Z"/>
          <path class="cls-13" d="M17.97,14.11s-.07,0-.1-.03c-.09-.06-.11-.17-.06-.26l2.46-3.78c.06-.09.17-.11.26-.06.09.06.11.17.06.26l-2.46,3.78c-.04.06-.1.09-.16.09Z"/>
        </g>
        <g>
          <circle class="cls-2" cx="24" cy="14.92" r=".21"/>
          <circle class="cls-2" cx="19.89" cy="8.71" r=".21"/>
          <circle class="cls-2" cx="22.68" cy="15.45" r=".21"/>
          <circle class="cls-2" cx="21.27" cy="5.54" r=".21"/>
          <circle class="cls-2" cx="19.04" cy="4.8" r=".21"/>
          <circle class="cls-2" cx="19.76" cy="3.17" r=".21"/>
          <circle class="cls-2" cx="19.97" cy="6.58" r=".59"/>
          <circle class="cls-2" cx="21.48" cy="8.23" r=".59"/>
        </g>
        <g>
          <circle class="cls-2" cx="38.51" cy="16.07" r=".21"/>
          <circle class="cls-2" cx="42.2" cy="9.26" r=".21"/>
          <circle class="cls-2" cx="39.62" cy="17.18" r=".21"/>
          <circle class="cls-2" cx="45.02" cy="7.71" r=".21"/>
          <circle class="cls-2" cx="43.87" cy="5.8" r=".21"/>
          <circle class="cls-2" cx="45.72" cy="5.1" r=".21"/>
          <circle class="cls-2" cx="42.94" cy="7.58" r=".59"/>
          <circle class="cls-2" cx="40.96" cy="10.57" r=".59"/>
        </g>
      </g>
      <path class="cls-14" d="M57.75,8.96c-.51,2.83-10.38,5.09-22.5,5.09s-21.34-2.11-22.42-4.81C6.08,12.4,1.27,20.54,1.27,30.08c0,12.29,7.97,22.25,17.8,22.25,3.24,0,6.28-1.09,8.9-2.98,2.62,1.89,5.66,2.98,8.9,2.98,2.73,0,5.32-.77,7.63-2.14,2.31,1.37,4.9,2.14,7.63,2.14,9.83,0,17.8-9.96,17.8-22.25,0-9.84-5.11-18.18-12.19-21.12Z"/>
      <path class="cls-3" d="M2.35,30.23s5.74,8.93,10.33,7.84c4.59-1.09,6.28-5.75,6.28-5.75,0,0,10.28,10.1,18.63,10.1s16.5-7.03,16.5-7.03c0,0,1.67,4.7,5.25,5.16,3.58.47,8.59-4.28,8.59-4.28,0,0-3.84,17.97-19.91,14.4-10.58-2.35-3.87,3.5-12.45,1.11-8.24-2.3-8.74-4.24-8.74-4.24,0,0,.94,2.97-7.65,3.75-4.94.45-11.73-3.33-14.9-11.43-2.29-5.85-1.95-9.64-1.95-9.64Z"/>
      <path class="cls-12" d="M53.12,30.08c0,11.62-7.46,21.07-16.62,21.07s-16.61-9.45-16.61-21.07c0-6.67,2.46-12.61,6.28-16.48-.99-.1-1.95-.22-2.86-.36-3.57,4.26-5.8,10.23-5.8,16.84,0,12.93,8.52,23.44,18.99,23.44s18.99-10.52,18.99-23.44c0-6.79-2.36-12.92-6.11-17.21-.89.17-1.83.32-2.82.46,3.98,3.85,6.55,9.92,6.55,16.75Z"/>
      <g>
        <path class="cls-6" d="M14.31,21.7l6.78-7.52c.45-.5,1.27-.36,1.53.26l3.88,9.1c.28.66-.27,1.38-.98,1.27l-5.37-.79-5.3-.78c-.73-.11-1.04-.98-.55-1.53Z"/>
        <path class="cls-6" d="M56.74,21.7l-6.78-7.52c-.45-.5-1.27-.36-1.53.26l-3.88,9.1c-.28.66.27,1.38.98,1.27l5.37-.79,5.3-.78c.73-.11,1.04-.98.55-1.53Z"/>
        <polygon class="cls-10" points="22.58 14.91 15.42 23.17 14.15 22.83 14.07 22.07 21.81 13.78 22.58 13.78 22.58 14.91"/>
        <polygon class="cls-10" points="49.92 14.53 45.93 24.71 44.62 24.81 44.29 24.12 48.83 13.72 49.55 13.47 49.92 14.53"/>
        <path class="cls-4" d="M45.38,25.45c-.48,0-.92-.22-1.22-.61-.35-.45-.42-1.04-.2-1.56l3.88-9.1c.21-.49.65-.84,1.17-.92.53-.09,1.06.1,1.41.49l6.78,7.53c.38.43.5,1.03.31,1.57-.19.54-.67.93-1.24,1.01l-10.66,1.58c-.08.01-.16.02-.24.02ZM49.27,14.5s-.04,0-.05,0c-.06,0-.16.04-.21.17l-3.88,9.1c-.06.13,0,.24.04.29.04.05.13.13.27.11l10.66-1.58c.15-.02.2-.13.23-.18.02-.06.04-.18-.06-.29l-6.78-7.52c-.07-.08-.15-.09-.21-.09Z"/>
        <path class="cls-6" d="M38.48,30.16l-2.99-4.55c-.2-.3-.64-.3-.83.01l-2.81,4.52c-.2.33.03.75.42.76l2.92.02,2.88.02c.39,0,.63-.44.42-.77Z"/>
        <polygon class="cls-10" points="35.77 26.12 33.1 30.84 32.31 30.78 32.18 30.33 35.19 25.53 35.65 25.45 35.77 26.12"/>
        <path class="cls-4" d="M38.07,31.56h0l-5.8-.03c-.41,0-.79-.23-.98-.58s-.19-.8.03-1.14l2.81-4.52c.2-.33.56-.53.95-.53.41.02.75.19.96.51l2.99,4.55c.23.35.25.79.05,1.16-.2.36-.58.59-.99.59ZM37.95,30.51s0,0,0,0h0ZM32.53,30.26l5.28.03-2.72-4.15-2.56,4.12Z"/>
        <path class="cls-6" d="M52.93,35.12c.09-1.09-.18-2-.73-2.57,0,0-1.74-1.27-3.51.13-.1.08-.43.47-.79.91-.58.71-.97,1.55-1.27,2.42-.33.96-1.12,2.17-2.16,2.77-.96.32-2.48.53-3.1-1.02-.84-2.12-1.05-1.55-4.52-1.44-.48,0-1.06,0-1.77.01-.71,0-1.29,0-1.77-.01-3.48-.1-3.68-.67-4.52,1.44-.61,1.55-2.14,1.33-3.1,1.02-1.04-.6-1.83-1.81-2.16-2.77-.3-.87-.69-1.7-1.27-2.42-.36-.44-.69-.83-.79-.91-1.77-1.4-3.51-.13-3.51-.13-.55.57-.82,1.49-.73,2.57-.26,3.44,2.34,9.59,16.52,9.99.39.01.79.02,1.2.02.04,0,.08,0,.12,0,.04,0,.08,0,.12,0,.41,0,.81-.01,1.2-.02,14.18-.39,16.78-6.55,16.52-9.99Z"/>
        <path class="cls-4" d="M35.21,45.76l-.18-.64v.64c-.5,0-.88,0-1.28-.02-7.2-.2-12.27-1.86-15.04-4.94-2.03-2.25-2.18-4.55-2.09-5.73-.1-1.17.22-2.26.91-2.97.82-.61,2.66-1.27,4.36.08.07.05.19.15.89,1.01.56.69,1,1.52,1.38,2.61.28.82.95,1.87,1.82,2.39,1.76.56,2.12-.37,2.25-.67.81-2.03,1.42-2.07,3.41-1.94.46.03,1.03.07,1.72.09h1.75s1.76,0,1.76,0c.68-.02,1.25-.06,1.71-.09,2-.14,2.6-.09,3.41,1.94.12.3.48,1.22,2.24.67.87-.53,1.54-1.58,1.82-2.39.38-1.09.82-1.92,1.38-2.61.65-.79.79-.93.89-1.01,1.7-1.35,3.54-.68,4.28-.15.76.77,1.08,1.84.99,3.09.08,1.19-.09,3.46-2.09,5.68-2.78,3.08-7.84,4.74-15.05,4.94-.4.01-.8.02-1.22.02ZM19.67,32.65c-.74,0-1.29.38-1.33.41-.34.36-.54,1.12-.47,2-.07,1.07.06,2.98,1.77,4.88,1.74,1.93,5.61,4.29,14.14,4.52.39.01.78.02,1.18.02h.2c.43,0,.84-.01,1.23-.02,8.53-.24,12.4-2.59,14.14-4.52,1.71-1.9,1.84-3.81,1.76-4.78v-.05s0-.05,0-.05c.07-.89-.13-1.64-.55-2.08h0s-1.33-.87-2.66.19c-.02.02-.15.15-.69.81-.47.57-.84,1.28-1.16,2.22-.34.98-1.18,2.38-2.44,3.11l-.12.05c-1.87.62-3.29.11-3.89-1.39-.5-1.25-.5-1.25-2.14-1.14-.48.03-1.06.07-1.78.09h-1.78s-1.78,0-1.78,0c-.73-.02-1.31-.06-1.79-.09q-1.64-.11-2.14,1.14c-.6,1.5-2.02,2-3.89,1.39l-.12-.05c-1.26-.73-2.1-2.13-2.44-3.11-.33-.94-.7-1.65-1.16-2.22-.56-.69-.69-.81-.7-.82-.49-.39-.97-.51-1.4-.51Z"/>
        <path class="cls-4" d="M25.66,25.45c-.08,0-.16,0-.24-.02l-10.66-1.58c-.57-.08-1.04-.47-1.24-1.01-.19-.54-.08-1.14.31-1.57h0s6.78-7.53,6.78-7.53c.36-.4.88-.58,1.41-.49.53.09.97.43,1.18.92l3.88,9.1c.22.52.15,1.11-.2,1.56-.3.39-.75.61-1.22.61ZM14.78,22.12c-.1.11-.08.23-.06.29.02.06.08.16.23.18l10.66,1.58c.14.02.23-.06.27-.11.04-.05.09-.15.04-.29l-3.88-9.1c-.05-.13-.16-.16-.21-.17-.06-.01-.17,0-.26.09l-6.78,7.52Z"/>
      </g>
      <path class="cls-4" d="M57.89,7.92c7.63,3.05,13.16,11.9,13.16,22.31,0,12.93-8.52,23.44-18.99,23.44-2.64,0-5.2-.67-7.63-1.99-5.28,2.88-11.46,2.58-16.53-.75-2.74,1.8-5.8,2.75-8.9,2.75C8.52,53.67,0,43.16,0,30.23,0,20.11,5.23,11.46,12.53,8.19l1.15,2.08C7.11,13.09,2.37,20.97,2.37,30.23c0,11.62,7.46,21.07,16.62,21.07,2.86,0,5.7-.96,8.2-2.78l.7-.5.7.5c4.64,3.36,10.36,3.67,15.23.77l.61-.36.61.36c2.24,1.33,4.6,2,7.02,2,9.16,0,16.62-9.45,16.62-21.07,0-9.43-4.92-17.44-11.67-20.11l.89-2.2Z"/>
      <g id="SVGID-4" data-name="SVGID">
        <path class="cls-4" d="M35.26,15.25c-11.21,0-23.12-2.07-23.12-5.92h1.19c0,1.97,8.34,4.72,21.93,4.72s21.93-2.75,21.93-4.72h1.19c0,3.84-11.91,5.92-23.12,5.92Z"/>
      </g>
    </g>
  </g>
</svg>