<?xml version="1.0" encoding="UTF-8"?>
<svg id="Layer_2" data-name="Layer 2" xmlns="http://www.w3.org/2000/svg" viewBox="0 0 50.46 79.96">
  <defs>
    <style>
      .cls-1 {
        stroke-width: .1px;
      }

      .cls-1, .cls-2, .cls-3, .cls-4, .cls-5 {
        fill: none;
        stroke: #eee8f6;
        stroke-linecap: round;
        stroke-linejoin: round;
      }

      .cls-2 {
        stroke-width: .06px;
      }

      .cls-3 {
        stroke-width: .04px;
      }

      .cls-4 {
        stroke-width: .08px;
      }

      .cls-6 {
        fill: #eee8f6;
      }

      .cls-7 {
        fill: #480809;
      }

      .cls-5 {
        stroke-width: .24px;
      }
    </style>
  </defs>
  <g id="Layer_1-2" data-name="Layer 1">
    <g>
      <g>
        <g>
          <path class="cls-7" d="M4.38,8.34s-.04.03-.11.1c.05-.08.11-.1.11-.1Z"/>
          <path class="cls-7" d="M.07,16.72c.42-4.59,3.59-7.72,4.21-8.29-.15.22-.26.93,1.19,3.05,1.64,2.4,6.36,1.66,7.79,1.38.01-4.3,1.55-8.52,1.55-8.52l2.49,2.55,2.57-1.14c1.78-.79,3.7-1.24,5.65-1.33l3.11-.14,1.06-3.37s3.15,3.14,4.95,7.02c1.48-.39,5.91-1.8,6.34-4.63.38-2.54-.03-3.13-.26-3.26.81.24,5.02,1.67,7.41,5.62,2.65,4.37,2.32,8.67,2.32,8.67,0,0-.84-2.23-3.92-2.53-3.08-.3-3.95,1.88-3.95,1.88,0,0,.23-2.08-2.03-2.87-1.61-.56-3.96-.88-5.19-1.02,1.4,4.43.35,9.3-9.04,11.47-9.4,2.16-12.37-1.79-12.95-6.41-1.04.66-3.03,1.98-4.24,3.2-1.69,1.7-.57,3.47-.57,3.47,0,0-1.73-1.57-4.37.04-2.64,1.61-2.42,3.99-2.42,3.99,0,0-2.17-3.72-1.7-8.81Z"/>
          <path class="cls-7" d="M40.71.04c-.09-.03-.14-.04-.14-.04,0,0,.06,0,.14.04Z"/>
        </g>
        <g>
          <g>
            <ellipse class="cls-6" cx="27.71" cy="8.66" rx=".77" ry="1.65" transform="translate(-1.24 6.44) rotate(-12.97)"/>
            <ellipse class="cls-6" cx="19.73" cy="10.5" rx=".77" ry="1.65" transform="translate(-1.85 4.7) rotate(-12.97)"/>
          </g>
          <path class="cls-5" d="M22.93,13.15s-.75,1.32.33,1.42c1.08.1,1.37-1.06,1.37-1.06,0,0,.77.92,1.7.36.93-.57-.33-1.42-.33-1.42"/>
        </g>
      </g>
      <g>
        <g>
          <path class="cls-7" d="M37.48,26.55s-.02,0-.05,0c.03,0,.05,0,.05,0Z"/>
          <path class="cls-7" d="M34.58,27.48c1.15-.95,2.58-.94,2.85-.93-.08.02-.27.15-.42.97-.17.92,1.07,1.83,1.46,2.09.98-.98,2.3-1.59,2.3-1.59v1.15s.83.33.83.33c.59.23,1.13.56,1.59.99l.74.68,1.01-.53s0,1.44-.47,2.73c.43.25,1.76.94,2.5.39.67-.49.71-.72.69-.81.13.24.76,1.53.41,2.98-.39,1.6-1.45,2.51-1.45,2.51,0,0,.32-.7-.32-1.47s-1.33-.47-1.33-.47c0,0,.53-.42.19-1.12-.24-.5-.7-1.11-.95-1.42-.69,1.33-2.05,2.2-4.68.55s-2.42-3.23-1.49-4.42c-.39-.09-1.15-.24-1.7-.24-.77,0-.92.66-.92.66,0,0-.04-.75-1.01-.99-.97-.23-1.46.36-1.46.36,0,0,.35-1.34,1.62-2.4Z"/>
          <path class="cls-7" d="M47.67,32.95s-.02-.04-.02-.04c0,0,.01.01.02.04Z"/>
        </g>
        <g>
          <g>
            <ellipse class="cls-6" cx="42.74" cy="31.95" rx=".53" ry=".25" transform="translate(-7.02 51.23) rotate(-57.97)"/>
            <ellipse class="cls-6" cx="40.49" cy="30.55" rx=".53" ry=".25" transform="translate(-6.88 48.68) rotate(-57.97)"/>
          </g>
          <path class="cls-4" d="M40.62,31.89s-.47.13-.25.4.56.07.56.07c0,0-.03.39.31.47s.25-.4.25-.4"/>
        </g>
      </g>
      <g>
        <g>
          <path class="cls-7" d="M9.38,36.46s-.01.02-.04.04c.02-.03.04-.04.04-.04Z"/>
          <path class="cls-7" d="M8.08,40.06c-.07-1.87,1.05-3.3,1.27-3.56-.05.1-.06.39.64,1.17.79.88,2.65.34,3.21.15-.22-1.73.19-3.52.19-3.52l1.14.9.98-.59c.68-.41,1.43-.69,2.21-.83l1.25-.22.25-1.41s1.43,1.11,2.36,2.58c.57-.23,2.29-1.03,2.32-2.19.02-1.05-.17-1.26-.27-1.3.34.06,2.11.42,3.28,1.88,1.29,1.63,1.38,3.37,1.38,3.37,0,0-.45-.86-1.71-.82s-1.5.96-1.5.96c0,0-.01-.85-.97-1.05-.68-.14-1.64-.15-2.14-.15.79,1.72.62,3.73-3.06,5.09-3.68,1.36-5.08-.08-5.55-1.92-.38.32-1.12.96-1.54,1.51-.59.77-.05,1.43-.05,1.43,0,0-.78-.55-1.76.24-.98.79-.77,1.73-.77,1.73,0,0-1.07-1.39-1.14-3.46Z"/>
          <path class="cls-7" d="M23.61,31.24s-.06,0-.06,0c0,0,.02,0,.06,0Z"/>
        </g>
        <g>
          <g>
            <ellipse class="cls-6" cx="18.81" cy="35.39" rx=".31" ry=".67" transform="translate(-11.08 8.69) rotate(-20.24)"/>
            <ellipse class="cls-6" cx="15.69" cy="36.54" rx=".31" ry=".67" transform="translate(-11.67 7.68) rotate(-20.24)"/>
          </g>
          <path class="cls-1" d="M17.11,37.44s-.24.57.21.56.5-.5.5-.5c0,0,.36.33.7.06s-.21-.56-.21-.56"/>
        </g>
      </g>
      <g>
        <g>
          <path class="cls-7" d="M4.51,52.72s0,0-.02,0c.02,0,.02,0,.02,0Z"/>
          <path class="cls-7" d="M3.01,53.42c.55-.59,1.33-.69,1.47-.7-.04.01-.14.1-.16.55-.03.51.7.91.93,1.03.46-.6,1.13-1.02,1.13-1.02l.07.62.48.12c.33.08.65.22.93.42l.45.31.51-.35s.1.77-.07,1.51c.25.1,1.01.39,1.38.04.33-.31.33-.44.31-.48.09.12.52.77.43,1.58-.1.89-.61,1.45-.61,1.45,0,0,.12-.4-.27-.77s-.75-.16-.75-.16c0,0,.26-.26.03-.62-.16-.25-.45-.55-.61-.7-.28.77-.95,1.33-2.49.62-1.54-.71-1.52-1.58-1.11-2.28-.21-.02-.63-.05-.93-.01-.42.06-.45.42-.45.42,0,0-.07-.4-.61-.46-.54-.06-.76.29-.76.29,0,0,.1-.75.71-1.41Z"/>
          <path class="cls-7" d="M10.45,55.47s-.01-.02-.01-.02c0,0,0,0,.01.02Z"/>
        </g>
        <g>
          <g>
            <ellipse class="cls-6" cx="7.72" cy="55.27" rx=".29" ry=".14" transform="translate(-45.71 39.13) rotate(-65.24)"/>
            <ellipse class="cls-6" cx="6.41" cy="54.67" rx=".29" ry=".14" transform="translate(-45.92 37.6) rotate(-65.24)"/>
          </g>
          <path class="cls-3" d="M6.57,55.38s-.25.1-.11.23.3,0,.3,0c0,0,0,.21.2.23s.11-.23.11-.23"/>
        </g>
      </g>
      <g>
        <g>
          <path class="cls-7" d="M26.45,47.59s0,0-.02.03c0-.02.02-.03.02-.03Z"/>
          <path class="cls-7" d="M25.79,49.73c-.09-1.09.52-1.96.64-2.12-.03.06-.02.23.41.66.49.49,1.56.12,1.88,0-.18-1.01,0-2.06,0-2.06l.69.49.55-.37c.38-.26.81-.45,1.27-.55l.72-.16.11-.83s.87.6,1.45,1.44c.33-.15,1.31-.67,1.29-1.35-.02-.61-.14-.73-.2-.75.2.02,1.24.18,1.97,1,.8.91.91,1.93.91,1.93,0,0-.29-.49-1.02-.43s-.85.6-.85.6c0,0-.03-.5-.6-.59-.4-.06-.96-.04-1.26-.02.51.98.47,2.16-1.63,3.06s-2.97.1-3.3-.96c-.22.2-.63.59-.86.93-.32.47.01.84.01.84,0,0-.47-.3-1.02.19-.55.49-.4,1.03-.4,1.03,0,0-.66-.78-.77-1.99Z"/>
          <path class="cls-7" d="M34.6,44.12s-.03,0-.03,0c0,0,.01,0,.03,0Z"/>
        </g>
        <g>
          <g>
            <ellipse class="cls-6" cx="31.92" cy="46.69" rx=".18" ry=".39" transform="translate(-15.77 16.29) rotate(-23.13)"/>
            <ellipse class="cls-6" cx="30.14" cy="47.45" rx=".18" ry=".39" transform="translate(-16.22 15.65) rotate(-23.13)"/>
          </g>
          <path class="cls-2" d="M30.99,47.94s-.12.34.14.32.28-.31.28-.31c0,0,.22.18.41.01s-.14-.32-.14-.32"/>
        </g>
      </g>
      <g>
        <g>
          <path class="cls-7" d="M13.45,75.82s0,0-.02.03c0-.02.02-.03.02-.03Z"/>
          <path class="cls-7" d="M12.79,77.97c-.09-1.09.52-1.96.64-2.12-.03.06-.02.23.41.66.49.49,1.56.12,1.88,0-.18-1.01,0-2.06,0-2.06l.69.49.55-.37c.38-.26.81-.45,1.27-.55l.72-.16.11-.83s.87.6,1.45,1.44c.33-.15,1.31-.67,1.29-1.35-.02-.61-.14-.73-.2-.75.2.02,1.24.18,1.97,1,.8.91.91,1.93.91,1.93,0,0-.29-.49-1.02-.43-.73.06-.85.6-.85.6,0,0-.03-.5-.6-.59-.4-.06-.96-.04-1.26-.02.51.98.47,2.16-1.63,3.06s-2.97.1-3.3-.96c-.22.2-.63.59-.86.93-.32.47.01.84.01.84,0,0-.47-.3-1.02.19-.55.49-.4,1.03-.4,1.03,0,0-.66-.78-.77-1.99Z"/>
          <path class="cls-7" d="M21.6,72.36s-.03,0-.03,0c0,0,.01,0,.03,0Z"/>
        </g>
        <g>
          <g>
            <ellipse class="cls-6" cx="18.92" cy="74.92" rx=".18" ry=".39" transform="translate(-27.91 13.46) rotate(-23.13)"/>
            <ellipse class="cls-6" cx="17.13" cy="75.69" rx=".18" ry=".39" transform="translate(-28.35 12.81) rotate(-23.13)"/>
          </g>
          <path class="cls-2" d="M17.99,76.17s-.12.34.14.32.28-.31.28-.31c0,0,.22.18.41.01s-.14-.32-.14-.32"/>
        </g>
      </g>
      <g>
        <g>
          <path class="cls-7" d="M23.65,63.03s-.01,0-.03,0c.02,0,.03,0,.03,0Z"/>
          <path class="cls-7" d="M21.67,64.08c.71-.84,1.75-1.02,1.95-1.05-.06.02-.18.15-.18.76,0,.69,1.02,1.19,1.33,1.33.59-.84,1.46-1.45,1.46-1.45l.14.84.66.13c.46.09.89.26,1.28.51l.63.4.66-.51s.19,1.04.01,2.04c.34.12,1.4.45,1.87-.04.42-.44.42-.61.39-.67.12.16.75,1.01.68,2.1-.08,1.21-.72,2.01-.72,2.01,0,0,.14-.55-.42-1.03s-1.03-.17-1.03-.17c0,0,.33-.37,0-.84-.24-.33-.65-.71-.87-.9-.33,1.05-1.2,1.86-3.32,1.01-2.13-.85-2.17-2.03-1.66-3.01-.29-.01-.86-.02-1.26.05-.56.1-.58.6-.58.6,0,0-.12-.54-.86-.59-.73-.04-1.01.45-1.01.45,0,0,.08-1.02.86-1.95Z"/>
          <path class="cls-7" d="M31.86,66.34s-.02-.03-.02-.03c0,0,.01,0,.02.03Z"/>
        </g>
        <g>
          <g>
            <ellipse class="cls-6" cx="28.15" cy="66.26" rx=".39" ry=".18" transform="translate(-43.82 67.71) rotate(-68.13)"/>
            <ellipse class="cls-6" cx="26.35" cy="65.53" rx=".39" ry=".18" transform="translate(-44.29 65.57) rotate(-68.13)"/>
          </g>
          <path class="cls-2" d="M26.61,66.49s-.33.15-.13.32.41-.02.41-.02c0,0,.02.28.28.3s.13-.32.13-.32"/>
        </g>
      </g>
    </g>
  </g>
</svg>