<?xml version="1.0" encoding="UTF-8"?>
<svg id="Layer_2" data-name="Layer 2" xmlns="http://www.w3.org/2000/svg" xmlns:xlink="http://www.w3.org/1999/xlink" viewBox="0 0 65.26 51.21">
  <defs>
    <style>
      .cls-1 {
        fill: none;
      }

      .cls-2 {
        fill: #c488ec;
        stroke-width: .99px;
      }

      .cls-2, .cls-3 {
        stroke: #480809;
        stroke-linecap: round;
        stroke-linejoin: round;
      }

      .cls-3 {
        fill: #ff3653;
        stroke-width: .86px;
      }

      .cls-4 {
        clip-path: url(#clippath-1);
      }

      .cls-5 {
        fill: #fff;
      }

      .cls-6 {
        clip-path: url(#clippath);
      }
    </style>
    <clipPath id="clippath">
      <circle id="SVGID" class="cls-1" cx="50.84" cy="16.3" r="8.24"/>
    </clipPath>
    <clipPath id="clippath-1">
      <rect id="SVGID-2" data-name="SVGID" class="cls-1" x="9.45" y="29.98" width="38.42" height="16.01" rx="4.53" ry="4.53" transform="translate(61.41 72.51) rotate(173.52)"/>
    </clipPath>
  </defs>
  <g id="Layer_1-2" data-name="Layer 1">
    <g>
      <g>
        <g>
          <path class="cls-3" d="M51.13,24.91s1.08,6.02-.97,6.84c-2.52,1.01-2.46-2.52-2.22-3.67s.09,3.44-2.41,3.04c-3.94-.64-1.44-4.5-1.44-4.5,0,0-1.63,3.22-4.08,1.26-2.11-1.68.22-4.14.22-4.14,0,0-3.54.69-3.97-1.22-.58-2.59,6.53-3.19,6.53-3.19l8.33,5.57Z"/>
          <path class="cls-3" d="M58.89,13.24s5.97-1.33,5.94-3.54c-.04-2.72-3.28-1.29-4.24-.63s3.21-1.25,1.87-3.4c-2.11-3.39-4.71.41-4.71.41,0,0,2.34-2.74-.41-4.25-2.37-1.3-3.73,1.8-3.73,1.8,0,0-.73-3.53-2.65-3.19-2.61.46-.42,7.26-.42,7.26l8.35,5.54Z"/>
        </g>
        <circle class="cls-3" cx="50.84" cy="16.3" r="8.66"/>
        <g class="cls-6">
          <g>
            <circle class="cls-5" cx="56.75" cy="14.91" r="2.04"/>
            <circle class="cls-5" cx="46.01" cy="12.66" r="2.04"/>
            <circle class="cls-5" cx="48.4" cy="21.19" r="2.04"/>
            <circle class="cls-5" cx="43.36" cy="19.06" r="1.02"/>
            <circle class="cls-5" cx="52.72" cy="9.78" r="1.02"/>
            <circle class="cls-5" cx="54.86" cy="21" r="1.02"/>
            <circle class="cls-5" cx="51.82" cy="15.89" r="1.02"/>
            <circle class="cls-5" cx="56.83" cy="11.12" r="1.02"/>
          </g>
        </g>
      </g>
      <g>
        <g>
          <path class="cls-2" d="M47.29,42.22s5.64,4.3,7.57,2.62c2.38-2.07-1.3-3.87-2.61-4.23s3.5,1.91,4.41-.88c1.43-4.4-3.88-3.87-3.88-3.87,0,0,4.18.03,3.46-3.54-.62-3.07-4.38-1.96-4.38-1.96,0,0,2.59-3.28.84-4.74-2.36-1.97-6.75,5.05-6.75,5.05l1.33,11.54Z"/>
          <path class="cls-2" d="M11.44,46.29s-4.53,5.45-6.79,4.25c-2.78-1.48.4-4.07,1.59-4.71,1.19-.64-2.98,2.65-4.49.13-2.38-3.97,2.92-4.64,2.92-4.64,0,0-4.07.96-4.17-2.67-.09-3.13,3.83-2.89,3.83-2.89,0,0-3.26-2.62-1.88-4.43,1.86-2.45,7.71,3.41,7.71,3.41l1.29,11.55Z"/>
        </g>
        <rect class="cls-2" x="8.97" y="29.5" width="39.38" height="16.98" rx="4.96" ry="4.96" transform="translate(-4.1 3.47) rotate(-6.48)"/>
        <g class="cls-4">
          <g>
            <path class="cls-5" d="M41.89,45.53c.23-.03.41-.21.44-.44l1.71-17.13c.03-.27-.17-.52-.44-.54-.27-.03-.52.17-.54.44l-1.71,17.13c-.03.27.17.52.44.54.04,0,.07,0,.11,0Z"/>
            <path class="cls-5" d="M34.87,46.33c.23-.03.41-.21.44-.44l1.72-17.28c.03-.27-.17-.52-.44-.54-.27-.03-.52.17-.54.44l-1.72,17.28c-.03.27.17.52.44.54.04,0,.07,0,.11,0Z"/>
            <path class="cls-5" d="M27.85,47.12c.23-.03.41-.21.44-.44l1.72-17.28c.03-.27-.17-.52-.44-.54-.27-.03-.52.17-.54.44l-1.72,17.28c-.03.27.17.52.44.54.04,0,.07,0,.11,0Z"/>
            <path class="cls-5" d="M20.83,47.92c.23-.03.41-.21.44-.44l1.72-17.28c.03-.27-.17-.52-.44-.54-.27-.03-.52.17-.54.44l-1.72,17.28c-.03.27.17.52.44.54.04,0,.07,0,.11,0Z"/>
            <path class="cls-5" d="M13.83,48.51c.23-.03.41-.21.44-.44l1.7-17.07c.03-.27-.17-.52-.44-.54-.27-.03-.52.17-.54.44l-1.7,17.07c-.03.27.17.52.44.54.04,0,.07,0,.11,0Z"/>
          </g>
        </g>
      </g>
    </g>
  </g>
</svg>