<?xml version="1.0" encoding="UTF-8"?>
<svg id="Layer_2" data-name="Layer 2" xmlns="http://www.w3.org/2000/svg" xmlns:xlink="http://www.w3.org/1999/xlink" viewBox="0 0 59.38 88.69">
  <defs>
    <style>
      .cls-1 {
        stroke-width: 1px;
      }

      .cls-1, .cls-2, .cls-3, .cls-4 {
        fill: none;
      }

      .cls-1, .cls-3 {
        stroke: #480809;
      }

      .cls-1, .cls-3, .cls-4 {
        stroke-linecap: round;
        stroke-linejoin: round;
      }

      .cls-3 {
        stroke-width: .72px;
      }

      .cls-5 {
        fill: #eee8f6;
      }

      .cls-6 {
        fill: #480809;
      }

      .cls-7 {
        clip-path: url(#clippath-1);
      }

      .cls-4 {
        stroke: #eee8f6;
        stroke-width: .14px;
      }

      .cls-8 {
        clip-path: url(#clippath);
      }
    </style>
    <clipPath id="clippath">
      <rect class="cls-2" width="59.38" height="88.69"/>
    </clipPath>
    <clipPath id="clippath-1">
      <rect class="cls-2" x="-388.83" y="9.66" width="437.8" height="117.54" rx="20" ry="20"/>
    </clipPath>
  </defs>
  <g id="Layer_1-2" data-name="Layer 1">
    <g class="cls-8">
      <g class="cls-7">
        <g>
          <g>
            <g>
              <ellipse class="cls-6" cx="29.21" cy="75.05" rx="5.36" ry="5.81"/>
              <g>
                <g>
                  <polyline class="cls-3" points="31.88 72.78 36 69.9 39.64 73.21"/>
                  <polyline class="cls-3" points="31.73 75.09 36.25 72.89 39.33 76.73"/>
                  <polyline class="cls-3" points="33.52 77.26 38.36 78.61 38.13 83.52"/>
                  <polyline class="cls-3" points="31.65 78.62 36.22 80.71 35.22 85.53"/>
                </g>
                <g>
                  <polyline class="cls-3" points="26.55 72.78 22.43 69.9 18.79 73.21"/>
                  <polyline class="cls-3" points="26.69 75.09 22.17 72.89 19.1 76.73"/>
                  <polyline class="cls-3" points="24.91 77.26 20.06 78.61 20.3 83.52"/>
                  <polyline class="cls-3" points="26.78 78.62 22.21 80.71 23.21 85.53"/>
                </g>
              </g>
              <g>
                <ellipse class="cls-5" cx="26.8" cy="76.85" rx=".45" ry=".97"/>
                <ellipse class="cls-5" cx="31.62" cy="76.85" rx=".45" ry=".97"/>
              </g>
              <path class="cls-4" d="M30.14,78.8s.61.66,0,.86-.93-.43-.93-.43c0,0-.32.63-.93.43s0-.86,0-.86"/>
            </g>
            <line class="cls-1" x1="29.21" y1="75.12" x2="29.21" y2="51.56"/>
          </g>
          <path class="cls-6" d="M11.57,45.46c3.46-2.82,8.08-5.56,11.78-4.2,4.53,1.67,5.35,9.01,5.39,13.77,0,.23,0,.46,0,.68-.01,2.02-.16,3.44-.16,3.49l.17.02v3.81h.9v-3.81l.17-.02s-.15-1.47-.16-3.49c0-.22,0-.45,0-.68.04-4.76.86-12.1,5.39-13.77,3.71-1.36,8.32,1.38,11.78,4.19,2.33,2.68,4.66,4.57,4.88,4.75l.05-.06c.09.1.14.16.15.17h.01s2.48,2.47,2.48,2.47l.64-.64-2.64-2.64c-.47-.53-1.74-1.92-3.47-3.47l-2.46-2.46c-2.55-3.23-4.68-7.23-3.18-10.46,1.7-3.68,7.13-4.98,11.64-5.4.89.05,1.75.08,2.52.08,2.19,0,3.78-.16,3.98-.18v-.02c.09,0,.15,0,.16.01l.02-.2h3.67v-.9h-13.2c-3.79-.57-7.55-1.94-8.69-5.02-1.51-4.1,2-9.31,5.08-12.84,1.48-1.38,2.65-2.66,3.3-3.41.4-.37.65-.59.67-.6l-.13-.15,2.72-2.72-.64-.64-8.71,8.71c-3.23,2.55-7.21,4.66-10.44,3.16-4.84-2.23-5.56-10.9-5.59-15.47,0-.19,0-.37,0-.54,0-1.37.07-2.27.07-2.31h-.08v-3.81h-.9v3.8h-.08s.06.92.07,2.27c0,.2,0,.41,0,.62-.04,4.57-.76,13.2-5.59,15.43-3.23,1.49-7.21-.62-10.44-3.16L4.01,1.12l-.64.64,2.72,2.72-.13.15s.27.23.67.6c.65.75,1.81,2.03,3.3,3.41,3.08,3.53,6.59,8.74,5.08,12.84-1.14,3.08-4.9,4.45-8.69,5.02h-2.79l-.04,1.22c4.51.42,9.94,1.72,11.64,5.4,1.41,3.07-.42,6.82-2.79,9.96-.26.34-.5.57-1.42,1.36l.66,1.02ZM38,35.11l-.69-.69h.02c-.06-.08-.66-.77-1.53-1.51l-.38-.38c-.9-1.1-1.64-2.42-1.18-3.41.49-1.07,2.17-1.5,3.68-1.65.31.02.6.03.87.03.74,0,1.27-.05,1.34-.06h0s0,0,0,0v-.03h2.23c-1.98.6-3.74,1.61-4.52,3.31-.64,1.39-.44,2.92.17,4.4ZM20.59,30.71c-.78-1.7-2.55-2.71-4.53-3.31h2.23v.03s0,0,0,0h0c.07.01.6.07,1.34.07.27,0,.56,0,.87-.03,1.51.15,3.18.58,3.68,1.65.46.99-.28,2.31-1.19,3.41l-.38.38c-.87.74-1.47,1.43-1.53,1.5h.02s-.69.71-.69.71c.62-1.48.82-3.01.18-4.4ZM19.67,18.05l1.51,1.51s0,0,0,.01l-.02.03c.06.05.12.11.19.17.22.26.62.69,1.12,1.16,1.04,1.21,2.09,2.84,1.65,4.03-.35.95-1.64,1.37-2.96,1.54h-1.93s-.08,0-.12,0h-1.64c1.4-.61,2.54-1.53,3.04-2.9.65-1.76.11-3.72-.86-5.54ZM13.81,12.27h0c-.05-.08-.1-.15-.15-.23l.19.19-.03.03h0s0,0,0,0ZM44.59,12.26l-.03-.03.19-.19c-.05.08-.1.16-.15.24h0s0,0,0,0h0ZM37.87,23.6c.51,1.37,1.65,2.29,3.04,2.9h-3.68c-1.32-.17-2.61-.59-2.96-1.54-.44-1.19.61-2.83,1.66-4.04.5-.46.89-.89,1.11-1.14.07-.06.14-.12.2-.18l-.02-.03s0,0,0,0l1.52-1.52c-.98,1.82-1.51,3.79-.86,5.54ZM33.41,28.74c-.24.52-.26,1.07-.15,1.63l-2.97-2.97h4.46c-.58.32-1.07.75-1.34,1.34ZM25,28.74c-.27-.59-.76-1.02-1.34-1.34h4.46l-2.97,2.97c.11-.55.09-1.11-.15-1.63ZM33.43,25.27c.19.52.55.92,1,1.23h-4.13l3.15-3.15c-.19.65-.23,1.3,0,1.92ZM29.65,25.86v-4.46c.32.58.75,1.07,1.34,1.34.33.15.68.22,1.02.22.2,0,.4-.03.61-.07l-2.97,2.97ZM28.75,25.86l-2.97-2.97c.2.04.4.07.61.07.35,0,.69-.07,1.02-.22.59-.27,1.02-.76,1.34-1.34v4.46ZM24.97,23.35l3.15,3.15h-4.14c.45-.31.8-.71,1-1.23.23-.61.18-1.27,0-1.92ZM28.75,28.04v4.28c-.32-.51-.74-.93-1.32-1.14-.58-.21-1.19-.19-1.8-.03l3.11-3.11ZM29.65,28.04l3.11,3.11c-.61-.16-1.22-.19-1.8.03-.57.21-1,.63-1.32,1.14v-4.28ZM34.79,20.73c-1.1.91-2.43,1.66-3.42,1.2-1.34-.62-1.68-3.07-1.71-4.75v-.21s0-.02,0-.03v-.36c0-.2.01-.39.02-.54h-.02v-1.9c.61,1.87,1.6,3.52,3.23,4.27.59.27,1.21.39,1.85.39.84,0,1.7-.22,2.55-.57l-2.49,2.49ZM28.75,16.04h-.03c.01.16.02.35.03.57v.22c0,.06,0,.12,0,.18v.13c-.03,1.68-.37,4.16-1.72,4.79-.99.45-2.3-.28-3.4-1.18l-2.51-2.51c.85.35,1.71.57,2.55.57.63,0,1.25-.12,1.85-.39,1.63-.75,2.62-2.4,3.23-4.27v1.9ZM7.82,27.4v.07c-.1-.03-.21-.05-.32-.07h.32ZM21.83,34.96c.15-.12.87-.73,1.61-1.58,1.16-.94,2.61-1.76,3.69-1.37,1.26.47,1.6,2.59,1.63,4.23v.12c0,.06,0,.12,0,.17v.28c0,.37-.03.69-.06.94h.06v1.6c-.6-1.68-1.58-3.09-3.15-3.67-1.64-.61-3.46-.18-5.18.67l1.41-1.41ZM29.65,37.77h.05c-.03-.25-.05-.56-.05-.92v-.41s0-.03,0-.05v-.17c.04-1.64.37-3.74,1.63-4.2,1.09-.4,2.53.43,3.68,1.36.75.86,1.48,1.48,1.62,1.59l1.41,1.41c-1.72-.86-3.55-1.29-5.19-.68-1.57.58-2.55,1.99-3.15,3.67v-1.59ZM50.59,27.4h.32c-.11.02-.21.05-.32.07v-.07ZM42.55,21.79c.88,2.37,3.04,3.82,5.6,4.71h-3.89c-2.44-.37-4.83-1.25-5.56-3.21-.98-2.64,1.32-6.03,3.33-8.33.97-.9,1.73-1.73,2.16-2.23.1-.1.19-.18.26-.24-1.83,3-3,6.36-1.92,9.3ZM34.87,13.81c.87.4,1.78.58,2.71.58,1.63,0,3.31-.55,4.93-1.39l-2.54,2.54c-2.09,1.65-4.65,3-6.72,2.05-3.14-1.45-3.59-7.15-3.6-10.12,0-.08,0-.16,0-.23,0-.53.02-.95.03-1.22.83,3.36,2.37,6.49,5.19,7.79ZM20.82,14.39c.93,0,1.84-.18,2.71-.58,2.81-1.3,4.35-4.43,5.19-7.79.01.28.03.69.03,1.22,0,.08,0,.16,0,.24-.02,2.97-.47,8.67-3.6,10.12-2.06.95-4.62-.4-6.71-2.04l-2.55-2.55c1.62.83,3.3,1.38,4.93,1.38ZM15.85,21.79c1.09-2.95-.08-6.3-1.92-9.3.07.06.16.14.26.24.43.5,1.2,1.34,2.17,2.24,2.01,2.3,4.29,5.68,3.32,8.32-.73,1.96-3.13,2.84-5.58,3.21h-3.86c2.56-.88,4.73-2.34,5.61-4.71ZM15.94,32.74c-1.29-2.8-4.39-4.34-7.73-5.17.43.04,1.27.09,2.33.09.52,0,1.09-.02,1.68-.05,2.94.27,6.46,1.11,7.55,3.48.95,2.07-.41,4.63-2.06,6.72l-1.61,1.61c-.33.29-.63.58-.91.85,1.27-2.51,1.84-5.16.75-7.53ZM23.66,40.42c-2.75-1.02-5.84-.07-8.68,1.54.61-.53,1.64-1.49,2.68-2.68,2.25-1.83,5.24-3.61,7.62-2.74,2.92,1.08,3.44,5.86,3.46,8.96,0,.14,0,.28,0,.41,0,.46-.02.88-.03,1.22-.83-3.04-2.35-5.72-5.05-6.72ZM34.74,40.42c-2.71,1-4.22,3.68-5.05,6.72-.02-.35-.03-.76-.03-1.22,0-.13,0-.27,0-.41.02-3.1.55-7.88,3.46-8.96,2.38-.88,5.37.9,7.62,2.73,1.05,1.21,2.1,2.18,2.71,2.71-2.84-1.62-5.95-2.57-8.7-1.56ZM42.47,32.74c-1.09,2.37-.52,5.02.75,7.53-.26-.26-.56-.53-.88-.82l-1.65-1.65c-1.65-2.09-3.01-4.65-2.05-6.72,1.09-2.37,4.61-3.2,7.54-3.48.6.04,1.17.05,1.69.05,1.06,0,1.9-.06,2.33-.09-3.34.84-6.44,2.38-7.73,5.17Z"/>
        </g>
      </g>
    </g>
  </g>
</svg>