<?xml version="1.0" encoding="UTF-8"?>
<svg id="Layer_2" data-name="Layer 2" xmlns="http://www.w3.org/2000/svg" xmlns:xlink="http://www.w3.org/1999/xlink" viewBox="0 0 94.71 46.81">
  <defs>
    <style>
      .cls-1, .cls-2 {
        fill: none;
      }

      .cls-3 {
        fill: #cc7236;
      }

      .cls-3, .cls-4, .cls-2, .cls-5, .cls-6, .cls-7, .cls-8, .cls-9, .cls-10, .cls-11 {
        stroke: #480809;
      }

      .cls-3, .cls-2, .cls-6, .cls-7, .cls-8, .cls-9, .cls-10, .cls-11 {
        stroke-linecap: round;
        stroke-linejoin: round;
      }

      .cls-3, .cls-6, .cls-9, .cls-11 {
        stroke-width: 1.18px;
      }

      .cls-12, .cls-9 {
        fill: #ffeb68;
      }

      .cls-4, .cls-5 {
        stroke-miterlimit: 10;
      }

      .cls-4, .cls-5, .cls-10 {
        stroke-width: .54px;
      }

      .cls-4, .cls-13 {
        fill: #fff;
      }

      .cls-14 {
        fill: #480809;
      }

      .cls-2 {
        stroke-width: .27px;
      }

      .cls-5, .cls-11 {
        fill: #fea153;
      }

      .cls-6, .cls-7 {
        fill: #fce7a8;
      }

      .cls-7 {
        stroke-width: .78px;
      }

      .cls-8 {
        fill: #c0e178;
        stroke-width: .87px;
      }

      .cls-10 {
        fill: #fee96a;
      }

      .cls-15 {
        clip-path: url(#clippath);
      }
    </style>
    <clipPath id="clippath">
      <rect id="SVGID" class="cls-1" x="8.15" y="25.69" width="33.85" height="14.11" rx="3.99" ry="3.99" transform="translate(7.69 -4.66) rotate(12.52)"/>
    </clipPath>
  </defs>
  <g id="Layer_1-2" data-name="Layer 1">
    <g>
      <g>
        <circle class="cls-5" cx="51.75" cy="13.39" r="13.12"/>
        <path class="cls-2" d="M43.4,22.83c1.98,1.31,4.33,1.94,6.74,1.79,2.93-.19,5.61-1.5,7.55-3.7,3.21-3.65,2.86-9.23-.79-12.44-1.42-1.25-3.24-1.87-5.13-1.75-1.89.12-3.61.97-4.86,2.39-1,1.14-1.5,2.6-1.41,4.12s.78,2.91,1.92,3.91c.92.81,2.1,1.21,3.32,1.13,1.22-.08,2.34-.63,3.15-1.54.65-.74.98-1.69.91-2.67-.06-.98-.5-1.88-1.24-2.54-.6-.53-1.36-.79-2.16-.74-.79.05-1.52.41-2.05,1-.88,1-.78,2.52.22,3.4.81.71,2.05.63,2.76-.18.28-.32.42-.73.39-1.15s-.22-.81-.54-1.09l-.18.2c.26.23.42.56.45.91.02.35-.09.69-.33.96-.61.7-1.68.76-2.38.15-.43-.38-.69-.9-.72-1.47-.04-.57.15-1.12.53-1.55.48-.54,1.14-.87,1.86-.91s1.42.19,1.96.67c.69.6,1.1,1.44,1.15,2.35.06.91-.24,1.79-.85,2.48-.76.86-1.81,1.38-2.96,1.45-1.15.07-2.26-.31-3.12-1.07-1.09-.96-1.74-2.28-1.83-3.73s.38-2.84,1.34-3.93c1.2-1.37,2.86-2.18,4.68-2.3,1.82-.12,3.57.48,4.93,1.69,1.71,1.51,2.74,3.59,2.88,5.87.14,2.28-.61,4.48-2.12,6.19-3.91,4.43-10.69,4.86-15.13.96l-.18.2c.39.34.79.65,1.21.93Z"/>
        <rect class="cls-4" x="36.58" y="20.31" width="2.58" height="28.38" rx="1.29" ry="1.29" transform="translate(50.38 84.18) rotate(-146.48)"/>
        <g>
          <path class="cls-10" d="M44.04,21.91s.57-4.89-1.45-4.82-1.49,1.8-1.49,1.8c0,0-2.2-2.14-3.63.62-1.43,2.76,1.18,2.65,1.18,2.65,0,0-1.44-.14-1.27,1.05s4.91,1.21,4.91,1.21l1.75-2.52Z"/>
          <path class="cls-10" d="M47.07,23.64s4.37-2.26,5.02-.35-1.16,2.03-1.16,2.03c0,0,2.78,1.3.7,3.62-2.07,2.32-2.9-.17-2.9-.17,0,0,.64,1.29-.54,1.56-1.18.26-2.86-4.17-2.86-4.17l1.74-2.53Z"/>
          <path class="cls-10" d="M47.51,24.03c-.21-1.36-3.13-2.5-3.98-2.38s-1.9,1.88-1.71,2.76,2.59,2.46,3.68,2.37,2.01-2.75,2.01-2.75Z"/>
        </g>
      </g>
      <g>
        <path class="cls-11" d="M89.18,17.35s6.95-6.86,4.37-9.37c-3.25-3.16-9.41,4.67-9.41,4.67l5.04,4.7Z"/>
        <path class="cls-3" d="M91.95,27.15s1.54-2.65,1.36-4.41-3.71-6.38-14.01-7.99-16.14.45-16.54,3.2-.07,4.92-.07,4.92l15.7,5.75,13.55-1.48Z"/>
        <g>
          <path class="cls-6" d="M87.26,12.91s1.51-2.36-.85-4.36-2.77-2.78-2.58-3.6.81-1.51.81-1.51c0,0-2.28-.89-4.55.54-2.27,1.42-4.63,3.56-4.63,3.56l6.39,4.57,5.4.8Z"/>
          <path class="cls-6" d="M89.4,16.45s.52-2.18-1.1-3.47c-1.62-1.29-3.88-1.31-7.88-3.55s-3.91-2.79-5.99-1.17c-2.09,1.62-3.1,3.08,5.68,6.46,8.78,3.38,9.29,1.73,9.29,1.73Z"/>
          <path class="cls-7" d="M78.05,20.71c-1.22-.29-9.91-1.14-11.81-3.08-1.9-1.94-1.98-2.77-.44-3.94s1.31-.52,3.98,1.99c2.09,1.95,6.34,3.78,7.67,4.64.38.24.6.38.6.38Z"/>
          <path class="cls-6" d="M73.28,17.95c2.45,1.82,5.22,3.19,8.18,3.94.32.08.61.15.88.2,2.06.38,4.85,1.69,7.3.27,2.45-1.42,1.95-3.58.46-5.56s-.97,1.51-9.51-2.27c-8.54-3.78-6.72-5.08-9.92-4.03-3.2,1.05-3.61,3.07-.53,5.2,1.1.76,2.19,1.55,3.13,2.25Z"/>
        </g>
        <g>
          <path class="cls-9" d="M92.62,26.66l-5.87,14.01s-.34,2.26-13.24-.24c-11.12-2.15-11-4.14-11-4.14l-.4-15.61s1.07.16,1.57.28,1.1,1.62,1.1,1.62c0,0,.65-1.25,2.43-.8s1.9,1.94,1.9,1.94c0,0,1.21-1.17,2.69-.82,1.48.35,2.22,2.52,2.22,2.52,0,0,1.52-1.7,3.23-1.27s2.43,2.14,2.43,2.14c0,0,1.99-1.46,3.56-1.19,1.57.28,2.05,1.52,2.05,1.52,0,0,1.21-1.27,2.83-.88s1.65,1.4,1.65,1.4c0,0,.65-1.46,1.82-1.2,1.17.26,1.01.72,1.01.72Z"/>
          <g>
            <line class="cls-12" x1="89.79" y1="27.14" x2="84.71" y2="41.52"/>
            <path class="cls-14" d="M84.62,41.9c.19.05.39-.06.46-.25l5.08-14.38c.07-.2-.04-.43-.24-.5-.21-.07-.43.04-.5.24l-5.08,14.38c-.07.2.04.43.24.5.01,0,.03,0,.04.01Z"/>
          </g>
          <g>
            <line class="cls-12" x1="85.3" y1="26.62" x2="81.73" y2="41.56"/>
            <path class="cls-14" d="M81.64,41.95c.21.05.42-.08.47-.29l3.57-14.95c.05-.21-.08-.42-.29-.47s-.42.08-.47.29l-3.57,14.95c-.05.21.08.42.29.47Z"/>
          </g>
          <g>
            <line class="cls-12" x1="79.69" y1="26.28" x2="77.34" y2="41.09"/>
            <path class="cls-14" d="M77.24,41.47s.02,0,.03,0c.21.03.41-.11.45-.33l2.35-14.81c.03-.21-.11-.42-.33-.45-.21-.03-.41.11-.45.33l-2.35,14.81c-.03.2.1.4.3.44Z"/>
          </g>
          <g>
            <line class="cls-12" x1="74.03" y1="25.41" x2="71.9" y2="39.79"/>
            <path class="cls-14" d="M71.81,40.17s.02,0,.03,0c.21.03.41-.12.44-.33l2.13-14.38c.03-.21-.11-.41-.33-.44-.21-.03-.41.12-.44.33l-2.13,14.38c-.03.2.1.39.3.44Z"/>
          </g>
          <g>
            <line class="cls-12" x1="69.12" y1="23.7" x2="67.31" y2="38.93"/>
            <path class="cls-14" d="M67.22,39.31s.03,0,.05,0c.21.03.41-.13.44-.34l1.81-15.23c.03-.21-.13-.41-.34-.44-.21-.03-.41.13-.44.34l-1.81,15.23c-.02.2.11.38.3.43Z"/>
          </g>
          <g>
            <line class="cls-12" x1="64.78" y1="22.57" x2="64.18" y2="37.73"/>
            <path class="cls-14" d="M64.09,38.11s.05,0,.08.01c.22,0,.4-.16.41-.38l.6-15.16c0-.22-.16-.4-.38-.41-.22,0-.4.16-.41.38l-.6,15.16c0,.19.12.35.3.4Z"/>
          </g>
        </g>
      </g>
      <g>
        <g>
          <path class="cls-8" d="M10.76,23.87s-3.47-5.2-5.56-4.36c-2.58,1.04-.03,3.6.96,4.27s-2.37-2.6-3.92-.53c-2.45,3.25,2.13,4.34,2.13,4.34,0,0-3.48-1.22-3.9,1.96-.37,2.74,3.09,2.89,3.09,2.89,0,0-3.1,1.99-2.06,3.7,1.4,2.32,7.07-2.27,7.07-2.27l2.2-10Z"/>
          <path class="cls-8" d="M41.8,30.77s5.34-3.24,6.88-1.59c1.89,2.03-1.5,3.27-2.68,3.46s3.24-1.35,3.78,1.18c.85,3.99-3.76,3.03-3.76,3.03,0,0,3.67.37,2.71,3.42-.83,2.63-4.02,1.31-4.02,1.31,0,0,1.96,3.12.3,4.23-2.25,1.51-5.44-5.05-5.44-5.05l2.24-9.99Z"/>
        </g>
        <rect class="cls-8" x="7.73" y="25.26" width="34.7" height="14.96" rx="4.37" ry="4.37" transform="translate(7.69 -4.66) rotate(12.52)"/>
        <g class="cls-15">
          <g>
            <path class="cls-13" d="M16.03,20.77c-.2-.02-.41.2-.49.55l-5.93,25.31c-.09.4.01.82.24.93.22.12.48-.12.58-.52l5.93-25.31c.09-.4-.01-.82-.24-.93-.03-.02-.06-.02-.09-.03Z"/>
            <path class="cls-13" d="M22.22,21.43c-.2-.02-.41.2-.49.55l-5.98,25.53c-.09.4.01.82.24.93.22.12.48-.12.58-.52l5.98-25.53c.09-.4-.01-.82-.24-.93-.03-.02-.06-.02-.09-.03Z"/>
            <path class="cls-13" d="M28.41,22.1c-.2-.02-.41.2-.49.55l-5.98,25.53c-.09.4.01.82.24.93.22.12.48-.12.58-.52l5.98-25.53c.09-.4-.01-.82-.24-.93-.03-.02-.06-.02-.09-.03Z"/>
            <path class="cls-13" d="M34.6,22.76c-.2-.02-.41.2-.49.55l-5.98,25.53c-.09.4.01.82.24.93.22.12.48-.12.58-.52l5.98-25.53c.09-.4-.01-.82-.24-.93-.03-.02-.06-.02-.09-.03Z"/>
            <path class="cls-13" d="M40.72,23.74c-.2-.02-.41.2-.49.55l-5.91,25.22c-.09.4.01.82.24.93.22.12.48-.12.58-.52l5.91-25.22c.09-.4-.01-.82-.24-.93-.03-.02-.06-.02-.09-.03Z"/>
          </g>
        </g>
      </g>
    </g>
  </g>
</svg>