<?xml version="1.0" encoding="UTF-8"?>
<svg id="Layer_2" data-name="Layer 2" xmlns="http://www.w3.org/2000/svg" xmlns:xlink="http://www.w3.org/1999/xlink" viewBox="0 0 66.86 76.74">
  <defs>
    <style>
      .cls-1 {
        fill: none;
      }

      .cls-2, .cls-3 {
        fill: #fff;
      }

      .cls-2, .cls-4, .cls-5 {
        stroke-width: .66px;
      }

      .cls-2, .cls-4, .cls-5, .cls-6 {
        stroke: #480809;
        stroke-linecap: round;
        stroke-linejoin: round;
      }

      .cls-7 {
        fill: #480809;
      }

      .cls-8, .cls-4 {
        fill: #fee96a;
      }

      .cls-5, .cls-6 {
        fill: #febecc;
      }

      .cls-6 {
        stroke-width: .86px;
      }

      .cls-9 {
        fill: #fea153;
      }

      .cls-10 {
        clip-path: url(#clippath);
      }
    </style>
    <clipPath id="clippath">
      <circle class="cls-1" cx="50.74" cy="61.73" r="8.24"/>
    </clipPath>
  </defs>
  <g id="Layer_1-2" data-name="Layer 1">
    <g>
      <g>
        <g>
          <circle class="cls-5" cx="13.11" cy="11.92" r="11.59"/>
          <rect class="cls-5" x=".09" y="9.72" width="26.03" height="4.42" rx="2.21" ry="2.21" transform="translate(-2.19 2.99) rotate(-12.01)"/>
        </g>
        <rect class="cls-2" x="17.87" y="24.84" width="3.16" height="34.77" rx="1.58" ry="1.58" transform="translate(-8.36 4.97) rotate(-12.01)"/>
        <g>
          <path class="cls-4" d="M18,22.83s1.55-5.83,3.82-4.84.89,2.73.89,2.73c0,0,3.47-1.45,3.86,2.34s-2.54,2.49-2.54,2.49c0,0,1.7.48.97,1.77s-6.14-.83-6.14-.83l-.86-3.66Z"/>
          <path class="cls-4" d="M13.77,23.43s-3.97-4.54-5.57-2.65.41,2.84.41,2.84c0,0-3.75.24-2.43,3.81s3.38,1.11,3.38,1.11c0,0-1.31,1.18-.09,2.02s5.14-3.46,5.14-3.46l-.84-3.66Z"/>
          <path class="cls-4" d="M13.09,23.68c.85-1.46,4.69-1.44,5.6-.93s1.32,3,.71,3.91-4.05,1.64-5.26,1.05c-1.21-.58-1.05-4.04-1.05-4.04Z"/>
        </g>
      </g>
      <g>
        <g>
          <circle class="cls-9" cx="20.59" cy="43.59" r="13.52"/>
          <path class="cls-7" d="M28.81,54.68c6.11-4.53,7.4-13.19,2.86-19.31-4.53-6.11-13.19-7.4-19.31-2.86-6.11,4.53-7.4,13.19-2.86,19.31,4.53,6.11,13.19,7.4,19.31,2.86ZM12.69,32.95c5.87-4.35,14.18-3.12,18.53,2.75,4.35,5.87,3.12,14.18-2.75,18.53-5.87,4.35-14.18,3.12-18.53-2.75s-3.12-14.18,2.75-18.53Z"/>
        </g>
        <g>
          <rect class="cls-3" x="34.85" y="49.83" width="2.66" height="29.25" rx="1.33" ry="1.33" transform="translate(103.63 94.67) rotate(143.43)"/>
          <path class="cls-7" d="M45.05,76.42c.71-.53.86-1.53.33-2.25l-15.84-21.36c-.53-.71-1.53-.86-2.25-.33s-.86,1.53-.33,2.25l15.84,21.36c.53.71,1.53.86,2.25.33ZM27.63,52.93c.47-.35,1.13-.25,1.47.22l15.84,21.36c.35.47.25,1.13-.22,1.47h0c-.47.35-1.12.25-1.47-.22l-15.84-21.36c-.35-.47-.25-1.13.22-1.47Z"/>
        </g>
        <g>
          <path class="cls-3" d="M19.61,50.37c1.98-2.77.98-6.78.98-6.78,0,0,2.64,5,1.38,7.19-2.56,4.42-6.31,5.14-6.31,5.14,0,0-.8-.29-1.56-.76-.76-.47-1.7-1.15-1.7-1.15,0,0,4.93-.45,7.21-3.65Z"/>
          <path class="cls-3" d="M16.47,49.65c-4.94,1.32-8.1-.83-8.1-.83,0,0-.36-.77-.56-1.64s-.39-2.02-.39-2.02c0,0,3.8,3.17,7.68,2.52,3.36-.56,5.49-4.1,5.49-4.1,0,0-1.66,5.4-4.11,6.06Z"/>
          <path class="cls-3" d="M13.39,44.97c-4.42-2.56-5.14-6.31-5.14-6.31,0,0,.29-.8.76-1.56.47-.76,1.15-1.7,1.15-1.7,0,0,.45,4.93,3.65,7.21,2.77,1.98,6.78.98,6.78.98,0,0-5,2.64-7.19,1.38Z"/>
          <path class="cls-3" d="M14.53,39.48c-1.32-4.94.83-8.1.83-8.1,0,0,.77-.36,1.64-.56s2.02-.39,2.02-.39c0,0-3.17,3.8-2.52,7.68.56,3.36,4.1,5.49,4.1,5.49,0,0-5.4-1.66-6.06-4.11Z"/>
          <path class="cls-3" d="M19.21,36.4c2.56-4.42,6.31-5.14,6.31-5.14,0,0,.8.29,1.56.76.76.47,1.7,1.15,1.7,1.15,0,0-4.93.45-7.21,3.65-1.98,2.77-.98,6.78-.98,6.78,0,0-2.64-5-1.38-7.19Z"/>
          <path class="cls-3" d="M24.7,37.53c4.94-1.32,8.1.83,8.1.83,0,0,.36.77.56,1.64.2.87.39,2.02.39,2.02,0,0-3.8-3.17-7.68-2.52-3.36.56-5.49,4.1-5.49,4.1,0,0,1.66-5.4,4.11-6.06Z"/>
          <path class="cls-3" d="M27.78,42.22c4.42,2.56,5.14,6.31,5.14,6.31,0,0-.29.8-.76,1.56-.47.76-1.15,1.7-1.15,1.7,0,0-.45-4.93-3.65-7.21-2.77-1.98-6.78-.98-6.78-.98,0,0,5-2.64,7.19-1.38Z"/>
          <path class="cls-3" d="M26.65,47.71c1.32,4.94-.83,8.1-.83,8.1,0,0-.77.36-1.64.56-.87.2-2.02.39-2.02.39,0,0,3.17-3.8,2.52-7.68-.56-3.36-4.1-5.49-4.1-5.49,0,0,5.4,1.66,6.06,4.11Z"/>
        </g>
        <g>
          <g>
            <path class="cls-8" d="M26.14,54.05s-4.54-2.27-5.18-.28,1.23,2.08,1.23,2.08c0,0-2.84,1.38-.67,3.74,2.17,2.36,2.98-.21,2.98-.21,0,0-.64,1.34.58,1.6,1.22.26,2.89-4.34,2.89-4.34l-1.83-2.58Z"/>
            <path class="cls-7" d="M25.8,61.01c1.09-.81,2.09-3.37,2.43-4.28.03-.09.02-.18-.03-.26l-1.83-2.58s-.06-.07-.1-.09c-.13-.07-3.26-1.61-4.79-.97-.39.16-.65.45-.78.85-.23.71-.19,1.29.11,1.73.19.27.45.44.69.54-.41.32-.91.83-1.05,1.54-.14.74.15,1.5.86,2.27.78.84,1.5,1.2,2.15,1.05.25-.06.47-.18.64-.34.02.05.04.11.06.16.11.21.34.49.85.6.26.05.52-.04.78-.23ZM27.66,56.67c-.77,2.06-1.93,4.15-2.53,4.02-.24-.05-.39-.15-.47-.3-.11-.22-.05-.53.02-.74.05-.11.08-.19.08-.2.04-.14-.03-.29-.16-.34-.14-.05-.29,0-.35.14-.01.02-.05.1-.08.21-.12.26-.39.73-.82.82-.44.1-1-.21-1.62-.89-.58-.63-.82-1.23-.72-1.79.18-.95,1.3-1.51,1.31-1.51.11-.06.18-.18.15-.3-.03-.12-.13-.21-.26-.22,0,0-.64-.04-.94-.47-.2-.29-.21-.71-.04-1.24.08-.24.23-.4.47-.51,1.05-.44,3.37.49,4.26.92l1.7,2.4Z"/>
          </g>
          <g>
            <path class="cls-8" d="M28.88,51.72s-.66-5.03,1.43-4.99c2.08.05,1.56,1.84,1.56,1.84,0,0,2.24-2.23,3.75.59s-1.18,2.75-1.18,2.75c0,0,1.48-.17,1.32,1.07s-5.04,1.31-5.04,1.31l-1.84-2.57Z"/>
            <path class="cls-7" d="M35.62,53.64c.23-.17.39-.38.42-.62.07-.52-.12-.83-.29-1-.04-.04-.08-.08-.13-.11.2-.11.39-.27.53-.49.35-.57.25-1.37-.29-2.38-.49-.92-1.12-1.44-1.87-1.55-.71-.11-1.37.2-1.8.48-.02-.26-.09-.57-.29-.83-.31-.43-.85-.66-1.6-.67-.42,0-.77.15-1.05.46-1.11,1.23-.67,4.69-.65,4.84,0,.05.02.09.05.13l1.84,2.57c.05.07.14.12.23.12.99-.02,3.82-.13,4.9-.93ZM34.65,52.18c.22,0,.53.05.71.23.12.12.16.3.13.54-.08.6-2.43,1.02-4.63,1.07l-1.71-2.39c-.12-.98-.24-3.48.52-4.33.17-.19.38-.28.63-.28.56.01.95.16,1.16.44.31.42.14,1.04.14,1.04-.03.12.02.25.13.31.11.06.25.05.34-.04,0,0,.9-.89,1.86-.74.56.08,1.05.51,1.46,1.27.44.81.54,1.44.31,1.82-.23.38-.76.48-1.05.51-.12,0-.2,0-.23.01-.15.02-.25.14-.25.29,0,.15.12.26.27.26.01,0,.09,0,.22,0Z"/>
          </g>
          <g>
            <path class="cls-8" d="M29.41,51.43c-1.4-.27-3.52,2.15-3.7,3.02s1.16,2.5,2.07,2.63,3.29-1.65,3.59-2.73-1.96-2.91-1.96-2.91Z"/>
            <path class="cls-7" d="M29.93,56.43c.81-.6,1.54-1.39,1.71-2.01.34-1.23-1.81-3-2.05-3.2l-.05-.04h-.07c-1.58-.32-3.82,2.23-4.03,3.22-.12.58.27,1.25.51,1.6.4.57,1.11,1.27,1.8,1.36.53.07,1.4-.34,2.18-.92ZM29.3,51.69c.82.68,1.99,1.93,1.81,2.58-.28.99-2.56,2.63-3.29,2.53-.4-.06-1-.53-1.42-1.13-.32-.45-.48-.9-.42-1.16.16-.76,2.12-2.96,3.32-2.82Z"/>
          </g>
        </g>
      </g>
      <g>
        <g>
          <path class="cls-6" d="M46.41,69.18s-2.29,5.67-4.46,5.28c-2.68-.48-.74-3.44.07-4.28s-1.75,2.96-3.65,1.29c-3-2.63,1.17-4.58,1.17-4.58,0,0-3.09,1.86-4.13-1.1-.9-2.55,2.39-3.39,2.39-3.39,0,0-3.37-1.29-2.71-3.14.88-2.5,7.23.77,7.23.77l4.1,9.15Z"/>
          <path class="cls-6" d="M59.19,63.42s5.77,2.04,6.91.16c1.41-2.32-2.09-2.84-3.26-2.79-1.17.05,3.38.65,3.39-1.88.02-3.99-4.21-2.15-4.21-2.15,0,0,3.44-1.08,1.91-3.82-1.32-2.36-4.12-.45-4.12-.45,0,0,1.26-3.38-.55-4.11-2.46-.99-4.21,5.92-4.21,5.92l4.14,9.13Z"/>
        </g>
        <circle class="cls-6" cx="50.74" cy="61.73" r="8.66"/>
        <g class="cls-10">
          <g>
            <circle class="cls-3" cx="56.49" cy="63.7" r="2.04"/>
            <circle class="cls-3" cx="48.58" cy="56.08" r="2.04"/>
            <circle class="cls-3" cx="46.08" cy="64.58" r="2.04"/>
            <circle class="cls-3" cx="42.94" cy="60.1" r="1.02"/>
            <circle class="cls-3" cx="55.8" cy="57.2" r="1.02"/>
            <circle class="cls-3" cx="51.65" cy="67.85" r="1.02"/>
            <circle class="cls-3" cx="51.79" cy="61.91" r="1.02"/>
            <circle class="cls-3" cx="58.57" cy="60.52" r="1.02"/>
          </g>
        </g>
      </g>
    </g>
  </g>
</svg>