<?xml version="1.0" encoding="UTF-8"?>
<svg id="Layer_2" data-name="Layer 2" xmlns="http://www.w3.org/2000/svg" viewBox="0 0 33.76 17.08">
  <defs>
    <style>
      .cls-1 {
        fill: #eee8f6;
      }

      .cls-2 {
        fill: #480809;
      }

      .cls-3 {
        fill: none;
        stroke: #eee8f6;
        stroke-linecap: round;
        stroke-linejoin: round;
        stroke-width: .16px;
      }
    </style>
  </defs>
  <g id="Layer_1-2" data-name="Layer 1">
    <g>
      <g>
        <path class="cls-2" d="M30.83,5.58s.03.02.07.06c-.03-.05-.07-.06-.07-.06Z"/>
        <path class="cls-2" d="M33.71,11.19c-.28-3.07-2.4-5.17-2.81-5.55.1.15.18.62-.8,2.04-1.1,1.6-4.26,1.11-5.21.92,0-2.88-1.04-5.7-1.04-5.7l-1.67,1.7-1.72-.76c-1.19-.53-2.47-.83-3.78-.89l-2.08-.09-.71-2.25s-2.11,2.1-3.31,4.7c-.99-.26-3.96-1.2-4.24-3.1-.25-1.7.02-2.09.18-2.18-.54.16-3.36,1.12-4.96,3.76C-.21,6.71,0,9.58,0,9.58c0,0,.56-1.49,2.62-1.69s2.64,1.25,2.64,1.25c0,0-.16-1.39,1.36-1.92,1.08-.38,2.65-.59,3.47-.69-.94,2.97-.23,6.22,6.05,7.67s8.27-1.2,8.66-4.29c.69.44,2.03,1.33,2.84,2.14,1.13,1.14.38,2.32.38,2.32,0,0,1.16-1.05,2.92.03,1.77,1.08,1.62,2.67,1.62,2.67,0,0,1.45-2.49,1.14-5.89Z"/>
        <path class="cls-2" d="M6.52.03c.06-.02.09-.03.09-.03,0,0-.04,0-.09.03Z"/>
      </g>
      <g>
        <g>
          <ellipse class="cls-1" cx="15.22" cy="5.79" rx="1.1" ry=".52" transform="translate(6.16 19.32) rotate(-77.03)"/>
          <ellipse class="cls-1" cx="20.55" cy="7.02" rx="1.1" ry=".52" transform="translate(9.1 25.48) rotate(-77.03)"/>
        </g>
        <path class="cls-3" d="M18.42,8.8s.5.88-.22.95-.92-.71-.92-.71c0,0-.52.62-1.14.24s.22-.95.22-.95"/>
      </g>
    </g>
  </g>
</svg>