<?xml version="1.0" encoding="UTF-8"?>
<svg id="Layer_2" data-name="Layer 2" xmlns="http://www.w3.org/2000/svg" xmlns:xlink="http://www.w3.org/1999/xlink" viewBox="0 0 50.33 27.48">
  <defs>
    <style>
      .cls-1 {
        fill: none;
      }

      .cls-2 {
        fill: #c0e178;
        stroke: #480809;
        stroke-linecap: round;
        stroke-linejoin: round;
        stroke-width: .87px;
      }

      .cls-3 {
        fill: #fff;
      }

      .cls-4 {
        clip-path: url(#clippath);
      }
    </style>
    <clipPath id="clippath">
      <rect class="cls-1" x="8.32" y="6.7" width="33.85" height="14.11" rx="3.99" ry="3.99" transform="translate(52.88 21.71) rotate(167.48)"/>
    </clipPath>
  </defs>
  <g id="Layer_1-2" data-name="Layer 1">
    <g>
      <g>
        <path class="cls-2" d="M39.57,4.88s3.47-5.2,5.56-4.36c2.58,1.04.03,3.6-.96,4.27s2.37-2.6,3.92-.53c2.45,3.25-2.13,4.34-2.13,4.34,0,0,3.48-1.22,3.9,1.96.37,2.74-3.09,2.89-3.09,2.89,0,0,3.1,1.99,2.06,3.7-1.4,2.32-7.07-2.27-7.07-2.27l-2.2-10Z"/>
        <path class="cls-2" d="M8.52,11.78s-5.34-3.24-6.88-1.59c-1.89,2.03,1.5,3.27,2.68,3.46s-3.24-1.35-3.78,1.18c-.85,3.99,3.76,3.03,3.76,3.03,0,0-3.67.37-2.71,3.42.83,2.63,4.02,1.31,4.02,1.31,0,0-1.96,3.12-.3,4.23,2.25,1.51,5.44-5.05,5.44-5.05l-2.24-9.99Z"/>
      </g>
      <rect class="cls-2" x="7.9" y="6.28" width="34.7" height="14.96" rx="4.37" ry="4.37" transform="translate(52.88 21.71) rotate(167.48)"/>
      <g class="cls-4">
        <g>
          <path class="cls-3" d="M34.3,1.78c.2-.02.41.2.49.55l5.93,25.31c.09.4-.01.82-.24.93-.22.12-.48-.12-.58-.52l-5.93-25.31c-.09-.4.01-.82.24-.93.03-.02.06-.02.09-.03Z"/>
          <path class="cls-3" d="M28.11,2.45c.2-.02.41.2.49.55l5.98,25.53c.09.4-.01.82-.24.93-.22.12-.48-.12-.58-.52L27.78,3.41c-.09-.4.01-.82.24-.93.03-.02.06-.02.09-.03Z"/>
          <path class="cls-3" d="M21.92,3.11c.2-.02.41.2.49.55l5.98,25.53c.09.4-.01.82-.24.93-.22.12-.48-.12-.58-.52l-5.98-25.53c-.09-.4.01-.82.24-.93.03-.02.06-.02.09-.03Z"/>
          <path class="cls-3" d="M15.73,3.77c.2-.02.41.2.49.55l5.98,25.53c.09.4-.01.82-.24.93-.22.12-.48-.12-.58-.52L15.4,4.73c-.09-.4.01-.82.24-.93.03-.02.06-.02.09-.03Z"/>
          <path class="cls-3" d="M9.61,4.75c.2-.02.41.2.49.55l5.91,25.22c.09.4-.01.82-.24.93-.22.12-.48-.12-.58-.52L9.28,5.71c-.09-.4.01-.82.24-.93.03-.02.06-.02.09-.03Z"/>
        </g>
      </g>
    </g>
  </g>
</svg>