<?xml version="1.0" encoding="UTF-8"?>
<svg id="Layer_2" data-name="Layer 2" xmlns="http://www.w3.org/2000/svg" viewBox="0 0 33.19 39.61">
  <defs>
    <style>
      .cls-1 {
        fill: #cc7236;
      }

      .cls-1, .cls-2, .cls-3, .cls-4, .cls-5 {
        stroke: #480809;
        stroke-linecap: round;
        stroke-linejoin: round;
      }

      .cls-1, .cls-2, .cls-4, .cls-5 {
        stroke-width: 1.18px;
      }

      .cls-6, .cls-4 {
        fill: #ffeb68;
      }

      .cls-7 {
        fill: #480809;
      }

      .cls-2, .cls-3 {
        fill: #fce7a8;
      }

      .cls-3 {
        stroke-width: .78px;
      }

      .cls-5 {
        fill: #fea153;
      }
    </style>
  </defs>
  <g id="Layer_1-2" data-name="Layer 1">
    <g>
      <path class="cls-5" d="M5.53,14.77S-1.42,7.91,1.16,5.4c3.25-3.16,9.41,4.67,9.41,4.67l-5.04,4.7Z"/>
      <path class="cls-1" d="M2.76,24.56s-1.54-2.65-1.36-4.41,3.71-6.38,14.01-7.99c10.3-1.61,16.14.45,16.54,3.2s.07,4.92.07,4.92l-15.7,5.75-13.55-1.48Z"/>
      <g>
        <path class="cls-2" d="M7.45,10.33s-1.51-2.36.85-4.36,2.77-2.78,2.58-3.6-.81-1.51-.81-1.51c0,0,2.28-.89,4.55.54s4.63,3.56,4.63,3.56l-6.39,4.57-5.4.8Z"/>
        <path class="cls-2" d="M5.31,13.86s-.52-2.18,1.1-3.47,3.88-1.31,7.88-3.55,3.91-2.79,5.99-1.17,3.1,3.08-5.68,6.46c-8.78,3.38-9.29,1.73-9.29,1.73Z"/>
        <path class="cls-3" d="M16.66,18.13c1.22-.29,9.91-1.14,11.81-3.08s1.98-2.77.44-3.94-1.31-.52-3.98,1.99c-2.09,1.95-6.34,3.78-7.67,4.64-.38.24-.6.38-.6.38Z"/>
        <path class="cls-2" d="M21.42,15.36c-2.45,1.82-5.22,3.19-8.18,3.94-.32.08-.61.15-.88.2-2.06.38-4.85,1.69-7.3.27-2.45-1.42-1.95-3.58-.46-5.56s.97,1.51,9.51-2.27,6.72-5.08,9.92-4.03,3.61,3.07.53,5.2c-1.1.76-2.19,1.55-3.13,2.25Z"/>
      </g>
      <g>
        <path class="cls-4" d="M2.09,24.07l5.87,14.01s.34,2.26,13.24-.24c11.12-2.15,11-4.14,11-4.14l.4-15.61s-1.07.16-1.57.28-1.1,1.62-1.1,1.62c0,0-.65-1.25-2.43-.8s-1.9,1.94-1.9,1.94c0,0-1.21-1.17-2.69-.82s-2.22,2.52-2.22,2.52c0,0-1.52-1.7-3.23-1.27s-2.43,2.14-2.43,2.14c0,0-1.99-1.46-3.56-1.19s-2.05,1.52-2.05,1.52c0,0-1.21-1.27-2.83-.88s-1.65,1.4-1.65,1.4c0,0-.65-1.46-1.82-1.2s-1.01.72-1.01.72Z"/>
        <g>
          <line class="cls-6" x1="4.92" y1="24.55" x2="10" y2="38.93"/>
          <path class="cls-7" d="M10.09,39.31c-.19.05-.39-.06-.46-.25l-5.08-14.38c-.07-.2.04-.43.24-.5.21-.07.43.04.5.24l5.08,14.38c.07.2-.04.43-.24.5-.01,0-.03,0-.04.01Z"/>
        </g>
        <g>
          <line class="cls-6" x1="9.41" y1="24.03" x2="12.98" y2="38.98"/>
          <path class="cls-7" d="M13.07,39.36c-.21.05-.42-.08-.47-.29l-3.57-14.95c-.05-.21.08-.42.29-.47s.42.08.47.29l3.57,14.95c.05.21-.08.42-.29.47Z"/>
        </g>
        <g>
          <line class="cls-6" x1="15.02" y1="23.7" x2="17.37" y2="38.5"/>
          <path class="cls-7" d="M17.46,38.88s-.02,0-.03,0c-.21.03-.41-.11-.45-.33l-2.35-14.81c-.03-.21.11-.42.33-.45.21-.03.41.11.45.33l2.35,14.81c.03.2-.1.4-.3.44Z"/>
        </g>
        <g>
          <line class="cls-6" x1="20.68" y1="22.82" x2="22.81" y2="37.2"/>
          <path class="cls-7" d="M22.9,37.58s-.02,0-.03,0c-.21.03-.41-.12-.44-.33l-2.13-14.38c-.03-.21.11-.41.33-.44.21-.03.41.12.44.33l2.13,14.38c.03.2-.1.39-.3.44Z"/>
        </g>
        <g>
          <line class="cls-6" x1="25.59" y1="21.12" x2="27.4" y2="36.35"/>
          <path class="cls-7" d="M27.49,36.73s-.03,0-.05,0c-.21.03-.41-.13-.44-.34l-1.81-15.23c-.03-.21.13-.41.34-.44.21-.03.41.13.44.34l1.81,15.23c.02.2-.11.38-.3.43Z"/>
        </g>
        <g>
          <line class="cls-6" x1="29.93" y1="19.98" x2="30.53" y2="35.14"/>
          <path class="cls-7" d="M30.62,35.52s-.05,0-.08.01c-.22,0-.4-.16-.41-.38l-.6-15.16c0-.22.16-.4.38-.41.22,0,.4.16.41.38l.6,15.16c0,.19-.12.35-.3.4Z"/>
        </g>
      </g>
    </g>
  </g>
</svg>