<?xml version="1.0" encoding="UTF-8"?>
<svg id="Layer_2" data-name="Layer 2" xmlns="http://www.w3.org/2000/svg" viewBox="0 0 27.8 29.5">
  <defs>
    <style>
      .cls-1 {
        stroke-width: 1.64px;
      }

      .cls-1, .cls-2 {
        fill: #fcf4e9;
      }

      .cls-1, .cls-2, .cls-3 {
        stroke: #480809;
        stroke-linecap: round;
        stroke-linejoin: round;
      }

      .cls-4, .cls-3 {
        fill: #480809;
      }

      .cls-2 {
        stroke-width: 1.47px;
      }

      .cls-3 {
        stroke-width: .63px;
      }
    </style>
  </defs>
  <g id="Layer_1-2" data-name="Layer 1">
    <g>
      <circle class="cls-1" cx="13.9" cy="15.61" r="13.08"/>
      <g>
        <path class="cls-2" d="M5.91,18.65c0-3.14,1.65-11.1,7.96-11.1s7.85,8.98,7.85,11.1-1.77,5.02-7.9,5.02-7.9-2.16-7.9-5.02Z"/>
        <path class="cls-3" d="M9.15,9.57s2.06.92,2.6,2.72.56,5.79.56,5.79h3.05s-.27-4.7,0-5.72,3.07-2.74,3.07-2.74c0,0-1.46-2.08-4.56-2.08s-4.72,2.02-4.72,2.02Z"/>
        <path class="cls-3" d="M13.95,17.94c2.39,0,3.49,1.37,3.49,2.08s-1.16,1.53-3.63,1.53-3.63-.94-3.63-1.8,1.1-1.8,3.77-1.8Z"/>
        <circle class="cls-4" cx="9.83" cy="15.92" r="1.27"/>
        <circle class="cls-4" cx="17.45" cy="15.92" r="1.27"/>
      </g>
      <path class="cls-1" d="M19.69,5.23s-.75-6.44,3.88-3.75-.31,5.82-.31,5.82"/>
      <path class="cls-1" d="M8.15,5.23s.75-6.44-3.88-3.75.31,5.82.31,5.82"/>
    </g>
  </g>
</svg>