<?xml version="1.0" encoding="UTF-8"?>
<svg id="Layer_2" data-name="Layer 2" xmlns="http://www.w3.org/2000/svg" viewBox="0 0 30.43 41.73">
  <defs>
    <style>
      .cls-1 {
        fill: none;
        stroke-width: .75px;
      }

      .cls-1, .cls-2, .cls-3, .cls-4, .cls-5 {
        stroke: #480809;
        stroke-linecap: round;
        stroke-linejoin: round;
      }

      .cls-2 {
        stroke-width: 2px;
      }

      .cls-2, .cls-3, .cls-4, .cls-5 {
        fill: #fcf4e9;
      }

      .cls-6 {
        fill: #480809;
      }

      .cls-3 {
        stroke-width: 1.55px;
      }

      .cls-4 {
        stroke-width: 1.88px;
      }
    </style>
  </defs>
  <g id="Layer_1-2" data-name="Layer 1">
    <g>
      <polygon class="cls-4" points="8.66 16.54 15.02 .94 22.78 17.23 8.66 16.54"/>
      <path class="cls-3" d="M13.14,25.03S.98,24.41.78,19.73s14.19-4.8,20.29-4.17,8.52,1.55,8.59,4.49-9.79,4.82-9.79,4.82l-6.73.17Z"/>
      <g>
        <circle class="cls-2" cx="15.22" cy="29.79" r="10.93"/>
        <g>
          <circle class="cls-6" cx="11.41" cy="28.47" r="1.08"/>
          <circle class="cls-6" cx="19.03" cy="28.47" r="1.08"/>
        </g>
        <path class="cls-6" d="M15.22,30.92h.7c.5,0,.75.6.39.95l-.7.7c-.22.22-.57.22-.79,0l-.7-.7c-.35-.35-.1-.95.39-.95h.7Z"/>
        <g>
          <path class="cls-5" d="M6.94,25.44v-5.54c0-.44.68-.65,1.06-.34l4.15,3.42"/>
          <path class="cls-5" d="M23.49,25.44v-5.54c0-.44-.68-.65-1.06-.34l-4.15,3.42"/>
        </g>
        <path class="cls-1" d="M15.22,31.83s-.39,2.63-1.51,2.98"/>
        <path class="cls-1" d="M15.22,31.83s.39,2.63,1.51,2.98"/>
        <g>
          <line class="cls-5" x1="18.4" y1="31.57" x2="23.06" y2="30.27"/>
          <line class="cls-5" x1="18.4" y1="33.32" x2="23.06" y2="34.62"/>
          <line class="cls-5" x1="12.03" y1="31.57" x2="7.37" y2="30.27"/>
          <line class="cls-5" x1="12.03" y1="33.32" x2="7.37" y2="34.62"/>
        </g>
      </g>
    </g>
  </g>
</svg>