<?xml version="1.0" encoding="UTF-8"?>
<svg id="Layer_2" data-name="Layer 2" xmlns="http://www.w3.org/2000/svg" viewBox="0 0 27.32 27.55">
  <defs>
    <style>
      .cls-1 {
        fill: none;
        stroke-width: .75px;
      }

      .cls-1, .cls-2, .cls-3, .cls-4 {
        stroke: #480809;
        stroke-linejoin: round;
      }

      .cls-1, .cls-3, .cls-4 {
        stroke-linecap: round;
      }

      .cls-2, .cls-5 {
        fill: #480809;
      }

      .cls-3 {
        stroke-width: 2px;
      }

      .cls-3, .cls-4 {
        fill: #fcf4e9;
      }

      .cls-4 {
        stroke-width: .96px;
      }
    </style>
  </defs>
  <g id="Layer_1-2" data-name="Layer 1">
    <g>
      <circle class="cls-3" cx="13.66" cy="11.93" r="10.93"/>
      <g>
        <circle class="cls-5" cx="9.85" cy="10.61" r="1.08"/>
        <circle class="cls-5" cx="17.47" cy="10.61" r="1.08"/>
      </g>
      <path class="cls-5" d="M13.66,13.06h.7c.5,0,.75.6.39.95l-.7.7c-.22.22-.57.22-.79,0l-.7-.7c-.35-.35-.1-.95.39-.95h.7Z"/>
      <g>
        <path class="cls-1" d="M13.66,13.97s.27,2.57-1.66,2.88-2.32-1.52-2.32-1.52"/>
        <path class="cls-1" d="M13.69,13.97s-.27,2.57,1.66,2.88,2.32-1.52,2.32-1.52"/>
      </g>
      <g>
        <path class="cls-2" d="M.5,15.67c.26.13,5.62-.71,5.62-.71l7.54,8.07L1.49,27.05s3.04-4.63,3.09-4.85S.5,15.67.5,15.67Z"/>
        <path class="cls-2" d="M26.82,15.67c-.26.13-5.62-.71-5.62-.71l-7.54,8.07,12.18,4.01s-3.04-4.63-3.09-4.85,4.07-6.53,4.07-6.53Z"/>
      </g>
      <g>
        <polyline class="cls-2" points="11.02 16.88 11.45 18.6 11.82 16.88"/>
        <polyline class="cls-2" points="15.5 16.88 15.93 18.6 16.31 16.88"/>
      </g>
      <g>
        <path class="cls-4" d="M21.41,8.42s1.99-4.11,1.94-4.89-1.11-.43-1.57-.88-1.19-2.12-2.17-1.95-3.31,2.75-3.19,4,1.79,2.58,2.93,2.02,2.14-1.85,2.14-1.85"/>
        <path class="cls-4" d="M5.91,8.42s-1.99-4.11-1.94-4.89,1.11-.43,1.57-.88,1.19-2.12,2.17-1.95,3.31,2.75,3.19,4-1.79,2.58-2.93,2.02-2.14-1.85-2.14-1.85"/>
      </g>
    </g>
  </g>
</svg>