<?xml version="1.0" encoding="UTF-8"?>
<svg id="Layer_2" data-name="Layer 2" xmlns="http://www.w3.org/2000/svg" viewBox="0 0 23.87 26.67">
  <defs>
    <style>
      .cls-1 {
        stroke-width: 2px;
      }

      .cls-1, .cls-2 {
        fill: #fcf4e9;
        stroke: #480809;
        stroke-linecap: round;
        stroke-linejoin: round;
      }

      .cls-3 {
        fill: #480809;
      }

      .cls-2 {
        stroke-width: 1.99px;
      }
    </style>
  </defs>
  <g id="Layer_1-2" data-name="Layer 1">
    <g>
      <path class="cls-1" d="M11.93,1h0c6.03,0,10.93,4.9,10.93,10.93v13.74H1v-13.74C1,5.9,5.9,1,11.93,1Z"/>
      <g>
        <circle class="cls-3" cx="8.12" cy="10.61" r="1.08"/>
        <circle class="cls-3" cx="15.74" cy="10.61" r="1.08"/>
      </g>
      <path class="cls-2" d="M22.87,23.83s-.18,1.78-2.73,1.82-2.74-1.96-2.74-1.96v.14s-.18,1.78-2.73,1.82-2.74-1.96-2.74-1.96v.14s-.18,1.78-2.73,1.82-2.74-1.96-2.74-1.96v.14s-.18,1.78-2.73,1.82-2.74-1.96-2.74-1.96"/>
    </g>
  </g>
</svg>