<?xml version="1.0" encoding="UTF-8"?>
<svg id="Layer_2" data-name="Layer 2" xmlns="http://www.w3.org/2000/svg" xmlns:xlink="http://www.w3.org/1999/xlink" viewBox="0 0 56.86 32.91">
  <defs>
    <style>
      .cls-1 {
        fill: none;
      }

      .cls-2 {
        fill: #fff;
      }

      .cls-3 {
        fill: #febecc;
        stroke: #480809;
        stroke-linecap: round;
        stroke-linejoin: round;
        stroke-width: .99px;
      }

      .cls-4 {
        clip-path: url(#clippath);
      }
    </style>
    <clipPath id="clippath">
      <rect id="SVGID" class="cls-1" x="9.33" y="8.43" width="38.42" height="16.01" rx="4.53" ry="4.53" transform="translate(5.15 -6.75) rotate(14.81)"/>
    </clipPath>
  </defs>
  <g id="Layer_1-2" data-name="Layer 1">
    <g>
      <g>
        <path class="cls-3" d="M9.49,17.92s-6.2,3.43-7.87,1.5c-2.06-2.39,1.85-3.64,3.19-3.81s-3.74,1.38-4.23-1.51c-.78-4.56,4.4-3.26,4.4-3.26,0,0-4.14-.58-2.91-4,1.06-2.95,4.62-1.3,4.62-1.3,0,0-2.08-3.62-.15-4.81,2.62-1.61,5.94,5.97,5.94,5.97l-2.99,11.23Z"/>
        <path class="cls-3" d="M44.38,27.14s3.7,6.05,6.1,5.19c2.97-1.06.19-4.08-.89-4.89s2.57,3.05,4.43.78c2.93-3.58-2.21-5.01-2.21-5.01,0,0,3.89,1.54,4.51-2.04.54-3.08-3.37-3.42-3.37-3.42,0,0,3.6-2.12,2.51-4.11-1.48-2.69-8.12,2.25-8.12,2.25l-2.95,11.24Z"/>
      </g>
      <rect class="cls-3" x="8.85" y="7.95" width="39.38" height="16.98" rx="4.96" ry="4.96" transform="translate(5.15 -6.75) rotate(14.81)"/>
      <g class="cls-4">
        <g>
          <path class="cls-2" d="M14.36,21.98c-.22-.06-.38-.26-.37-.5l.79-17.2c.01-.27.24-.49.52-.47.27.01.49.24.47.52l-.79,17.2c-.01.27-.24.49-.52.47-.04,0-.07,0-.1-.02Z"/>
          <path class="cls-2" d="M21.19,23.78c-.22-.06-.38-.26-.37-.5l.8-17.35c.01-.27.24-.49.52-.47.27.01.49.24.47.52l-.8,17.35c-.01.27-.24.49-.52.47-.04,0-.07,0-.1-.02Z"/>
          <path class="cls-2" d="M28.02,25.59c-.22-.06-.38-.26-.37-.5l.8-17.35c.01-.27.24-.49.52-.47.27.01.49.24.47.52l-.8,17.35c-.01.27-.24.49-.52.47-.04,0-.07,0-.1-.02Z"/>
          <path class="cls-2" d="M34.85,27.39c-.22-.06-.38-.26-.37-.5l.8-17.35c.01-.27.24-.49.52-.47.27.01.49.24.47.52l-.8,17.35c-.01.27-.24.49-.52.47-.04,0-.07,0-.1-.02Z"/>
          <path class="cls-2" d="M41.69,28.99c-.22-.06-.38-.26-.37-.5l.79-17.14c.01-.27.24-.49.52-.47.27.01.49.24.47.52l-.79,17.14c-.01.27-.24.49-.52.47-.04,0-.07,0-.1-.02Z"/>
        </g>
      </g>
    </g>
  </g>
</svg>