<?xml version="1.0" encoding="UTF-8"?>
<svg id="Layer_2" data-name="Layer 2" xmlns="http://www.w3.org/2000/svg" viewBox="0 0 26.78 52.23">
  <defs>
    <style>
      .cls-1 {
        fill: #fff;
      }

      .cls-1, .cls-2, .cls-3, .cls-4 {
        stroke: #480809;
      }

      .cls-1, .cls-3 {
        stroke-miterlimit: 10;
      }

      .cls-1, .cls-3, .cls-4 {
        stroke-width: .54px;
      }

      .cls-2 {
        fill: none;
        stroke-width: .27px;
      }

      .cls-2, .cls-4 {
        stroke-linecap: round;
        stroke-linejoin: round;
      }

      .cls-3 {
        fill: #fea153;
      }

      .cls-4 {
        fill: #fee96a;
      }
    </style>
  </defs>
  <g id="Layer_1-2" data-name="Layer 1">
    <g>
      <circle class="cls-3" cx="13.39" cy="13.39" r="13.12"/>
      <path class="cls-2" d="M17.8,25.19c-2.32.52-4.74.26-6.94-.75-2.67-1.22-4.7-3.41-5.72-6.16-1.69-4.56.64-9.64,5.2-11.33,1.77-.66,3.7-.59,5.41.2,1.72.79,3.03,2.2,3.69,3.97.53,1.42.47,2.97-.16,4.35s-1.77,2.43-3.19,2.96c-1.15.43-2.39.38-3.5-.13-1.11-.51-1.96-1.42-2.38-2.57-.34-.92-.31-1.93.11-2.82.41-.9,1.15-1.58,2.07-1.92.75-.28,1.56-.25,2.28.08.72.33,1.27.93,1.55,1.67.46,1.25-.17,2.64-1.42,3.1-1.01.38-2.14-.14-2.51-1.15-.15-.4-.13-.83.05-1.22s.49-.68.89-.83l.09.25c-.33.12-.59.37-.74.69-.15.32-.16.68-.04,1.01.32.87,1.3,1.32,2.17.99.54-.2.96-.6,1.2-1.11.24-.52.26-1.1.06-1.64-.25-.68-.75-1.22-1.41-1.52s-1.39-.33-2.07-.08c-.86.32-1.54.95-1.92,1.78-.38.83-.42,1.76-.1,2.62.4,1.08,1.2,1.94,2.24,2.42,1.05.48,2.22.52,3.3.12,1.36-.5,2.44-1.51,3.04-2.82s.66-2.79.15-4.15c-.63-1.71-1.89-3.06-3.55-3.82-1.65-.76-3.5-.83-5.21-.19-2.14.79-3.84,2.37-4.79,4.45-.95,2.08-1.04,4.4-.24,6.54,2.06,5.54,8.24,8.37,13.78,6.32l.09.25c-.48.18-.97.32-1.46.43Z"/>
      <rect class="cls-1" x="17.5" y="23.89" width="2.58" height="28.38" rx="1.29" ry="1.29" transform="translate(-7.81 4.98) rotate(-12.52)"/>
      <g>
        <path class="cls-4" d="M17.53,24.11s1.22-4.77,3.08-3.98.74,2.22.74,2.22c0,0,2.82-1.21,3.17,1.88s-2.05,2.05-2.05,2.05c0,0,1.39.38.8,1.44s-5.02-.63-5.02-.63l-.73-2.98Z"/>
        <path class="cls-4" d="M14.08,24.64s-3.27-3.68-4.56-2.12.36,2.31.36,2.31c0,0-3.06.22-1.95,3.12s2.76.88,2.76.88c0,0-1.06.98-.06,1.65s4.17-2.86,4.17-2.86l-.72-2.98Z"/>
        <path class="cls-4" d="M13.53,24.85c.69-1.2,3.82-1.21,4.57-.8s1.1,2.44.61,3.19-3.3,1.36-4.28.9-.89-3.29-.89-3.29Z"/>
      </g>
    </g>
  </g>
</svg>