<?xml version="1.0" encoding="UTF-8"?>
<svg id="Layer_2" data-name="Layer 2" xmlns="http://www.w3.org/2000/svg" xmlns:xlink="http://www.w3.org/1999/xlink" viewBox="0 0 36.2 31.67">
  <defs>
    <style>
      .cls-1 {
        fill: none;
      }

      .cls-2 {
        fill: #c488ec;
        stroke: #480809;
        stroke-linecap: round;
        stroke-linejoin: round;
        stroke-width: .96px;
      }

      .cls-3 {
        fill: #fff;
      }

      .cls-4 {
        clip-path: url(#clippath);
      }
    </style>
    <clipPath id="clippath">
      <circle class="cls-1" cx="18.18" cy="16.2" r="9.2"/>
    </clipPath>
  </defs>
  <g id="Layer_1-2" data-name="Layer 1">
    <g>
      <g>
        <path class="cls-2" d="M14.05,24.89s-2.02,6.52-4.47,6.29c-3.02-.29-1.15-3.76-.32-4.77s-1.67,3.46-3.95,1.78c-3.58-2.65.88-5.2.88-5.2,0,0-3.26,2.36-4.69-.84-1.23-2.75,2.34-3.99,2.34-3.99,0,0-3.86-1.13-3.31-3.24.75-2.86,8.11.18,8.11.18l5.41,9.79Z"/>
        <path class="cls-2" d="M27.74,17.3s6.6,1.74,7.7-.47c1.35-2.72-2.59-2.96-3.88-2.8s3.82.41,3.59-2.41c-.35-4.44-4.88-2-4.88-2,0,0,3.73-1.52,1.77-4.43-1.68-2.5-4.62-.12-4.62-.12,0,0,1.09-3.87-1-4.52-2.82-.88-4.14,6.98-4.14,6.98l5.45,9.77Z"/>
      </g>
      <circle class="cls-2" cx="18.18" cy="16.2" r="9.66"/>
      <g class="cls-4">
        <g>
          <circle class="cls-3" cx="24.76" cy="17.86" r="2.28"/>
          <circle class="cls-3" cx="15.26" cy="10.12" r="2.28"/>
          <circle class="cls-3" cx="13.26" cy="19.8" r="2.28"/>
          <circle class="cls-3" cx="9.35" cy="15.11" r="1.14"/>
          <circle class="cls-3" cx="23.38" cy="10.7" r="1.14"/>
          <circle class="cls-3" cx="19.76" cy="22.93" r="1.14"/>
          <circle class="cls-3" cx="19.36" cy="16.3" r="1.14"/>
          <circle class="cls-3" cx="26.78" cy="14.13" r="1.14"/>
        </g>
      </g>
    </g>
  </g>
</svg>