<?xml version="1.0" encoding="UTF-8"?>
<svg id="Layer_2" data-name="Layer 2" xmlns="http://www.w3.org/2000/svg" viewBox="0 0 34.38 58.12">
  <defs>
    <style>
      .cls-1 {
        fill: #fff;
      }

      .cls-1, .cls-2, .cls-3 {
        stroke: #480809;
        stroke-linecap: round;
        stroke-linejoin: round;
        stroke-width: .68px;
      }

      .cls-2 {
        fill: #fee96a;
      }

      .cls-3 {
        fill: #febecc;
      }
    </style>
  </defs>
  <g id="Layer_1-2" data-name="Layer 1">
    <g>
      <g>
        <circle class="cls-3" cx="12.74" cy="12.26" r="11.92"/>
        <rect class="cls-3" x="-.64" y="9.99" width="26.77" height="4.54" rx="2.27" ry="2.27" transform="translate(-3.91 6.32) rotate(-24.27)"/>
      </g>
      <rect class="cls-1" x="24.11" y="23.46" width="3.25" height="35.76" rx="1.62" ry="1.62" transform="translate(-14.72 14.23) rotate(-24.27)"/>
      <g>
        <path class="cls-2" d="M20.04,22.16s.28-6.2,2.78-5.7,1.49,2.55,1.49,2.55c0,0,3.17-2.21,4.39,1.51s-2.01,3.06-2.01,3.06c0,0,1.82.11,1.36,1.57s-6.35.5-6.35.5l-1.66-3.49Z"/>
        <path class="cls-2" d="M15.92,23.69s-4.98-3.7-6.17-1.45,1.03,2.76,1.03,2.76c0,0-3.72,1.06-1.61,4.36s3.64.38,3.64.38c0,0-1.06,1.48.35,2.05s4.41-4.6,4.41-4.6l-1.65-3.49Z"/>
        <path class="cls-2" d="M15.3,24.09c.54-1.65,4.4-2.48,5.43-2.16s1.98,2.73,1.57,3.78-3.72,2.53-5.06,2.21-1.94-3.83-1.94-3.83Z"/>
      </g>
    </g>
  </g>
</svg>